<svg width="55" height="55" viewBox="0 0 55 55" fill="none" xmlns="http://www.w3.org/2000/svg">
<path d="M27.5088 17.3926C21.9189 17.3926 17.4102 21.9014 17.4102 27.4912C17.4102 33.0811 21.9189 37.5898 27.5088 37.5898C33.0986 37.5898 37.6074 33.0811 37.6074 27.4912C37.6074 21.9014 33.0986 17.3926 27.5088 17.3926ZM27.5088 34.0566C23.8965 34.0566 20.9434 31.1123 20.9434 27.4912C20.9434 23.8701 23.8877 20.9258 27.5088 20.9258C31.1299 20.9258 34.0742 23.8701 34.0742 27.4912C34.0742 31.1123 31.1211 34.0566 27.5088 34.0566V34.0566ZM40.376 16.9795C40.376 18.2891 39.3213 19.335 38.0205 19.335C36.7109 19.335 35.665 18.2803 35.665 16.9795C35.665 15.6787 36.7197 14.624 38.0205 14.624C39.3213 14.624 40.376 15.6787 40.376 16.9795ZM47.0645 19.3701C46.915 16.2148 46.1943 13.4199 43.8828 11.1172C41.5801 8.81445 38.7852 8.09375 35.6299 7.93555C32.3779 7.75098 22.6309 7.75098 19.3789 7.93555C16.2324 8.08496 13.4375 8.80566 11.126 11.1084C8.81445 13.4111 8.10254 16.2061 7.94434 19.3613C7.75977 22.6133 7.75977 32.3604 7.94434 35.6123C8.09375 38.7676 8.81445 41.5625 11.126 43.8652C13.4375 46.168 16.2236 46.8887 19.3789 47.0469C22.6309 47.2314 32.3779 47.2314 35.6299 47.0469C38.7852 46.8975 41.5801 46.1768 43.8828 43.8652C46.1855 41.5625 46.9062 38.7676 47.0645 35.6123C47.249 32.3604 47.249 22.6221 47.0645 19.3701V19.3701ZM42.8633 39.1016C42.1777 40.8242 40.8506 42.1514 39.1191 42.8457C36.5264 43.874 30.374 43.6367 27.5088 43.6367C24.6436 43.6367 18.4824 43.8652 15.8984 42.8457C14.1758 42.1602 12.8486 40.833 12.1543 39.1016C11.126 36.5088 11.3633 30.3564 11.3633 27.4912C11.3633 24.626 11.1348 18.4648 12.1543 15.8809C12.8398 14.1582 14.167 12.8311 15.8984 12.1367C18.4912 11.1084 24.6436 11.3457 27.5088 11.3457C30.374 11.3457 36.5352 11.1172 39.1191 12.1367C40.8418 12.8223 42.1689 14.1494 42.8633 15.8809C43.8916 18.4736 43.6543 24.626 43.6543 27.4912C43.6543 30.3564 43.8916 36.5176 42.8633 39.1016Z" fill="#05FDD8"/>
<rect width="55" height="55" rx="10" fill="#05FDD8" fill-opacity="0.25"/>
</svg>
