<svg width="55" height="55" viewBox="0 0 55 55" fill="none" xmlns="http://www.w3.org/2000/svg">
<path d="M17.8344 45H10.5781V21.6323H17.8344V45ZM14.2023 18.4447C11.882 18.4447 10 16.5228 10 14.2024C10 13.0879 10.4427 12.019 11.2308 11.2309C12.0189 10.4428 13.0878 10 14.2023 10C15.3169 10 16.3858 10.4428 17.1738 11.2309C17.9619 12.019 18.4047 13.0879 18.4047 14.2024C18.4047 16.5228 16.5219 18.4447 14.2023 18.4447ZM44.9922 45H37.7516V33.6247C37.7516 30.9137 37.6969 27.4371 33.9789 27.4371C30.2062 27.4371 29.6281 30.3825 29.6281 33.4294V45H22.3797V21.6323H29.3391V24.8199H29.4406C30.4094 22.9839 32.7758 21.0463 36.3063 21.0463C43.65 21.0463 45 25.8824 45 32.1638V45H44.9922Z" fill="#05FDD8"/>
<rect width="55" height="55" rx="10" fill="#05FDD8" fill-opacity="0.25"/>
</svg>
