<svg width="1440" height="606" viewBox="0 0 1440 606" fill="none" xmlns="http://www.w3.org/2000/svg">
<g opacity="0.65">
<path d="M220.16 181.845C271.16 148.9 301.25 93.3499 358.181 67.3455C395.972 50.0752 438.083 48.0783 480.542 48.0783C493.236 48.0783 505.965 48.2593 518.611 48.2593C527.757 48.2593 536.854 48.1632 545.875 47.8407C701.062 42.314 750.521 -17.8633 879.736 -74.4543C924.979 -94.2645 966.056 -102.49 1004.14 -102.49C1173.97 -102.574 1284.81 61.3266 1440 92.36V91.6642C1285.47 60.6704 1174.57 -103.112 1004.14 -103.197C965.896 -103.197 924.674 -94.9263 879.326 -75.0709C749.91 -18.3668 700.688 41.6239 545.84 47.1393C536.84 47.4617 527.75 47.5522 518.611 47.5522C505.972 47.5522 493.25 47.3769 480.542 47.3769C438.056 47.3769 395.778 49.3624 357.764 66.7345C300.507 92.9256 270.417 148.527 219.625 181.297C156.264 222.196 79.4445 255.045 0 284.477V285.247C79.5972 255.769 156.618 222.857 220.16 181.845Z" fill="#6BB4DF"/>
<path d="M50.618 263.185C107.91 242.356 162.757 219.039 209.993 189.68C231.389 176.358 249.229 158.975 266.611 140.867C291.062 115.423 313.778 89.6221 345.521 73.6755C380.938 55.8961 420.812 52.4341 464.153 52.1512C466.181 52.1456 468.215 52.1456 470.25 52.1456C482.986 52.1456 495.674 52.321 508.222 52.321C516.167 52.321 524.056 52.2474 531.875 52.0042C593.34 50.1035 637.715 39.3668 678.257 21.1066C736.521 -5.14111 782.729 -42.6685 861.09 -75.0595C900.465 -91.3342 933.556 -96.2161 965.653 -96.2161C978.382 -96.2161 990.965 -95.4524 1003.71 -94.3154C1054.73 -89.9144 1100.19 -77.9897 1142.07 -60.8722C1184.33 -43.6075 1224.49 -21.0821 1268.67 3.59869C1315.51 29.7672 1361.51 57.6949 1412.47 70.5755C1421.63 72.8609 1430.8 74.7163 1440 76.1079V75.3952C1430.89 74.0092 1421.81 72.1651 1412.72 69.9024C1361.97 57.084 1316.01 29.2015 1269.16 3.0217C1224.98 -21.6647 1184.79 -44.2072 1142.46 -61.5001C1100.5 -78.646 1054.93 -90.6045 1003.81 -95.0168C991.035 -96.1538 978.431 -96.9175 965.653 -96.9175C933.444 -96.9175 900.188 -92.013 860.701 -75.6874C782.215 -43.2342 735.958 -5.67853 677.84 20.49C637.41 38.6993 593.201 49.3964 531.84 51.3027C524.042 51.546 516.16 51.6195 508.222 51.6195C495.688 51.6195 482.993 51.4385 470.25 51.4385C468.215 51.4385 466.181 51.4442 464.139 51.4498C420.764 51.7383 380.701 55.1946 345.069 73.0759C313.125 89.1243 290.368 115.01 265.938 140.437C248.556 158.528 230.764 175.866 209.472 189.12C162.312 218.428 107.528 241.723 50.2709 262.534C33.6736 268.576 16.882 274.499 0 280.353V281.117C17 275.228 33.9097 269.255 50.618 263.185Z" fill="#6BB4DF"/>
<path d="M38.4722 265.448C96.1805 247.001 152.007 226.121 199.833 197.515C221.431 184.555 239.521 167.387 256.903 148.94C281.326 123.014 302.646 96.6875 332.861 80.0111C366.569 61.4171 405.021 56.722 449.986 56.2298C453.035 56.2015 456.083 56.1959 459.104 56.1959C472.285 56.1959 485.319 56.3995 498.153 56.3995C504.785 56.3995 511.354 56.343 517.868 56.1732C578.688 54.5724 622.229 44.1525 663.174 23.556C719.597 -4.82434 763.299 -44.7276 842.438 -75.6648C874.076 -88.0363 900.09 -91.7868 924.799 -91.7868C945.812 -91.7868 965.896 -89.0658 987.667 -86.6051C1040.92 -80.5749 1088.03 -72.9891 1129.88 -60.793C1172.5 -48.3706 1212.72 -31.3775 1260.93 -8.35986C1310.81 15.4554 1358.69 44.8822 1412.55 55.7716C1421.79 57.6384 1430.92 59.0752 1440 60.0482V59.3467C1430.99 58.3681 1421.93 56.9426 1412.76 55.0871C1359.13 44.2543 1311.3 14.8841 1261.36 -8.96515C1213.14 -31.9998 1172.86 -49.0098 1130.17 -61.4492C1088.23 -73.6736 1041.06 -81.2707 987.785 -87.3009C966.035 -89.7616 945.91 -92.4939 924.799 -92.4939C899.986 -92.4939 873.806 -88.7094 842.069 -76.2984C762.764 -45.2933 719 -5.33911 662.722 22.9563C621.903 43.4793 578.556 53.8653 517.84 55.4718C511.34 55.6415 504.778 55.6924 498.153 55.6924C485.333 55.6924 472.292 55.4944 459.104 55.4944C456.076 55.4944 453.035 55.5001 449.979 55.5227C404.951 56.0205 366.292 60.7213 332.375 79.4285C301.965 96.2179 280.611 122.618 256.215 148.504C238.854 166.94 220.812 184.057 199.319 196.949C151.59 225.499 95.8334 246.356 38.1597 264.797C25.5 268.842 12.7709 272.892 0 276.948V277.706C12.868 273.616 25.7084 269.532 38.4722 265.448Z" fill="#6BB4DF"/>
<path d="M26.3334 267.716C84.4305 251.639 141.243 233.215 189.667 205.349C211.465 192.752 229.819 175.798 247.188 157.001C271.583 130.611 291.507 103.758 320.194 86.341C352.201 66.9325 389.222 61.0098 435.826 60.3027C439.646 60.2574 443.444 60.2404 447.229 60.2404C461.167 60.2404 474.854 60.4837 488.264 60.4837C493.507 60.4837 498.708 60.4497 503.868 60.3423C564.028 59.0355 606.743 49.0003 648.09 26.0053C702.708 -4.38318 743.931 -46.7076 823.792 -76.2758C849.75 -85.8868 871.118 -89.0999 890.847 -89.0999C918.319 -89.1055 942.625 -82.8547 971.618 -78.8893C1027.11 -71.3148 1076.02 -68.0225 1117.7 -60.7082C1160.83 -53.1451 1200.88 -41.639 1253.18 -20.3185C1306.02 1.20578 1355.91 31.9789 1412.62 40.962C1421.93 42.4384 1431.03 43.4793 1440 44.0789V43.3718C1431.09 42.7778 1422.04 41.7426 1412.78 40.2718C1356.35 31.3397 1306.49 0.623108 1253.56 -20.952C1201.22 -42.2839 1161.08 -53.8182 1117.88 -61.3983C1076.12 -68.7239 1027.21 -72.0049 971.764 -79.5851C942.847 -83.5279 918.486 -89.8013 890.847 -89.8069C871.007 -89.8069 849.486 -86.5656 823.431 -76.915C743.382 -47.2676 702.076 -4.86401 647.597 25.4227C606.389 48.3385 563.91 58.3341 503.84 59.6352C498.694 59.7426 493.507 59.7822 488.264 59.7822C474.868 59.7822 461.174 59.539 447.229 59.539C443.444 59.539 439.639 59.5503 435.812 59.6012C389.139 60.3027 351.875 66.248 319.688 85.7754C290.806 103.312 270.868 130.227 246.507 156.571C229.16 175.351 210.861 192.248 189.174 204.772C140.854 232.576 84.125 250.977 26.0555 267.048C17.382 269.447 8.6875 271.891 0 274.346V275.092C8.78467 272.609 17.5625 270.143 26.3334 267.716Z" fill="#6BB4DF"/>
<path d="M14.1875 269.984C72.6597 256.25 130.486 240.303 179.507 213.184C201.507 200.954 220.118 184.216 237.479 165.056C261.847 138.197 280.375 110.818 307.528 92.6655C337.826 72.4479 373.424 65.2072 421.66 64.3813C426.306 64.3021 430.917 64.2682 435.493 64.2682C450.312 64.2682 464.771 64.585 478.847 64.585C482.549 64.585 486.215 64.568 489.861 64.5058C549.375 63.5102 591.271 53.9218 633.007 28.4491C685.882 -3.82874 724.611 -48.6195 805.146 -76.8867C827.34 -84.6761 845.736 -87.4876 862.375 -87.4876C895 -87.4989 920.972 -76.6491 955.576 -71.1789C1013.31 -62.0545 1064.15 -63.1349 1105.52 -60.6346C1149.33 -57.9815 1188.97 -51.8495 1245.44 -32.2882C1301.16 -12.9984 1353.15 19.0588 1412.69 26.1581C1422.05 27.2725 1431.13 27.9626 1440 28.2172V27.5101C1431.17 27.2555 1422.13 26.5711 1412.81 25.4623C1353.57 18.4083 1301.62 -13.5754 1245.78 -32.9388C1189.23 -52.5227 1149.46 -58.683 1105.58 -61.3361C1064.15 -63.8364 1013.36 -62.7672 955.736 -71.8634C921.271 -77.3053 895.25 -88.1833 862.375 -88.1947C845.611 -88.1947 827.09 -85.3549 804.806 -77.5372C724.049 -49.1795 685.208 -4.28128 632.486 27.8891C590.903 53.2656 549.264 62.7974 489.84 63.8043C486.201 63.8609 482.542 63.8835 478.847 63.8835C464.785 63.8835 450.319 63.5611 435.493 63.5611C430.91 63.5611 426.299 63.595 421.646 63.6742C373.326 64.5001 337.472 71.7748 306.993 92.1281C279.646 110.405 261.118 137.835 236.792 164.643C219.451 183.763 200.903 200.434 179.021 212.607C130.132 239.647 72.3959 255.588 13.9514 269.306C9.29163 270.397 4.64587 271.529 0 272.649V273.384C4.72217 272.241 9.45837 271.093 14.1875 269.984Z" fill="#6BB4DF"/>
<path d="M2.04163 272.247C60.875 260.849 119.729 247.391 169.347 221.019C191.549 209.151 210.417 192.622 227.771 173.122C252.104 145.794 269.236 117.889 294.875 98.9954C323.465 77.969 357.632 69.4894 407.5 68.4542C412.597 68.3467 417.653 68.3071 422.66 68.3071C438.528 68.3071 453.91 68.7144 468.785 68.7144C471.153 68.7144 473.514 68.6974 475.854 68.6748C534.715 67.9734 575.84 58.9111 617.91 30.8985C669.097 -3.17825 705.34 -50.4637 786.5 -77.4977C806.104 -84.0256 822.472 -86.5203 837.104 -86.5203C874.229 -86.526 900.292 -70.4436 939.535 -63.4631C966.618 -58.6548 992.264 -57.1444 1016.01 -57.1444C1044.84 -57.1444 1070.89 -59.3619 1093.34 -60.5611C1104.08 -61.1381 1114.5 -61.5228 1124.98 -61.5228C1158.01 -61.5228 1191.62 -57.7327 1237.69 -44.2581C1296.25 -27.1349 1350.38 6.12723 1412.76 11.3485C1421.6 12.0839 1430.12 12.4572 1438.42 12.4572C1438.95 12.4572 1439.47 12.4459 1440 12.4459V11.7388C1439.47 11.7445 1438.95 11.7558 1438.42 11.7558C1430.15 11.7558 1421.65 11.3824 1412.85 10.647C1350.79 5.47104 1296.7 -27.7232 1237.99 -44.92C1191.83 -58.4172 1158.09 -62.2242 1124.98 -62.2242C1114.47 -62.2242 1104.03 -61.8339 1093.28 -61.2682C1070.81 -60.0633 1044.78 -57.8515 1016.01 -57.8515C992.306 -57.8515 966.729 -59.3506 939.715 -64.1476C900.694 -71.0715 874.562 -87.2048 837.104 -87.2217C822.354 -87.2217 805.861 -84.7045 786.167 -78.1482C704.764 -51.0237 668.403 -3.60251 617.368 30.3554C575.438 58.2549 534.618 67.2663 475.847 67.9677C473.507 67.996 471.153 68.0073 468.785 68.0073C453.924 68.0073 438.556 67.6057 422.66 67.6057C417.646 67.6057 412.59 67.6453 407.479 67.7527C357.514 68.771 323.062 77.3071 294.292 98.475C268.486 117.499 251.361 145.444 227.069 172.71C209.75 192.163 190.951 208.625 168.868 220.431C119.41 246.723 60.6459 260.175 1.84021 271.563C1.22913 271.681 0.611084 271.806 0 271.93V272.649C0.680542 272.519 1.36108 272.383 2.04163 272.247Z" fill="#6BB4DF"/>
<path d="M159.181 228.859C181.583 217.348 200.708 201.033 218.056 181.183C242.368 153.386 258.09 124.955 282.208 105.325C309.097 83.4787 341.833 73.7603 393.34 72.5271C398.819 72.397 404.222 72.3461 409.562 72.3461C426.556 72.3461 442.868 72.8495 458.549 72.8495C459.653 72.8495 460.757 72.8495 461.854 72.8439C520.062 72.4479 560.458 63.9514 602.826 33.3479C652.382 -2.44849 686.111 -52.2512 767.847 -78.1086C785.576 -83.7145 800.486 -85.9377 813.729 -85.9377C855.014 -85.9546 880.222 -64.2437 923.493 -55.7471C944.535 -51.6233 964.743 -50.0677 983.854 -50.0677C1021.22 -50.0677 1054.35 -56.0356 1081.17 -60.5045C1103.78 -64.2663 1124.65 -67.157 1147.9 -67.157C1171.39 -67.157 1197.32 -64.2097 1229.94 -56.2223C1291.31 -41.2148 1347.62 -6.82123 1412.83 -3.46106C1418.43 -3.17258 1423.91 -3.03116 1429.26 -3.03116C1432.9 -3.03116 1436.47 -3.09903 1440 -3.24045V-3.94189C1436.47 -3.80615 1432.9 -3.7326 1429.26 -3.7326C1423.93 -3.7326 1418.47 -3.87967 1412.88 -4.16818C1348.02 -7.48306 1291.76 -41.8144 1230.19 -56.9011C1197.51 -64.8999 1171.49 -67.8584 1147.9 -67.8584C1124.56 -67.8584 1103.62 -64.9565 1080.99 -61.189C1054.17 -56.7314 1021.11 -50.7748 983.854 -50.7748C964.799 -50.7748 944.66 -52.3248 923.701 -56.4316C880.701 -64.832 855.444 -86.6165 813.729 -86.6391C800.368 -86.6391 785.34 -84.3933 767.535 -78.7648C685.5 -52.8056 651.653 -2.83881 602.25 32.8218C560.028 63.3008 519.972 71.7295 461.847 72.1368C460.757 72.1425 459.653 72.1481 458.549 72.1481C442.889 72.1481 426.576 71.6447 409.562 71.6447C404.215 71.6447 398.799 71.6956 393.319 71.8257C341.701 73.0532 308.653 82.8395 281.597 104.822C257.333 124.598 241.618 153.052 217.354 180.776C200.056 200.575 180.993 216.822 158.722 228.265C111.569 252.324 55.7709 263.428 0 272.224V272.937C55.8541 264.135 111.826 253.02 159.181 228.859Z" fill="#6BB4DF"/>
<path d="M149.021 236.694C171.618 225.544 191.007 209.451 208.347 189.25C232.632 160.977 246.951 132.02 269.549 111.65C294.736 88.9942 326.035 78.0425 379.174 76.6C384.965 76.4473 390.653 76.3851 396.264 76.3851C414.306 76.3851 431.465 77.0017 447.854 77.0073C505.403 76.9168 545.125 69.0538 587.736 35.7973C635.729 -1.65088 666.903 -53.9879 749.201 -78.7195C765.493 -83.607 779.312 -85.6095 791.535 -85.6095C836.84 -85.6435 860.528 -58.0381 907.451 -48.0369C925.833 -44.128 943.597 -42.5497 960.556 -42.5497C1003.03 -42.5497 1040.33 -52.4605 1068.97 -60.4423C1098.61 -68.7013 1124.78 -75.2858 1157.92 -75.2858C1176.53 -75.2858 1197.33 -73.2154 1222.19 -68.1921C1286.36 -55.238 1344.86 -19.7754 1412.89 -18.2763C1415.35 -18.2197 1417.8 -18.1914 1420.21 -18.1914C1427.02 -18.1914 1433.6 -18.4177 1440 -18.8476V-19.5547C1433.6 -19.1248 1427.02 -18.8985 1420.21 -18.8985C1417.81 -18.8985 1415.38 -18.9212 1412.91 -18.9778C1345.25 -20.4429 1286.79 -55.8489 1222.4 -68.8766C1197.49 -73.9112 1176.6 -75.9929 1157.92 -75.9929C1124.63 -75.9929 1098.34 -69.3688 1068.7 -61.1154C1040.06 -53.128 1002.86 -43.2568 960.556 -43.2568C943.667 -43.2568 925.972 -44.8238 907.674 -48.7213C861.09 -58.5869 837.34 -86.2827 791.535 -86.311C779.194 -86.311 765.278 -84.2915 748.903 -79.3757C666.271 -54.5366 634.979 -2.01291 587.139 35.2882C544.66 68.409 505.326 76.1984 447.854 76.3002C431.486 76.3002 414.333 75.678 396.264 75.678C390.653 75.678 384.944 75.7402 379.146 75.8929C325.889 77.3298 294.236 88.3662 268.91 111.175C246.174 131.692 231.868 160.661 207.639 188.848C190.347 208.987 171.042 225.007 148.576 236.089C104.285 257.771 52.1875 266.93 0 273.424V274.142C52.2709 267.637 104.528 258.467 149.021 236.694Z" fill="#6BB4DF"/>
<path d="M138.861 244.523C161.66 233.741 181.306 217.862 198.639 197.317C222.896 168.569 235.812 139.085 256.889 117.974C280.368 94.5096 310.243 82.3304 365.014 80.6786C371.062 80.492 377.007 80.4241 382.833 80.4241C400.764 80.4241 417.715 81.0859 433.847 81.1765C434.611 81.1821 435.368 81.1821 436.125 81.1821C491.785 81.1934 530.424 73.7151 572.646 38.2411C619.139 -0.807953 647.708 -55.6792 730.556 -79.3247C745.715 -83.6522 758.667 -85.4624 770.111 -85.4624C819.354 -85.5077 841.097 -51.8439 891.417 -40.3266C908.306 -36.4686 924.708 -34.8621 940.424 -34.8621C986.736 -34.8621 1027.12 -48.8175 1056.78 -60.3913C1091.38 -73.8885 1120.68 -84.727 1163.03 -84.727C1178.2 -84.727 1195.06 -83.3354 1214.44 -80.162C1281.07 -69.2782 1341.5 -33.0971 1411.9 -33.0802C1412.26 -33.0802 1412.6 -33.0802 1412.96 -33.0858C1422.4 -33.1311 1431.38 -33.578 1440 -34.3925V-35.1053C1431.39 -34.2851 1422.4 -33.8382 1412.95 -33.7873C1412.6 -33.7873 1412.25 -33.7816 1411.9 -33.7816C1341.88 -33.7703 1281.49 -69.9005 1214.6 -80.8577C1195.18 -84.0369 1178.27 -85.4341 1163.03 -85.4341C1120.49 -85.4341 1091 -74.5221 1056.42 -61.0305C1026.78 -49.4623 986.521 -35.5635 940.424 -35.5635C924.778 -35.5635 908.458 -37.1588 891.646 -41.0054C841.722 -52.3473 819.931 -86.1242 770.111 -86.1638C758.556 -86.1638 745.507 -84.3367 730.264 -79.9922C647.056 -56.2223 618.368 -1.1304 572.028 37.7546C529.924 73.0815 491.715 80.4693 436.125 80.475C435.368 80.475 434.611 80.475 433.847 80.4693C417.75 80.3788 400.792 79.7226 382.833 79.7226C376.993 79.7226 371.049 79.7905 364.986 79.9715C310.083 81.612 279.826 93.9043 256.215 117.533C235.014 138.786 222.111 168.269 197.924 196.909C180.646 217.399 161.09 233.198 138.424 243.918C97.0277 263.349 48.6389 270.912 0 275.477V276.19C48.7152 271.614 97.25 264.05 138.861 244.523Z" fill="#6BB4DF"/>
<path d="M128.694 252.358C151.688 241.944 171.597 226.268 188.924 205.378C213.153 176.166 224.674 146.145 244.222 124.298C266 100.019 294.444 86.6183 350.847 84.7516C357.132 84.5423 363.271 84.4687 369.292 84.4687C387.153 84.4687 403.938 85.1645 419.84 85.3399C421.771 85.3569 423.667 85.3682 425.535 85.3682C478.708 85.3795 516.104 78.0596 557.549 40.6905C602.611 0.0801697 628.535 -57.331 711.903 -79.9357C726.146 -83.7936 738.389 -85.4398 749.222 -85.4398C802.375 -85.4907 821.847 -45.6553 875.375 -32.6106C891.368 -28.7244 906.924 -27.0782 921.882 -27.0782C971.375 -27.0839 1014.27 -45.1462 1044.59 -60.3404C1082.97 -79.5793 1114.34 -94.9545 1165.78 -94.9545C1178.14 -94.9545 1191.65 -94.0721 1206.69 -92.1375C1274.46 -83.4259 1335.75 -47.8162 1406.76 -47.7992C1408.84 -47.7992 1410.92 -47.8332 1413.01 -47.8954C1422.47 -48.1839 1431.43 -48.8514 1440 -49.8696V-50.588C1431.42 -49.5528 1422.45 -48.8797 1412.99 -48.5968C1410.9 -48.5403 1408.83 -48.5063 1406.76 -48.5063C1336.12 -48.495 1274.86 -84.0595 1206.81 -92.8332C1191.74 -94.7735 1178.19 -95.6617 1165.78 -95.6617C1114.11 -95.6673 1082.5 -80.1732 1044.13 -60.9457C1013.87 -45.7684 971.111 -27.7797 921.882 -27.7854C907 -27.7854 891.528 -29.4202 875.618 -33.2838C822.535 -46.1135 803.014 -86.0959 749.222 -86.1469C738.278 -86.1469 725.938 -84.4838 711.639 -80.6032C627.854 -57.874 601.819 -0.208313 556.91 40.221C515.569 77.4373 478.639 84.6554 425.535 84.6611C423.667 84.6611 421.771 84.6611 419.847 84.6384C403.972 84.4631 387.188 83.7616 369.292 83.7616C363.264 83.7616 357.111 83.8408 350.812 84.0445C294.271 85.8943 265.417 99.4424 243.521 123.886C223.861 145.879 212.368 175.872 188.208 204.982C170.944 225.81 151.132 241.389 128.271 251.747C89.7777 269.057 45.1111 275.324 0 278.334V279.035C45.1875 276.026 89.993 269.752 128.694 252.358Z" fill="#6BB4DF"/>
<path d="M118.528 260.198C141.736 250.14 161.896 234.68 179.215 213.439C203.417 183.757 213.528 153.21 231.556 130.623C251.632 105.529 278.646 90.9118 336.688 88.8244C343.167 88.5925 349.5 88.502 355.688 88.502C373.493 88.502 390.132 89.2487 405.84 89.5089C408.91 89.5485 411.924 89.5768 414.889 89.5768C465.639 89.5994 501.868 82.3134 542.465 43.1399C586.139 0.996521 609.375 -58.9489 693.257 -80.5467C706.715 -84.0143 718.368 -85.5077 728.688 -85.5077C785.771 -85.5756 802.729 -39.4611 859.34 -24.8948C874.764 -20.9463 889.785 -19.238 904.257 -19.238C956.549 -19.238 1001.6 -41.4637 1032.38 -60.2952C1073.82 -85.6322 1106.66 -105.72 1167.38 -105.725C1177.12 -105.725 1187.6 -105.21 1198.93 -104.107C1267.89 -97.4323 1330.09 -62.4279 1401.76 -62.4109C1405.51 -62.4109 1409.28 -62.5127 1413.08 -62.7107C1422.52 -63.2085 1431.47 -64.074 1440 -65.2959V-66.0086C1431.46 -64.7867 1422.49 -63.9099 1413.02 -63.4065C1409.24 -63.2085 1405.49 -63.1123 1401.76 -63.1123C1330.44 -63.101 1268.28 -98.0772 1199.03 -104.809C1187.66 -105.912 1177.16 -106.432 1167.38 -106.432C1106.4 -106.438 1073.26 -86.1865 1031.86 -60.8553C1001.15 -42.0576 956.236 -19.9394 904.257 -19.9451C889.868 -19.9451 874.938 -21.6308 859.597 -25.568C803.472 -39.8797 786.479 -86.1526 728.688 -86.2148C718.271 -86.2148 706.521 -84.6988 693 -81.2198C608.667 -59.4807 585.333 0.741943 541.806 42.6817C501.312 81.7081 465.556 88.8527 414.889 88.8754C411.931 88.8754 408.924 88.8527 405.854 88.8075C390.174 88.5473 373.528 87.7949 355.688 87.7949C349.486 87.7949 343.146 87.8854 336.653 88.123C278.458 90.1764 251.007 104.975 230.826 130.238C212.701 152.979 202.618 183.48 178.493 213.048C161.243 234.216 141.181 249.58 118.125 259.576C82.5347 274.889 41.5834 280.625 0 282.401V283.108C41.6666 281.332 82.7639 275.585 118.528 260.198Z" fill="#6BB4DF"/>
<path d="M108.368 268.027C131.764 258.337 152.188 243.097 169.507 221.5C193.681 191.349 202.389 160.282 218.889 136.941C237.271 111.033 262.854 95.2959 322.535 92.8974C329.139 92.6541 335.59 92.558 341.868 92.558C359.715 92.558 376.271 93.3273 391.833 93.678C396.021 93.7629 400.104 93.8138 404.097 93.8138C452.528 93.8307 487.694 86.4825 527.375 45.5893C569.736 1.9299 590.215 -60.5215 674.611 -81.1519C687.389 -84.2802 698.535 -85.6548 708.431 -85.6548C769.465 -85.7283 783.701 -33.2782 843.299 -17.1845C858.368 -13.1342 873.062 -11.3693 887.229 -11.3693C942.056 -11.375 989.007 -37.7527 1020.17 -60.2443C1064.15 -91.9622 1098.11 -116.886 1168.35 -116.892C1175.56 -116.892 1183.15 -116.626 1191.17 -116.083C1261.35 -111.325 1324.48 -76.9376 1396.88 -76.9263C1402.24 -76.9263 1407.66 -77.1186 1413.14 -77.5203C1422.58 -78.2161 1431.51 -79.2682 1440 -80.6598V-81.3782C1431.49 -79.981 1422.53 -78.9232 1413.06 -78.2161C1407.61 -77.8201 1402.22 -77.6277 1396.88 -77.6277C1324.82 -77.6108 1261.72 -111.976 1191.25 -116.79C1183.2 -117.333 1175.59 -117.593 1168.35 -117.593C1097.83 -117.605 1063.53 -92.4769 1019.6 -60.7647C988.507 -38.3298 941.701 -12.0651 887.229 -12.0708C873.146 -12.0708 858.556 -13.8187 843.569 -17.8521C784.493 -33.6572 770.222 -86.2827 708.431 -86.3562C698.431 -86.3562 687.215 -84.9703 674.361 -81.8308C589.479 -61.0533 568.91 1.70929 526.694 45.1537C487.104 85.8885 452.438 93.0897 404.097 93.1067C400.111 93.1067 396.042 93.0614 391.854 92.9709C376.306 92.6315 359.743 91.8565 341.868 91.8565C335.576 91.8565 329.118 91.947 322.486 92.1959C262.66 94.5605 236.59 110.513 218.139 136.591C201.556 160.072 192.868 191.089 168.778 221.115C151.535 242.628 131.229 257.766 107.979 267.399C75.3125 280.84 38.0486 285.269 0 286.186V286.881C38.125 285.971 75.5209 281.536 108.368 268.027Z" fill="#6BB4DF"/>
<path d="M98.2014 275.862C121.806 266.534 142.493 251.504 159.792 229.566C183.938 198.94 191.236 167.341 206.215 143.266C222.91 116.543 247.056 99.5838 308.361 96.9703C315.16 96.6988 321.764 96.5913 328.188 96.5913C346 96.5913 362.438 97.4172 377.833 97.8415C383.076 97.9772 388.16 98.0621 393.104 98.0621C439.354 98.0847 473.556 90.5781 512.278 48.0387C553.375 2.88028 571.069 -62.0771 655.965 -81.7685C668.16 -84.5969 678.861 -85.8527 688.389 -85.8527C753.41 -85.9376 764.806 -27.1914 827.257 -9.46857C842.104 -5.32776 856.569 -3.50626 870.528 -3.50626C927.764 -3.51758 976.458 -34.0135 1007.96 -60.1877C1054.08 -98.5127 1088.97 -128.352 1169.03 -128.364C1173.67 -128.364 1178.47 -128.262 1183.42 -128.058C1254.82 -125.111 1318.9 -91.3738 1392.06 -91.3568C1399.01 -91.3568 1406.06 -91.6623 1413.2 -92.3298C1422.63 -93.2122 1431.53 -94.4454 1440 -95.9954V-96.7195C1431.51 -95.1582 1422.57 -93.9193 1413.1 -93.0312C1406 -92.3694 1398.98 -92.0583 1392.06 -92.0583C1319.23 -92.0413 1255.17 -125.773 1183.47 -128.76C1178.49 -128.969 1173.69 -129.065 1169.03 -129.065C1088.67 -129.077 1053.4 -98.9822 1007.34 -60.6798C975.917 -34.5566 927.368 -4.20773 870.528 -4.21338C856.66 -4.21338 842.292 -6.01791 827.542 -10.1361C765.632 -27.5252 754.201 -86.475 688.389 -86.5542C678.764 -86.5542 667.993 -85.287 655.729 -82.4473C570.306 -62.5975 552.542 2.69928 511.583 47.6201C472.931 90.0068 439.257 97.338 393.104 97.3606C388.167 97.3606 383.097 97.2758 377.861 97.1344C362.479 96.7158 346.035 95.8899 328.188 95.8899C321.757 95.8899 315.132 96.003 308.319 96.2689C246.854 98.8371 222.174 116.051 205.451 142.949C190.403 167.166 183.118 198.697 159.062 229.187C141.833 251.034 121.278 265.962 97.8334 275.228C68.0972 286.91 34.493 290.711 0 291.028V291.729C34.5695 291.412 68.3055 287.611 98.2014 275.862Z" fill="#6BB4DF"/>
<path d="M0.076416 297.115C31.0416 297.115 61.1111 293.788 88.0416 283.702C111.833 274.736 132.792 259.915 150.076 237.633C174.201 206.537 180.097 174.412 193.549 149.584C208.535 122.053 231.264 103.872 294.201 101.043C301.167 100.749 307.917 100.63 314.472 100.63C332.271 100.63 348.59 101.501 363.826 102.005C370.049 102.209 376.056 102.339 381.861 102.339C426.111 102.361 459.438 94.6227 497.181 50.4882C537.076 3.84195 551.917 -63.5988 637.319 -82.3794C648.965 -84.942 659.25 -86.0903 668.444 -86.0903C737.514 -86.1865 745.903 -20.9972 811.222 -1.7583C825.958 2.52957 840.333 4.4133 854.201 4.4133C913.66 4.40765 963.951 -30.2631 995.729 -60.1367C1043.72 -105.222 1079.42 -140.068 1169.56 -140.079C1171.57 -140.079 1173.6 -140.068 1175.67 -140.034C1248.39 -138.818 1313.45 -105.765 1387.49 -105.748C1395.96 -105.748 1404.53 -106.178 1413.26 -107.145C1422.67 -108.214 1431.56 -109.617 1440 -111.331V-112.061C1431.52 -110.335 1422.6 -108.916 1413.14 -107.841C1404.46 -106.885 1395.92 -106.455 1387.49 -106.455C1313.78 -106.438 1248.72 -139.479 1175.68 -140.735C1173.62 -140.775 1171.58 -140.786 1169.56 -140.786C1079.1 -140.803 1043 -105.663 995.076 -60.6006C963.375 -30.7778 913.222 3.72318 854.201 3.71185C840.424 3.71185 826.16 1.83945 811.514 -2.42014C746.764 -21.297 738.347 -86.7012 668.444 -86.7974C659.16 -86.7974 648.806 -85.6321 637.09 -83.0582C551.132 -64.1135 536.222 3.69489 496.472 50.0865C458.778 94.074 425.993 101.615 381.861 101.637C376.062 101.637 370.083 101.501 363.861 101.303C348.646 100.794 332.306 99.9288 314.472 99.9288C307.91 99.9288 301.146 100.048 294.153 100.342C231.042 103.119 207.771 121.589 192.764 149.302C179.243 174.265 173.368 206.3 149.347 237.254C132.132 259.446 111.319 274.153 87.6736 283.057C60.9097 293.093 30.9722 296.419 0.076416 296.419C0.048584 296.419 0.02771 296.413 0 296.413V297.115C0.02771 297.115 0.048584 297.115 0.076416 297.115Z" fill="#6BB4DF"/>
<path d="M1.50696 302.935C28.3611 302.935 54.3334 299.937 77.875 291.531C101.875 282.933 123.083 268.333 140.368 245.694C164.465 214.129 168.944 181.472 180.882 155.909C194.167 127.551 215.465 108.165 280.035 105.122C287.16 104.799 294.042 104.669 300.708 104.669C318.507 104.669 334.736 105.586 349.826 106.174C356.938 106.445 363.764 106.638 370.347 106.638C412.771 106.66 445.312 98.6334 482.076 52.9375C520.812 4.80356 532.771 -65.0922 618.674 -82.9904C629.812 -85.3097 639.708 -86.3619 648.59 -86.3619C721.771 -86.4637 727.035 -14.8143 795.188 5.95755C809.896 10.3925 824.236 12.3611 838.083 12.3611C899.681 12.3441 951.465 -26.4844 983.514 -60.0803C1032.76 -111.704 1069.03 -151.427 1167.9 -152.004C1168.39 -152.004 1168.87 -152.009 1169.35 -152.009C1242.72 -152.026 1308.34 -120.048 1382.64 -120.037C1392.7 -120.037 1402.91 -120.625 1413.32 -121.96C1422.72 -123.177 1431.58 -124.738 1440 -126.588V-127.317C1431.54 -125.451 1422.64 -123.884 1413.18 -122.65C1402.82 -121.321 1392.65 -120.744 1382.64 -120.744C1308.65 -120.727 1243.03 -152.7 1169.35 -152.711C1168.86 -152.711 1168.39 -152.711 1167.9 -152.711C1068.68 -152.162 1032.01 -112.1 982.826 -60.5102C950.854 -26.9821 899.201 11.6653 838.083 11.654C824.34 11.654 810.104 9.70236 795.486 5.29572C727.924 -15.0689 722.653 -86.9615 648.59 -87.069C639.632 -87.069 629.66 -86.0055 618.451 -83.6749C531.958 -65.6013 519.958 4.68475 481.368 52.5529C444.625 98.1016 412.639 105.908 370.347 105.931C363.778 105.931 356.972 105.744 349.861 105.472C334.792 104.884 318.542 103.968 300.708 103.968C294.028 103.968 287.132 104.092 279.993 104.415C215.229 107.396 193.361 127.132 180.076 155.654C168.097 181.353 163.618 213.914 139.632 245.321C122.431 267.857 101.368 282.345 77.5277 290.886C54.132 299.236 28.2847 302.228 1.50696 302.228C1 302.228 0.5 302.223 0 302.217V302.924C0.5 302.924 1 302.935 1.50696 302.935Z" fill="#6BB4DF"/>
<path d="M0.631958 309.096C24.1805 309.096 46.9027 306.437 67.7152 299.36C91.9097 291.13 113.382 276.744 130.653 253.761C154.722 221.72 157.806 188.537 168.208 162.233C179.806 133.061 199.674 112.447 265.875 109.2C273.153 108.85 280.16 108.708 286.924 108.708C304.736 108.708 320.875 109.676 335.819 110.343C343.736 110.694 351.299 110.954 358.562 110.954C399.347 110.982 431.188 102.627 466.993 55.3869C504.597 5.76523 513.618 -66.5743 600.028 -83.6013C610.701 -85.7 620.229 -86.6673 628.826 -86.6673C706.167 -86.7748 708.208 -8.62573 779.153 13.6678C793.882 18.2612 808.243 20.3089 822.118 20.3089C885.778 20.292 938.986 -22.6886 971.292 -60.0293C1020.7 -117.152 1057.07 -161.213 1160.15 -163.985C1162.47 -164.041 1164.77 -164.07 1167.06 -164.07C1239.47 -164.087 1304.59 -134.275 1377.81 -134.264C1389.44 -134.264 1401.28 -135.022 1413.38 -136.77C1422.76 -138.133 1431.6 -139.825 1440 -141.799V-142.54C1431.56 -140.543 1422.67 -138.835 1413.22 -137.46C1401.17 -135.723 1389.4 -134.971 1377.81 -134.971C1304.89 -134.954 1239.76 -164.766 1167.06 -164.777C1164.76 -164.777 1162.44 -164.743 1160.12 -164.686C1056.69 -161.943 1019.92 -117.52 970.583 -60.4366C938.354 -23.1638 885.271 19.6188 822.118 19.6075C808.354 19.6075 794.097 17.5767 779.465 13.0116C709.118 -8.85202 707.076 -87.2556 628.826 -87.3688C620.153 -87.3688 610.549 -86.4015 599.819 -84.2858C512.778 -67.0721 503.736 5.67474 466.257 55.0136C430.472 102.112 399.194 110.224 358.562 110.253C351.319 110.253 343.778 109.992 335.861 109.636C320.931 108.968 304.771 108.007 286.924 108.007C280.139 108.007 273.125 108.143 265.819 108.493C199.417 111.678 178.951 132.676 167.389 162.012C156.944 188.453 153.875 221.522 129.917 253.387C112.722 276.263 91.4166 290.53 67.382 298.715C46.7084 305.741 24.1041 308.394 0.631958 308.394C0.423584 308.394 0.208374 308.389 0 308.389V309.09C0.208374 309.09 0.423584 309.096 0.631958 309.096Z" fill="#6BB4DF"/>
<path d="M120.938 261.822C146.299 227.541 146.771 191.926 157.062 164.185C167.375 136.461 187.208 116.566 251.715 113.268C259.125 112.894 266.257 112.747 273.118 112.747C301.326 112.747 325.132 115.293 346.528 115.293C385.833 115.315 417.042 106.598 451.889 57.8307C488.424 6.71555 494.472 -68.0281 581.375 -84.2123C591.604 -86.113 600.792 -86.9955 609.097 -86.9955C690.681 -87.1143 689.403 -2.44852 763.118 21.3837C777.924 26.1411 792.34 28.2681 806.278 28.2681C871.951 28.2567 926.528 -18.8703 959.056 -59.9728C1008.62 -122.571 1045.14 -170.982 1152.39 -175.96C1156.51 -176.147 1160.61 -176.232 1164.69 -176.232C1236.16 -176.249 1300.78 -148.451 1372.97 -148.44C1386.18 -148.44 1399.64 -149.379 1413.43 -151.579C1422.81 -153.079 1431.62 -154.894 1440 -156.987V-157.728C1431.58 -155.613 1422.7 -153.786 1413.26 -152.275C1399.53 -150.075 1386.13 -149.147 1372.97 -149.147C1301.07 -149.136 1236.44 -176.928 1164.69 -176.945C1160.6 -176.945 1156.48 -176.854 1152.34 -176.662C1044.71 -171.701 1007.82 -122.911 958.333 -60.3575C925.875 -19.3228 871.403 27.5836 806.278 27.5666C792.451 27.5666 778.139 25.4623 763.431 20.7275C690.34 -2.62952 691.611 -87.5781 609.097 -87.6969C600.708 -87.6969 591.465 -86.8088 581.188 -84.8968C493.59 -68.5146 487.556 6.659 451.146 57.4799C416.312 106.106 385.653 114.563 346.528 114.586C325.208 114.591 301.389 112.04 273.118 112.04C266.236 112.04 259.097 112.193 251.66 112.566C186.965 115.796 166.528 136.07 156.229 163.981C145.91 191.875 145.431 227.366 120.201 261.454C90.368 301.77 47.2986 314.481 0 314.815V315.516C47.4722 315.205 90.9652 302.364 120.938 261.822Z" fill="#6BB4DF"/>
<path d="M334.347 -37.962C344.757 -37.962 355.333 -37.6113 366.062 -36.8816C427.715 -32.6729 489.479 -25.1663 548.632 -10.2832C608.701 4.82623 665.361 21.9494 729.201 23.6352C735.618 23.8049 742.035 23.8897 748.444 23.8897C842.278 23.8841 935.764 6.93623 1029.37 6.94188C1049.61 6.94188 1069.86 7.73384 1090.11 9.65717C1201.12 20.1789 1291.1 84.0331 1384.89 129.045C1400.22 136.398 1419.35 146.835 1440 156.107V154.766C1419.68 145.608 1400.81 135.335 1385.61 128.032C1291.98 83.1224 1201.88 19.1041 1090.28 8.48621C1069.96 6.55722 1049.65 5.76526 1029.37 5.76526C935.542 5.77092 842.062 22.7188 748.444 22.7188C742.049 22.7188 735.653 22.6339 729.25 22.4642C665.708 20.7898 609.188 3.72314 549.069 -11.4032C489.757 -26.3203 427.896 -33.8382 366.181 -38.0469C355.41 -38.7879 344.799 -39.1386 334.347 -39.1386C210.069 -39.116 107.493 10.4717 0 54.431V55.7377C107.792 11.7049 210.333 -37.979 334.347 -37.962Z" fill="#404C98"/>
<path d="M314.729 -43.3473C324.035 -43.3473 333.458 -43.0758 343.021 -42.4988C406.757 -38.6918 469.868 -30.7948 530.806 -15.0462C591.729 0.606232 649.326 18.6459 713.646 21.4856C724.16 21.9494 734.674 22.1588 745.188 22.1588C830.132 22.1531 914.847 8.68419 999.722 8.68983C1021.88 8.68983 1044.05 9.60625 1066.24 11.9142C1178.22 23.5673 1268.07 88.1004 1365.83 128.298C1386.85 136.936 1412.73 148.34 1440 156.791V155.535C1413.04 147.135 1387.38 135.85 1366.47 127.251C1268.93 87.1783 1178.98 22.4982 1066.42 10.7546C1044.16 8.43529 1021.93 7.51888 999.722 7.51888C914.667 7.52454 829.938 20.9878 745.188 20.9821C734.701 20.9821 724.215 20.7785 713.722 20.309C649.701 17.4919 592.215 -0.491196 531.25 -16.1663C470.16 -31.9488 406.938 -39.8514 343.118 -43.6754C333.528 -44.2467 324.076 -44.5183 314.729 -44.5183C198.125 -44.507 100.465 -1.6169 0 39.446V40.7584C100.715 -0.383713 198.333 -43.3643 314.729 -43.3473Z" fill="#404C98"/>
<path d="M295.111 -48.761C303.299 -48.761 311.583 -48.5573 319.965 -48.1274C385.799 -44.722 450.25 -36.4178 512.986 -19.815C574.75 -3.6138 633.271 15.3083 698.076 19.3303C712.688 20.241 727.285 20.6201 741.882 20.6201C817.764 20.6144 893.535 10.3755 969.472 10.3755C993.75 10.3755 1018.05 11.422 1042.38 14.1826C1155.33 26.9783 1245.85 91.3587 1346.76 127.551C1373.78 137.224 1406.39 148.73 1440 155.354V154.15C1406.68 147.542 1374.25 136.121 1347.34 126.471C1246.69 90.4197 1156.09 25.9148 1042.58 13.0173C1018.17 10.2454 993.806 9.20457 969.472 9.20457C893.382 9.20457 817.604 19.4491 741.882 19.4434C727.312 19.4434 712.757 19.0701 698.188 18.165C633.66 14.1656 575.25 -4.71123 513.431 -20.9294C450.556 -37.5718 385.979 -45.893 320.062 -49.2927C311.646 -49.7283 303.326 -49.9376 295.111 -49.9376C186.201 -49.9206 93.6666 -13.1795 0 24.6194V25.9262C93.875 -11.9463 186.382 -48.7779 295.111 -48.761Z" fill="#404C98"/>
<path d="M275.479 -54.2141C282.556 -54.2141 289.701 -54.0614 296.924 -53.7446C364.854 -50.7748 430.646 -42.0406 495.16 -24.578C557.771 -7.8338 617.194 11.9538 682.514 17.1807C701.333 18.6854 720.153 19.2737 738.965 19.2737C805.354 19.2681 871.743 11.9764 938.278 11.9821C964.993 11.9821 991.729 13.1587 1018.51 16.4397C1132.46 30.412 1224.13 94.0287 1327.69 126.793C1360.97 137.309 1400.28 148.244 1440 152.379V151.202C1400.53 147.073 1361.38 136.189 1328.22 125.696C1224.96 93.0671 1133.2 29.3542 1018.72 15.28C991.854 11.9821 965.049 10.8111 938.278 10.8111C871.611 10.8111 805.222 18.0971 738.965 18.0971C720.188 18.0971 701.424 17.5145 682.653 16.0097C617.604 10.8168 558.278 -8.92558 495.604 -25.6868C430.958 -43.1946 365.028 -51.9401 297 -54.9156C289.757 -55.238 282.583 -55.3795 275.479 -55.3795C174.299 -55.3738 87.0834 -24.2216 0 10.0474V11.3542C87.2639 -22.9884 174.444 -54.2255 275.479 -54.2141Z" fill="#404C98"/>
<path d="M255.868 -59.6899C261.819 -59.6899 267.826 -59.5825 273.875 -59.3675C343.91 -56.8389 410.986 -47.556 477.333 -29.3467C540.75 -11.9407 601.097 8.56535 666.958 15.0311C690.326 17.3221 713.708 18.1254 737.097 18.131C793.167 18.1254 849.292 13.4868 905.549 13.4924C935.208 13.4868 964.896 14.7766 994.639 18.7024C1109.59 33.874 1202.73 96.2462 1308.62 126.035C1348.36 137.207 1394.33 147.056 1440 148.255V147.084C1394.57 145.885 1348.74 136.07 1309.09 124.926C1203.53 95.2676 1110.32 32.8105 994.868 17.5427C965.028 13.6056 935.257 12.3158 905.549 12.3158C849.188 12.3158 793.062 16.9601 737.097 16.9544C713.75 16.9601 690.431 16.1455 667.125 13.8601C601.535 7.43399 541.271 -13.0324 477.799 -30.4554C411.312 -48.7044 344.09 -58.0099 273.938 -60.5385C267.868 -60.7534 261.84 -60.8609 255.868 -60.8609C162.396 -60.8496 80.6805 -34.7433 0 -4.16251V-2.8671C80.8264 -33.5158 162.514 -59.6956 255.868 -59.6899Z" fill="#404C98"/>
<path d="M236.271 -65.194C241.097 -65.194 245.944 -65.1318 250.833 -64.9904C322.972 -62.92 391.368 -53.1676 459.514 -34.1098C523.764 -16.1493 584.986 5.14864 651.389 12.8702C680.09 16.2134 708.812 17.2203 737.569 17.226C781.653 17.2203 825.826 14.8501 870.09 14.8501C903.59 14.8501 937.139 16.2077 970.771 20.9651C1086.73 37.3643 1181.52 98.1356 1289.54 125.271C1331.19 135.731 1377.83 143.532 1424.17 143.532C1429.45 143.532 1434.74 143.43 1440 143.22V142.044C1434.74 142.259 1429.45 142.361 1424.17 142.361C1378.02 142.361 1331.53 134.588 1289.97 124.157C1182.28 97.1343 1087.44 36.3008 971.014 19.8111C937.278 15.0368 903.639 13.6791 870.09 13.6791C825.764 13.6791 781.59 16.0493 737.569 16.0493C708.854 16.0493 680.194 15.0368 651.597 11.7106C585.438 4.01726 524.292 -17.2354 459.979 -35.2185C391.694 -54.3103 323.153 -64.0909 250.882 -66.1613C245.979 -66.2971 241.118 -66.365 236.271 -66.365C150.472 -66.3593 74.4305 -44.7559 0 -17.9369V-16.6528C74.5486 -43.5397 150.569 -65.2053 236.271 -65.194Z" fill="#404C98"/>
<path d="M216.729 -70.7208C220.396 -70.7208 224.083 -70.6868 227.785 -70.6076C302.042 -69.0237 371.75 -58.7792 441.688 -38.8728C506.771 -20.3524 568.868 1.69229 635.833 10.7206C671.819 15.5741 707.882 16.6263 744.028 16.6263C772.083 16.6263 800.181 15.9927 828.326 15.9927C867.743 15.9927 907.271 17.2373 946.91 23.2222C1063.86 40.8771 1160.43 99.7591 1270.47 124.513C1310.6 133.53 1354.1 139.453 1397.58 139.459C1411.76 139.459 1425.94 138.819 1440 137.456V136.274C1425.94 137.643 1411.77 138.282 1397.58 138.282C1354.26 138.288 1310.88 132.382 1270.85 123.382C1161.16 98.7465 1064.55 39.8193 947.167 22.0738C907.396 16.0663 867.785 14.8218 828.326 14.8218C800.146 14.8218 772.056 15.461 744.028 15.4553C707.917 15.461 671.938 14.3975 636.062 9.56093C569.333 0.566574 507.319 -21.4385 442.16 -39.9816C372.09 -59.9219 302.215 -70.1947 227.826 -71.7843C224.104 -71.8578 220.41 -71.8974 216.729 -71.8974C138.542 -71.8917 68.3125 -54.282 0 -31.1965V-29.9294C68.3959 -53.0715 138.611 -70.7321 216.729 -70.7208Z" fill="#404C98"/>
<path d="M183.16 -76.7227C190.278 -76.7227 197.458 -76.5643 204.708 -76.2362C281.007 -72.7346 352.153 -64.3908 423.861 -43.6415C489.799 -24.5667 552.743 -1.79796 620.271 8.56535C720.312 23.9123 821.271 9.12538 923.035 25.4906C1041 44.4353 1139.41 101.19 1251.38 123.75C1289.52 131.426 1329.86 136.008 1370.28 136.008C1393.63 136.014 1417.01 134.464 1440 131.121V129.927C1417.01 133.287 1393.65 134.837 1370.28 134.843C1329.99 134.843 1289.76 130.272 1251.73 122.613C1140.11 100.149 1041.67 43.3718 923.312 24.3366C821.208 7.9431 720.229 22.73 620.535 7.41136C553.229 -2.91801 490.34 -25.6471 424.34 -44.7446C352.465 -65.5448 281.167 -73.8999 204.792 -77.4015C197.514 -77.7296 190.306 -77.8993 183.16 -77.8993C118.049 -77.888 58.1527 -64.4869 0 -45.8873V-44.6201C58.2152 -63.2877 118.111 -76.734 183.16 -76.7227Z" fill="#404C98"/>
<path d="M162.458 -82.238C168.812 -82.238 175.208 -82.1136 181.66 -81.8534C260.097 -78.6856 332.542 -70.0023 406.035 -48.4046C472.812 -28.781 536.611 -5.33911 604.701 6.41013C701.785 23.1487 800.049 10.8451 899.167 27.7533C1018.14 48.0161 1118.43 102.457 1232.31 122.986C1268.2 129.452 1305.51 133.067 1342.89 133.067C1375.49 133.067 1408.16 130.3 1440 124.31V123.105C1408.17 129.118 1375.51 131.89 1342.89 131.89C1305.62 131.896 1268.42 128.292 1232.62 121.843C1119.09 101.4 1018.78 46.947 899.465 26.605C800.007 9.66846 701.743 21.9664 605 5.26179C537.111 -6.44785 473.375 -29.8558 406.528 -49.5076C332.861 -71.162 260.25 -79.8509 181.729 -83.0243C175.25 -83.2846 168.833 -83.4147 162.458 -83.4147C105.125 -83.409 51.743 -73.1306 0 -58.1286V-56.8841C51.7986 -71.937 105.174 -82.2437 162.458 -82.238Z" fill="#404C98"/>
<path d="M142.014 -87.7535C147.507 -87.7535 153.042 -87.663 158.611 -87.4763C239.194 -84.6988 312.931 -75.6309 388.201 -53.1733C455.833 -32.9954 520.486 -8.91994 589.139 4.25482C683.264 22.3058 778.806 12.6043 875.299 30.016C995.271 51.6364 1097.47 103.6 1213.22 122.228C1246.79 127.625 1281.23 130.498 1315.7 130.498C1357.57 130.504 1399.49 126.244 1440 117.109V115.892C1399.51 125.051 1357.59 129.327 1315.7 129.327C1281.33 129.327 1246.99 126.459 1213.51 121.074C1098.08 102.531 995.882 50.5616 875.611 28.8677C778.799 11.422 683.257 21.1178 589.472 3.11781C521.007 -10.0173 456.396 -34.0759 388.701 -54.2764C313.25 -76.7849 239.34 -85.8698 158.667 -88.6416C153.083 -88.8339 147.535 -88.9301 142.014 -88.9301C92.2639 -88.9245 45.4236 -81.2934 0 -69.6064V-68.3788C45.4584 -80.1055 92.3055 -87.7648 142.014 -87.7535Z" fill="#404C98"/>
<path d="M121.875 -93.2858C126.41 -93.2858 130.972 -93.2236 135.562 -93.0935C218.292 -90.7855 293.312 -81.2538 370.382 -57.9363C438.854 -37.221 504.368 -12.5403 573.576 2.10524C664.757 21.3837 757.562 14.3975 851.431 32.2788C972.396 55.2907 1076.5 104.635 1194.15 121.459C1225.35 125.922 1257.08 128.23 1288.79 128.23C1339.93 128.23 1391.05 122.205 1440 109.557V108.323C1391.06 121.017 1339.95 127.059 1288.79 127.059C1257.17 127.059 1225.53 124.757 1194.38 120.305C1077.08 103.549 972.986 54.2216 851.757 31.1304C757.59 13.2152 664.799 20.1958 573.938 0.968216C504.903 -13.6434 439.424 -38.2902 370.882 -59.0394C293.653 -82.4021 218.444 -91.9508 135.611 -94.2701C131.007 -94.3946 126.431 -94.4625 121.875 -94.4625C79.507 -94.4568 39.1736 -89.0036 0 -80.2865V-79.0702C39.1945 -87.8214 79.5277 -93.2858 121.875 -93.2858Z" fill="#404C98"/>
<path d="M102.076 -98.8239C105.542 -98.8239 109.021 -98.7899 112.514 -98.7164C197.396 -96.9458 273.708 -86.8823 352.556 -62.705C421.889 -41.441 488.264 -16.2172 558.014 -0.0556183C646.264 20.3825 736.299 16.2247 827.562 34.5415C949.507 58.9847 1055.53 105.591 1175.06 120.695C1203.91 124.344 1233.03 126.193 1262.11 126.193C1322.54 126.193 1382.78 118.178 1440 101.722V100.483C1382.81 116.979 1322.56 125.017 1262.11 125.023C1233.1 125.023 1204.06 123.173 1175.27 119.535C1056.06 104.488 950.076 57.9099 827.903 33.3989C736.375 15.0425 646.347 19.2002 558.403 -1.18133C488.799 -17.3089 422.451 -42.5158 353.062 -63.8024C274.049 -88.0363 197.549 -98.1167 112.549 -99.8873C109.049 -99.9609 105.556 -99.9948 102.076 -99.9948C66.8541 -99.9948 32.9861 -96.3009 0 -90.135V-88.9301C33 -95.1186 66.868 -98.8295 102.076 -98.8239Z" fill="#404C98"/>
<path d="M89.493 -104.339C94.5277 -104.441 99.5209 -104.486 104.493 -104.486C185.458 -104.486 258.736 -91.074 334.729 -67.4681C404.91 -45.6666 472.174 -19.9507 542.451 -2.20525C627.792 19.3246 715.035 18.0801 803.694 36.7986C926.611 62.7295 1034.53 106.479 1155.97 119.931C1182.44 122.867 1209.03 124.332 1235.56 124.332C1305.35 124.332 1374.67 114.133 1440 93.6497V92.3882C1374.69 112.934 1305.37 123.161 1235.56 123.161C1209.09 123.161 1182.57 121.696 1156.16 118.772C1035.03 105.359 927.153 61.6434 804.056 35.6616C715.153 16.9092 627.924 18.1424 542.875 -3.33095C472.722 -21.0312 405.486 -46.7358 335.243 -68.5598C259.139 -92.2054 185.66 -105.663 104.493 -105.663C99.507 -105.663 94.5 -105.612 89.4584 -105.51C58.7361 -104.888 29.0139 -101.912 0 -97.2399V-96.0464C29.0347 -100.736 58.7639 -103.717 89.493 -104.339Z" fill="#404C98"/>
<path d="M66.4514 -109.957C72.9722 -110.138 79.4375 -110.217 85.8541 -110.217C167.118 -110.217 240.507 -96.2614 316.91 -72.2312C387.931 -49.8923 456.111 -23.7352 526.889 -4.36617C609.347 18.1933 693.757 19.9752 779.826 39.0613C903.688 66.5139 1013.51 107.3 1136.88 119.168C1160.93 121.481 1185.01 122.635 1209.01 122.635C1288.28 122.635 1366.67 110.066 1440 85.3794V84.1066C1366.68 108.861 1288.3 121.459 1209.01 121.459C1185.07 121.459 1161.04 120.316 1137.06 118.002C1013.97 106.168 904.215 65.4221 780.201 37.9243C693.917 18.8042 609.535 17.0166 527.347 -5.48058C456.674 -24.8156 388.521 -50.9671 317.431 -73.3229C240.91 -97.3927 167.326 -111.399 85.8541 -111.399C79.4236 -111.399 72.9375 -111.303 66.3959 -111.133C43.7916 -110.522 21.6945 -108.678 0 -105.861V-104.679C21.7152 -107.507 43.8264 -109.351 66.4514 -109.957Z" fill="#404C98"/>
<path d="M43.4027 -115.579C51.3472 -115.845 59.2084 -115.975 66.993 -115.975C148.625 -115.975 222.201 -101.46 299.083 -76.9998C370.965 -54.1236 440.076 -27.5818 511.326 -6.52141C590.938 17.0053 672.465 21.8928 755.958 41.3184C880.764 70.3492 992.472 108.075 1117.79 118.398C1139.37 120.18 1160.91 121.057 1182.38 121.057C1271.27 121.057 1358.72 105.959 1440 76.9111V75.6327C1358.74 104.748 1271.28 119.886 1182.38 119.886C1160.96 119.886 1139.46 119.009 1117.94 117.239C992.889 106.938 881.257 69.2518 756.354 40.1927C672.674 20.7275 591.174 15.8344 511.819 -7.62448C440.653 -28.6509 371.549 -55.1927 299.611 -78.0916C222.618 -102.586 148.833 -117.152 66.993 -117.152C59.1875 -117.152 51.3055 -117.016 43.3472 -116.75C28.7014 -116.264 14.2639 -115.263 0 -113.843V-112.66C14.2847 -114.086 28.743 -115.087 43.4027 -115.579Z" fill="#404C98"/>
<path d="M20.3541 -121.202C29.7222 -121.581 38.9652 -121.768 48.1041 -121.768C130.104 -121.768 203.951 -106.777 281.257 -81.7629C354.049 -58.4624 424.083 -31.4907 495.757 -8.67667C572.549 15.7608 651.153 23.8331 732.09 43.5811C857.806 74.2411 971.403 108.816 1098.71 117.64C1117.71 118.958 1136.68 119.603 1155.56 119.603C1254.24 119.603 1350.81 101.818 1440 68.2845V66.9891C1350.83 100.602 1254.25 118.438 1155.56 118.438C1136.72 118.438 1117.79 117.787 1098.83 116.469C971.778 107.667 858.278 73.1381 732.5 42.4554C651.417 22.6848 572.861 14.6012 496.285 -9.76845C424.674 -32.5542 354.639 -59.5372 281.792 -82.8547C204.382 -107.909 130.326 -122.945 48.1041 -122.945C38.9445 -122.945 29.6736 -122.752 20.2847 -122.379C13.4791 -122.096 6.72913 -121.689 0 -121.219V-120.043C6.75 -120.518 13.5209 -120.925 20.3541 -121.202Z" fill="#404C98"/>
<path d="M28.8889 -127.578C111.361 -127.578 185.528 -111.993 263.431 -86.526C337.076 -62.6824 408.139 -35.4618 480.201 -10.8319C554.215 14.4598 629.826 25.813 708.222 45.8382C834.826 78.1839 950.306 109.511 1079.62 116.877C1095.97 117.804 1112.26 118.263 1128.49 118.263C1237.14 118.263 1342.9 97.6491 1440 59.5107V58.2097C1342.91 96.4329 1237.15 117.092 1128.49 117.092C1112.29 117.092 1096.03 116.633 1079.72 115.7C950.632 108.357 835.271 77.0752 708.646 44.7238C630.146 24.6703 554.583 13.3171 480.75 -11.9124C408.736 -36.5252 337.66 -63.7572 263.972 -87.6177C185.965 -113.107 111.59 -128.749 28.8889 -128.749C19.375 -128.749 9.75696 -128.528 0 -128.115V-126.933C9.75696 -127.357 19.382 -127.578 28.8889 -127.578Z" fill="#404C98"/>
<path d="M9.52087 -133.41C92.5139 -133.41 167.069 -117.203 245.611 -91.2946C320.104 -66.9024 392.25 -39.5007 464.632 -12.9985C535.924 13.1135 608.486 27.8099 684.347 48.1009C811.806 82.1946 929.174 110.185 1060.53 116.113C1074.09 116.718 1087.62 117.024 1101.09 117.024C1219.93 117.024 1334.95 93.4631 1440 50.6069V49.2945C1334.97 92.2468 1219.93 115.847 1101.09 115.847C1087.65 115.847 1074.15 115.547 1060.61 114.936C929.458 109.025 812.236 81.0746 684.799 46.9922C608.868 26.6785 536.361 11.9934 465.222 -14.0563C392.847 -40.5698 320.688 -67.9772 246.153 -92.3807C167.507 -118.329 92.75 -134.581 9.52087 -134.581C6.36108 -134.581 3.1875 -134.552 0 -134.507V-133.331C3.1875 -133.381 6.36804 -133.41 9.52087 -133.41Z" fill="#404C98"/>
<path d="M227.785 -96.0577C303.132 -71.1167 376.424 -43.6132 449.069 -15.148C517.681 11.7332 587.118 29.8294 660.479 50.3637C788.757 86.2676 908.007 110.83 1041.44 115.344C1052.1 115.7 1062.72 115.881 1073.31 115.881C1202.55 115.881 1326.97 89.2714 1440 41.6013V40.2776C1326.98 88.0438 1202.56 114.71 1073.31 114.71C1062.74 114.71 1052.14 114.529 1041.5 114.167C908.25 109.659 789.16 85.1419 660.951 49.255C587.569 28.715 518.188 10.6301 449.688 -16.2059C377.035 -44.6823 303.708 -72.1915 228.333 -97.1438C152.181 -122.498 79.8195 -139.072 0 -140.345V-139.18C79.5764 -137.896 151.729 -121.378 227.785 -96.0577Z" fill="#404C98"/>
<path d="M209.965 -100.826C286.16 -75.3368 360.667 -47.7993 433.507 -17.309C499.486 10.3133 565.736 31.8715 636.611 52.6264C765.667 90.414 886.819 111.452 1022.35 114.574C1029.96 114.755 1037.55 114.84 1045.12 114.84C1184.99 114.84 1318.91 85.0796 1440 32.4937V31.1644C1318.93 83.8464 1185 113.669 1045.12 113.669C1037.56 113.669 1029.99 113.584 1022.4 113.403C887.021 110.281 766.049 89.277 637.097 51.5233C566.25 30.7741 500.069 9.23851 434.167 -18.3499C361.285 -48.8571 286.743 -76.4059 210.507 -101.913C139.951 -125.603 72.757 -142.036 0 -145.589V-144.418C72.5209 -140.865 139.507 -124.478 209.965 -100.826Z" fill="#404C98"/>
<path d="M192.139 -105.595C269.188 -79.5567 345 -52.0589 417.944 -19.4699C481.361 8.87082 544.34 33.9362 612.743 54.8835C742.521 94.6283 865.597 112.057 1003.26 113.811C1007.67 113.873 1012.07 113.896 1016.46 113.896C1167.22 113.896 1310.78 80.8766 1440 23.2844V21.9494C1310.79 79.6434 1167.23 112.725 1016.46 112.725C1012.07 112.725 1007.69 112.696 1003.28 112.64C865.75 110.88 742.882 93.4857 613.25 53.786C544.924 32.8614 482.014 7.8243 418.632 -20.4938C345.618 -53.1167 269.764 -80.6315 192.688 -106.676C127.826 -128.63 65.9097 -144.695 0 -150.165V-148.989C65.6666 -143.518 127.396 -127.51 192.139 -105.595Z" fill="#404C98"/>
<path d="M174.312 -110.353C252.215 -83.7711 329.417 -56.3921 402.382 -21.6252C463.292 7.39999 522.903 36.0122 588.868 57.1461C719.333 98.9331 844.34 112.645 984.174 113.047C985.222 113.053 986.264 113.053 987.312 113.053C1149.2 113.053 1302.56 76.6905 1440 14.0015V12.6608C1302.58 75.4516 1149.21 111.876 987.312 111.876C986.271 111.876 985.222 111.876 984.181 111.876C844.458 111.463 719.66 97.7791 589.396 56.0487C523.569 34.9657 464.021 6.39307 403.104 -22.6378C330.049 -57.4555 252.785 -84.8459 174.868 -111.439C115.812 -131.588 59.257 -147.054 0 -154.052V-152.864C59.0209 -145.877 115.389 -130.463 174.312 -110.353Z" fill="#404C98"/>
<path d="M291.465 -116.903C323.312 -112.095 354.535 -110.047 385.403 -110.047C467.889 -110.047 547.889 -124.676 630.771 -140.492C713.549 -156.286 795.361 -171.118 877.868 -171.118C922.153 -171.118 966.632 -166.842 1011.58 -156.167C1132.26 -127.476 1246.31 -69.7931 1340.66 -2.77663C1381.49 26.2372 1414.06 57.2989 1440 92.6541V91.5227C1414.12 56.456 1381.69 25.5924 1341.13 -3.21786C1246.72 -70.2795 1132.59 -128.007 1011.78 -156.722C966.764 -167.424 922.208 -171.701 877.868 -171.701C795.257 -171.701 713.389 -156.857 630.604 -141.063C547.729 -125.247 467.778 -110.63 385.403 -110.635C354.569 -110.635 323.396 -112.677 291.597 -117.48C192.674 -132.403 97.5277 -149.617 0 -158.617V-158.023C97.4445 -149.023 192.549 -131.826 291.465 -116.903Z" fill="#3A6A86"/>
<path d="M198.701 -129.693C229.778 -125.767 261.007 -121.757 292.604 -117.972C318.25 -114.889 343.493 -113.526 368.5 -113.526C456.736 -113.526 541.91 -130.468 630.639 -148.197C715.271 -165.275 799.326 -180.706 884.174 -180.706C928.285 -180.706 972.618 -176.532 1017.35 -166.259C1138.94 -138.201 1253.38 -81.2764 1348.2 -14.3957C1384.87 11.4843 1415.09 39.0726 1440 69.8967V68.8445C1415.17 38.2693 1385.09 10.862 1348.67 -14.8313C1253.78 -81.7629 1139.27 -138.733 1017.55 -166.819C972.743 -177.114 928.347 -181.289 884.174 -181.289C799.215 -181.289 715.104 -165.846 630.465 -148.762C541.743 -131.034 456.625 -114.114 368.5 -114.114C343.528 -114.114 318.319 -115.466 292.708 -118.561C261.111 -122.334 229.882 -126.344 198.812 -130.27C132.451 -138.586 66.8334 -146.822 0 -151.653V-151.065C66.7777 -146.239 132.361 -138.009 198.701 -129.693Z" fill="#3A6A86"/>
<path d="M200.278 -127.742C231.229 -124.811 262.312 -121.819 293.729 -119.058C313.09 -117.322 332.236 -116.53 351.222 -116.53C445.403 -116.53 535.826 -135.944 630.514 -155.896C717.174 -174.156 803.618 -190.25 890.931 -190.25C934.736 -190.25 978.75 -186.199 1023.13 -176.351C1145.62 -148.915 1260.44 -92.7597 1355.75 -26.0092C1388.56 -3.00851 1416.39 21.4064 1440 48.2706V47.275C1416.48 20.6257 1388.8 -3.61945 1356.22 -26.4561C1260.85 -93.2462 1145.94 -149.447 1023.32 -176.911C978.875 -186.782 934.785 -190.838 890.931 -190.838C803.507 -190.838 717.014 -174.722 630.333 -156.461C535.639 -136.51 445.278 -117.118 351.222 -117.118C332.257 -117.118 313.146 -117.904 293.819 -119.635C262.396 -122.402 231.319 -125.388 200.361 -128.33C133.59 -134.524 67.4584 -141.086 0 -144.627V-144.039C67.4166 -140.498 133.514 -133.941 200.278 -127.742Z" fill="#3A6A86"/>
<path d="M201.854 -125.796C232.688 -123.85 263.618 -121.881 294.868 -120.133C307.625 -119.386 320.285 -119.036 332.868 -119.036C433.41 -119.041 529.326 -141.318 630.389 -163.606C718.979 -183.128 807.743 -199.844 897.465 -199.838C941.021 -199.838 984.806 -195.906 1028.91 -186.442C1152.3 -159.635 1267.51 -104.237 1363.3 -37.6283C1392.5 -17.2864 1417.9 4.21521 1440 27.5496V26.588C1417.99 3.45154 1392.75 -17.886 1363.76 -38.0696C1267.92 -104.73 1152.62 -160.172 1029.09 -187.008C984.924 -196.483 941.076 -200.426 897.465 -200.426C807.639 -200.426 718.806 -183.693 630.194 -164.166C529.125 -141.878 433.278 -119.624 332.868 -119.624C320.306 -119.624 307.66 -119.975 294.917 -120.721C263.674 -122.469 232.743 -124.432 201.903 -126.378C134.722 -130.423 68.0834 -135.282 0 -137.528V-136.945C68.0486 -134.694 134.667 -129.84 201.854 -125.796Z" fill="#3A6A86"/>
<path d="M203.424 -123.844C234.146 -122.945 264.924 -121.949 296.007 -121.208C301.889 -121.055 307.764 -120.976 313.604 -120.976C420.882 -120.976 522.465 -146.494 630.257 -171.305C720.764 -192.128 811.875 -209.443 904.007 -209.443C947.319 -209.443 990.868 -205.625 1034.68 -196.534C1158.98 -170.354 1274.58 -115.721 1370.85 -49.2418C1396.65 -31.3945 1419.59 -12.6025 1440 7.5528V6.63073C1419.7 -13.3435 1396.91 -31.9771 1371.31 -49.6887C1274.99 -116.213 1159.29 -170.898 1034.86 -197.1C990.979 -206.202 947.368 -210.031 904.007 -210.031C811.764 -210.031 720.59 -192.699 630.062 -171.871C522.264 -147.06 420.736 -121.564 313.604 -121.564C307.764 -121.564 301.903 -121.632 296.028 -121.796C264.951 -122.526 234.174 -123.533 203.451 -124.427C135.868 -126.407 68.7222 -129.518 0 -130.429V-129.846C68.7014 -128.93 135.833 -125.824 203.424 -123.844Z" fill="#3A6A86"/>
<path d="M230.167 -90.7686C361.646 -163.51 483.083 -247.106 628.069 -302.26C750.479 -348.822 883.826 -374.425 1018.27 -374.425C1056.45 -374.425 1094.72 -372.36 1132.85 -368.123C1246.95 -355.452 1349.42 -325.301 1440 -279.712V-280.397C1349.42 -325.929 1246.99 -356.04 1132.95 -368.706C1094.78 -372.943 1056.48 -375.007 1018.27 -375.007C883.715 -375.007 750.271 -349.387 627.764 -302.787C482.667 -247.587 361.201 -163.962 229.757 -91.2551C155.792 -50.3336 79.9791 -21.1273 0 0.566592V1.18884C80.118 -20.5334 156.062 -49.7735 230.167 -90.7686Z" fill="#3A6A86"/>
<path d="M281.653 6.22345C378.417 -34.1946 483.438 -52.0702 589.583 -52.0758C804.333 -52.0758 1023.65 21.0952 1188.31 128.767C1299.85 201.701 1389.33 295.797 1440 404.396V403.57C1389.24 295.22 1299.88 201.339 1188.54 128.541C1023.81 20.8294 804.431 -52.37 589.583 -52.37C483.389 -52.37 378.312 -34.4774 281.479 5.95758C172.451 51.4951 81.757 116.848 0 189.595V190.031C81.8055 117.205 172.556 51.7892 281.653 6.22345Z" fill="#94D3E6"/>
<path d="M156.042 70.7678C195.708 46.7263 237.701 25.1398 282.694 6.5571C287.444 4.59418 292.215 2.68219 296.993 0.821075C339.764 -15.8326 383.924 -28.4643 429 -37.255C483.944 -47.9634 540.194 -52.9754 596.729 -52.9754C673.417 -52.9754 750.653 -43.7604 825.854 -27.0841C958.035 2.26358 1083.62 54.2385 1188.17 119.948C1229.83 146.162 1268.54 175.266 1303.47 206.962C1359.97 258.461 1407.52 316.472 1440 380.881V380.117C1407.51 315.935 1360.07 258.111 1303.74 206.764C1268.79 175.057 1230.06 145.941 1188.39 119.722C1083.81 53.9783 958.174 1.99203 825.944 -27.3669C750.715 -44.0546 673.458 -53.2695 596.729 -53.2695C540.16 -53.2695 483.882 -48.2519 428.924 -37.5379C383.812 -28.7472 339.632 -16.1042 296.84 0.555206C292.056 2.41629 287.285 4.33395 282.535 6.29123C237.521 24.8852 195.507 46.483 155.833 70.5302C99.4097 104.709 48.1527 144.329 0 186.625V187.055C48.2152 144.68 99.5416 104.992 156.042 70.7678Z" fill="#94D3E6"/>
<path d="M156.75 69.659C196.653 46.2624 238.764 25.2586 283.75 6.89084C288.486 4.95621 293.257 3.06119 298.035 1.2114C340.736 -15.3065 384.694 -28.1023 429.583 -37.108C486.729 -48.5913 545.257 -53.937 604.083 -53.937C678.021 -53.937 752.431 -45.4857 825.132 -30.1331C957.083 -2.19968 1082.74 47.5804 1188.02 111.135C1229.94 136.483 1269.08 164.637 1304.4 195.535C1359.28 243.556 1406.94 297.482 1440 358.225V357.512C1406.93 296.979 1359.39 243.216 1304.66 195.337C1269.33 164.422 1230.16 136.263 1188.24 110.897C1082.91 47.3259 957.215 -2.47119 825.222 -30.416C752.493 -45.7742 678.056 -54.2255 604.083 -54.2255C545.229 -54.2255 486.674 -48.8798 429.5 -37.3965C384.583 -28.3851 340.597 -15.5781 297.882 0.945526C293.097 2.79532 288.333 4.69034 283.583 6.63065C238.583 25.004 196.451 46.0135 156.542 69.4214C99.757 102.678 48.3055 141.761 0 183.638V184.068C48.375 142.117 99.882 102.961 156.75 69.659Z" fill="#94D3E6"/>
<path d="M157.458 68.556C197.597 45.7929 239.826 25.3831 284.792 7.23029C289.535 5.31262 294.292 3.44022 299.069 1.60175C341.694 -14.7861 385.472 -27.7459 430.167 -36.9608C489.583 -49.2475 550.458 -54.9496 611.632 -54.9496C682.757 -54.9496 754.292 -47.2393 824.41 -33.1764C956.132 -6.65723 1081.85 40.9224 1187.88 102.322C1230.04 126.804 1269.58 154.042 1305.32 184.102C1358.64 228.967 1406.35 279.126 1440 336.373V335.7C1406.35 278.645 1358.75 228.633 1305.58 183.904C1269.82 153.827 1230.26 126.578 1188.09 102.078C1082.01 40.6678 956.264 -6.93442 824.493 -33.4649C754.354 -47.5278 682.785 -55.2437 611.632 -55.2437C550.431 -55.2437 489.528 -49.536 430.076 -37.2494C385.354 -28.0231 341.562 -15.0576 298.917 1.33588C294.146 3.17435 289.375 5.04675 284.632 6.96442C239.653 25.1285 197.403 45.544 157.25 68.3127C100.097 100.653 48.4652 139.198 0 180.657V181.087C48.5277 139.544 100.229 100.936 157.458 68.556Z" fill="#94D3E6"/>
<path d="M158.167 67.453C198.542 45.3291 240.882 25.502 285.84 7.56415C290.583 5.6691 295.34 3.81366 300.111 1.99216C342.667 -14.2656 386.243 -27.3838 430.743 -36.825C492.507 -49.9545 555.799 -56.0299 619.389 -56.0299C687.639 -56.0299 756.236 -49.0324 823.688 -36.2197C955.181 -11.1204 1080.96 34.27 1187.74 93.5027C1230.15 117.126 1270.07 143.447 1306.24 172.676C1358.12 214.61 1405.78 261.307 1440 315.25V314.605C1405.78 260.843 1358.22 214.282 1306.49 172.466C1270.31 143.226 1230.37 116.899 1187.94 93.2651C1081.12 34.0098 955.306 -11.3976 823.771 -36.5026C756.299 -49.3209 687.667 -56.3241 619.389 -56.3241C555.764 -56.3241 492.451 -50.243 430.653 -37.1078C386.125 -27.6609 342.535 -14.5371 299.958 1.72629C295.181 3.54779 290.424 5.40891 285.681 7.30392C240.708 25.2417 198.347 45.0802 157.965 67.2097C100.444 98.6278 48.625 136.63 0 177.682V178.106C48.6875 136.981 100.569 98.9106 158.167 67.453Z" fill="#94D3E6"/>
<path d="M158.875 66.3499C199.479 44.8652 241.951 25.6207 286.889 7.89786C291.625 6.0311 296.382 4.19827 301.153 2.38245C343.639 -13.7452 387.014 -27.0218 431.319 -36.678C495.507 -50.7012 561.285 -57.1783 627.382 -57.1783C692.667 -57.1783 758.278 -50.8653 822.958 -39.2688C954.229 -15.578 1080.07 27.6176 1187.59 84.6893C1230.26 107.452 1270.56 132.852 1307.16 161.249C1357.7 200.462 1405.26 243.974 1440 294.801V294.19C1405.26 243.527 1357.81 200.14 1307.41 161.034C1270.79 132.631 1230.47 107.22 1187.78 84.4461C1080.22 27.3517 954.347 -15.8608 823.042 -39.5516C758.326 -51.1538 692.701 -57.4725 627.382 -57.4725C561.257 -57.4725 495.451 -50.9954 431.229 -36.9608C386.896 -27.299 343.507 -14.011 300.993 2.12222C296.229 3.92676 291.472 5.76523 286.729 7.63763C241.778 25.3661 199.299 44.6107 158.674 66.101C100.792 96.6026 48.7777 134.068 0 174.706V175.131C48.8402 134.413 100.91 96.8854 158.875 66.3499Z" fill="#94D3E6"/>
<path d="M159.576 65.2411C200.424 44.3957 243.014 25.7452 287.931 8.23727C292.674 6.39316 297.431 4.57166 302.188 2.77844C344.611 -13.2191 387.785 -26.6597 431.896 -36.5365C498.583 -51.5045 566.924 -58.3945 635.611 -58.3945C697.868 -58.3945 760.403 -52.7377 822.243 -42.3065C953.278 -20.0412 1079.18 20.9595 1187.45 75.8703C1230.37 97.7792 1271.04 122.256 1308.08 149.822C1357.38 186.501 1404.76 227.049 1440 274.923V274.351C1404.76 226.63 1357.48 186.184 1308.33 149.607C1271.26 122.03 1230.57 97.536 1187.64 75.6271C1079.33 20.6936 953.396 -20.3184 822.312 -42.595C760.458 -53.0262 697.896 -58.683 635.611 -58.683C566.896 -58.683 498.521 -51.793 431.806 -36.8137C387.667 -26.9425 344.472 -13.4962 302.035 2.51257C297.271 4.30579 292.521 6.12729 287.778 7.97708C242.84 25.485 200.243 44.1412 159.389 64.9922C101.139 94.5775 48.9375 131.505 0 171.737V172.155C48.993 131.856 101.257 94.8603 159.576 65.2411Z" fill="#94D3E6"/>
<path d="M160.285 64.138C201.368 43.9318 244.069 25.8639 288.986 8.57095C293.722 6.74945 298.465 4.95059 303.222 3.16302C345.576 -12.7044 388.556 -26.3034 432.479 -36.3895C501.743 -52.3588 572.736 -59.6787 644.111 -59.6787C703.243 -59.6787 762.639 -54.6554 821.521 -45.3613C952.326 -24.5045 1078.29 14.307 1187.31 67.0569C1230.47 88.1003 1271.51 111.667 1309 138.39C1357.12 172.698 1404.31 210.486 1440 255.559V255.022C1404.31 210.084 1357.23 172.393 1309.24 138.169C1271.74 111.435 1230.67 87.8571 1187.49 66.808C1078.44 14.0354 952.444 -24.7817 821.59 -45.6497C762.688 -54.9496 703.271 -59.9728 644.111 -59.9728C572.708 -59.9728 501.681 -52.6472 432.382 -36.6724C388.438 -26.5749 345.444 -12.9702 303.076 2.89716C298.319 4.67906 293.562 6.48924 288.833 8.31075C243.903 25.6037 201.194 43.6716 160.09 63.8834C101.479 92.5579 49.0972 128.948 0 168.755V169.18C49.1597 129.293 101.597 92.8407 160.285 64.138Z" fill="#94D3E6"/>
<path d="M160.986 63.035C202.306 43.4623 245.125 25.9884 290.035 8.91043C294.764 7.11156 299.507 5.32965 304.264 3.55907C346.549 -12.1782 389.326 -25.9356 433.056 -36.2424C504.993 -53.2638 578.722 -61.0419 652.875 -61.0419C708.806 -61.0419 764.979 -56.6183 820.792 -48.3989C951.382 -28.962 1077.41 7.64896 1187.16 58.2436C1230.58 78.4216 1271.99 101.077 1309.92 126.963C1356.94 159.06 1403.9 194.302 1440 236.734V236.213C1403.9 193.9 1357.06 158.749 1310.15 126.737C1272.21 100.834 1230.78 78.1727 1187.33 57.9891C1077.55 7.37743 951.486 -29.2449 820.854 -48.6874C765.021 -56.9068 708.826 -61.3304 652.875 -61.3361C578.688 -61.3361 504.924 -53.5523 432.958 -36.5252C389.208 -26.2128 346.41 -12.4498 304.111 3.2932C299.354 5.06378 294.618 6.84569 289.882 8.64456C244.965 25.7225 202.139 43.2078 160.806 62.7748C101.826 90.5328 49.25 126.386 0 165.791V166.204C49.3055 126.731 101.944 90.8157 160.986 63.035Z" fill="#94D3E6"/>
<path d="M161.688 61.9263C203.257 42.9985 246.188 26.1072 291.083 9.24988C295.812 7.47365 300.549 5.70871 305.299 3.94943C347.521 -11.6578 390.097 -25.5792 433.639 -36.1009C508.333 -54.2254 584.889 -62.4843 661.931 -62.4843C714.562 -62.4843 767.424 -58.632 820.069 -51.4479C950.431 -33.4252 1076.51 0.996567 1187.01 49.4247C1230.69 68.7428 1272.47 90.4876 1310.84 115.536C1356.83 145.551 1403.51 178.4 1440 218.338V217.845C1403.53 178.021 1356.94 145.251 1311.07 115.304C1272.67 90.2444 1230.88 68.4939 1187.19 49.1701C1076.65 0.725052 950.528 -33.7081 820.132 -51.7364C767.465 -58.9206 714.583 -62.7729 661.931 -62.7729C584.854 -62.7729 508.264 -54.5195 433.535 -36.3838C389.972 -25.8564 347.375 -11.9293 305.153 3.68356C300.396 5.43718 295.66 7.20212 290.931 8.97836C246.035 25.8414 203.09 42.7327 161.514 61.6717C102.174 88.5134 49.4097 123.835 0 162.821V163.234C49.4652 124.174 102.285 88.8019 161.688 61.9263Z" fill="#94D3E6"/>
<path d="M162.396 60.8231C204.201 42.5346 247.25 26.226 292.132 9.58356C296.854 7.82994 301.59 6.08199 306.34 4.34534C348.486 -11.1431 390.875 -25.2173 434.215 -35.9596C511.764 -55.255 591.243 -64.0061 671.292 -64.0061C720.528 -64.0061 769.986 -60.7025 819.347 -54.4913C949.479 -37.8829 1075.74 -5.84262 1186.88 40.6113C1230.85 58.9903 1272.93 79.8979 1311.76 104.109C1356.78 132.173 1403.18 162.771 1440 200.332V199.851C1403.19 162.397 1356.88 131.867 1311.98 103.877C1273.13 79.649 1231.03 58.7414 1187.03 40.351C1075.87 -6.1198 949.576 -38.1657 819.403 -54.7798C770.028 -60.9911 720.549 -64.3003 671.292 -64.3003C591.208 -64.3003 511.701 -55.5492 434.111 -36.2368C390.743 -25.4944 348.347 -11.4089 306.194 4.07381C301.444 5.81046 296.708 7.55841 291.979 9.31769C247.097 25.9601 204.035 42.2687 162.222 60.5629C102.521 86.4938 49.5695 121.272 0 159.857V160.259C49.625 121.617 102.625 86.7766 162.396 60.8231Z" fill="#94D3E6"/>
<path d="M163.104 59.7144C205.139 42.0651 248.312 26.3504 293.181 9.91734C297.903 8.19202 302.632 6.46101 307.375 4.73003C349.458 -10.6113 391.653 -24.8552 434.799 -35.8181C515.299 -56.3468 597.806 -65.624 680.972 -65.624C726.729 -65.624 772.681 -62.8182 818.625 -57.5347C948.528 -42.3461 1074.85 -12.5063 1186.73 31.798C1230.95 49.3115 1273.4 69.3141 1312.68 92.6768C1356.78 118.907 1402.88 147.418 1440 182.728V182.281C1402.89 147.056 1356.89 118.602 1312.9 92.4392C1273.59 69.0595 1231.12 49.0569 1186.89 31.5321C1074.98 -12.7835 948.618 -42.629 818.674 -57.8289C772.715 -63.1123 726.743 -65.9181 680.972 -65.9181C597.771 -65.9181 515.236 -56.6353 434.688 -36.0897C391.521 -25.1324 349.312 -10.8828 307.229 4.46416C302.493 6.19514 297.757 7.92049 293.028 9.65147C248.167 26.0789 204.986 41.7992 162.938 59.4542C102.868 84.4744 49.7222 118.721 0 156.887V157.295C49.7777 119.06 102.979 84.7572 163.104 59.7144Z" fill="#94D3E6"/>
<path d="M163.806 58.6113C206.083 41.6013 249.368 26.4692 294.229 10.2568C298.944 8.54842 303.674 6.84006 308.41 5.12604C350.424 -10.0908 392.424 -24.4988 435.375 -35.671C518.951 -57.512 604.569 -67.3323 691.014 -67.3323C733.16 -67.3323 775.507 -64.996 817.903 -60.5837C947.583 -46.8093 1073.97 -19.17 1186.59 22.9846C1231.06 39.6327 1273.85 58.7245 1313.6 81.2443C1356.83 105.733 1402.61 132.258 1440 165.435V164.994C1402.62 131.907 1356.93 105.439 1313.81 81.0067C1274.04 58.4756 1231.23 39.3668 1186.74 22.7188C1074.08 -19.4529 947.653 -47.0921 817.951 -60.8722C775.535 -65.2902 733.181 -67.6264 691.014 -67.6264C604.535 -67.6264 518.875 -57.8005 435.264 -35.9482C392.292 -24.7703 350.285 -10.3624 308.264 4.85451C303.528 6.57419 298.799 8.27689 294.083 9.99091C249.229 26.1977 205.938 41.3354 163.646 58.3455C103.215 82.4605 49.875 116.164 0 153.923V154.331C49.9305 116.503 103.312 82.7434 163.806 58.6113Z" fill="#94D3E6"/>
<path d="M164.507 57.5026C207.028 41.1374 250.431 26.5881 295.278 10.5906C299.993 8.91051 304.715 7.21346 309.451 5.5164C351.396 -9.576 393.194 -24.131 435.951 -35.5295C522.708 -58.7451 611.562 -69.1424 701.431 -69.1424C739.854 -69.1424 778.472 -67.2417 817.181 -63.627C946.632 -51.2668 1073.08 -25.8337 1186.44 14.1714C1231.17 29.9482 1274.31 48.1519 1314.53 69.8232C1356.93 92.6711 1402.38 117.341 1440 148.487V148.074C1402.39 117.001 1357.03 92.3713 1314.72 69.5743C1274.49 47.8917 1231.33 29.6824 1186.58 13.8998C1073.18 -26.1166 946.701 -51.5553 817.222 -63.9211C778.5 -67.5302 739.868 -69.4365 701.431 -69.4365C611.528 -69.4365 522.639 -59.0336 435.84 -35.8067C393.062 -24.4082 351.25 -9.84187 309.299 5.25053C304.569 6.94759 299.854 8.63898 295.132 10.3191C250.292 26.3166 206.889 40.8659 164.361 57.2424C103.562 80.4467 50.0347 113.613 0 150.959V151.361C50.0902 113.952 103.66 80.7239 164.507 57.5026Z" fill="#94D3E6"/>
<path d="M165.215 56.3995C207.972 40.6679 251.493 26.7125 296.326 10.9243C301.042 9.26682 305.757 7.59241 310.486 5.90666C352.361 -9.04999 393.972 -23.7747 436.528 -35.3825C526.597 -60.052 618.799 -71.0545 712.243 -71.0545C746.826 -71.0545 781.583 -69.5498 816.458 -66.6761C945.681 -55.7245 1072.19 -32.4975 1186.3 5.35229C1231.28 20.2693 1274.76 37.5736 1315.45 58.3907C1357.06 79.683 1402.17 102.588 1440 131.794V131.392C1402.19 102.248 1357.15 79.3889 1315.64 58.1418C1274.94 37.3134 1231.42 20.0035 1186.44 5.08076C1072.28 -32.7804 945.743 -56.0186 816.5 -66.9646C781.604 -69.8439 746.84 -71.3487 712.243 -71.3487C618.764 -71.3487 526.521 -60.3405 436.417 -35.6597C393.833 -24.0462 352.222 -9.32152 310.34 5.64079C305.618 7.32652 300.896 8.9953 296.181 10.6584C251.354 26.441 207.833 40.3964 165.069 56.1337C103.91 78.4272 50.1945 111.061 0 148.001V148.397C50.25 111.395 104.007 78.7101 165.215 56.3995Z" fill="#94D3E6"/>
<path d="M165.924 55.2964C208.91 40.204 252.549 26.8313 297.375 11.2637C302.083 9.6232 306.806 7.97707 311.521 6.29698C353.326 -8.52956 394.743 -23.4127 437.111 -35.2411C530.611 -61.4492 626.285 -73.0853 723.5 -73.0853C754.097 -73.0853 784.847 -71.9313 815.736 -69.7195C944.729 -60.1877 1071.29 -39.1556 1186.15 -3.46104C1231.39 10.5905 1275.21 26.9953 1316.37 46.9639C1357.23 66.7854 1402 88.0268 1440 115.389V115.004C1402.01 87.6874 1357.32 66.4913 1316.56 46.7094C1275.38 26.7351 1231.53 10.319 1186.28 -3.73822C1071.38 -39.4385 944.785 -60.4819 815.771 -70.0136C784.875 -72.2254 754.111 -73.3738 723.5 -73.3738C626.25 -73.3738 530.535 -61.7377 436.993 -35.5183C394.604 -23.6842 353.188 -8.80109 311.375 6.03111C306.667 7.70554 301.944 9.35733 297.229 10.9922C252.417 26.5597 208.778 39.9325 165.778 55.0306C104.257 76.4134 50.3541 108.51 0 145.042V145.438C50.4027 108.844 104.347 76.6962 165.924 55.2964Z" fill="#94D3E6"/>
<path d="M166.632 54.1933C209.854 39.7345 253.611 26.95 298.424 11.5974C303.132 9.9852 307.847 8.35037 312.562 6.69293C354.299 -8.00917 395.514 -23.0507 437.688 -35.0997C534.757 -62.937 634.035 -75.2236 735.222 -75.2236C761.694 -75.2236 788.285 -74.3864 815.021 -72.7685C943.778 -64.651 1070.4 -45.8138 1186.01 -12.2801C1231.49 0.911652 1275.66 16.4283 1317.29 35.5314C1357.43 53.9557 1401.85 73.6245 1440 99.233V98.854C1401.87 73.2908 1357.52 53.6672 1317.47 35.2769C1275.81 16.1625 1231.62 0.640121 1186.13 -12.5573C1070.49 -46.1022 943.833 -64.9395 815.042 -73.057C788.312 -74.6805 761.701 -75.5178 735.222 -75.5178C634 -75.5178 534.681 -63.2198 437.569 -35.3712C395.375 -23.3279 354.153 -8.27504 312.417 6.4214C307.701 8.07886 302.993 9.71367 298.285 11.3259C253.486 26.6728 209.729 39.4629 166.493 53.9218C104.611 74.3995 50.507 105.965 0 142.083V142.479C50.5555 106.298 104.694 74.688 166.632 54.1933Z" fill="#94D3E6"/>
<path d="M167.333 53.0845C210.799 39.2649 254.674 27.0744 299.472 11.9368C304.181 10.3416 308.889 8.72369 313.597 7.08321C355.278 -7.48877 396.278 -22.6887 438.271 -34.9527C539.062 -64.5096 642.069 -77.4977 747.458 -77.5033C769.632 -77.4977 791.91 -76.9263 814.292 -75.812C942.826 -69.1086 1069.51 -52.4719 1185.87 -21.0934C1231.6 -8.76723 1276.1 5.86134 1318.22 24.1046C1357.67 41.1995 1401.74 59.3693 1440 83.3033V82.9356C1401.75 59.0412 1357.75 40.9054 1318.38 23.8501C1276.25 5.58981 1231.73 -9.0444 1185.98 -21.3763C1069.58 -52.7547 942.875 -69.3971 814.312 -76.1004C791.924 -77.2205 769.639 -77.7975 747.458 -77.7975C642.035 -77.7975 538.979 -64.7981 438.146 -35.2242C396.146 -22.9602 355.125 -7.75464 313.458 6.81169C308.75 8.46349 304.035 10.0757 299.326 11.6652C254.549 26.7916 210.681 38.9934 167.201 52.813C104.951 72.3856 50.6666 103.419 0 139.131V139.521C50.7152 103.753 105.042 72.6741 167.333 53.0845Z" fill="#94D3E6"/>
<path d="M168.035 51.9815C211.743 38.8067 255.736 27.1933 300.514 12.2706C305.222 10.7036 309.924 9.10839 314.632 7.47357C356.243 -6.96831 397.056 -22.3323 438.854 -34.8112C543.507 -66.1896 650.41 -79.9018 760.236 -79.9075C777.938 -79.9018 795.715 -79.5511 813.569 -78.8553C941.875 -73.5661 1068.62 -59.1243 1185.73 -29.9124C1231.71 -18.4404 1276.54 -4.70558 1319.14 12.6778C1357.93 28.5057 1401.64 45.2612 1440 67.5943V67.2266C1401.65 44.9331 1358.01 28.2172 1319.3 12.412C1276.68 -4.97711 1231.83 -18.7175 1185.83 -30.1896C1068.68 -59.4128 941.917 -73.8603 813.59 -79.1494C795.722 -79.8452 777.944 -80.196 760.236 -80.2016C650.368 -80.2016 543.431 -66.4725 438.722 -35.0827C396.917 -22.5981 356.09 -7.23418 314.493 7.2077C309.792 8.83687 305.083 10.4378 300.382 11.999C255.618 26.9104 211.625 38.5239 167.91 51.7043C105.299 70.3775 50.8264 100.873 0 136.172V136.562C50.875 101.207 105.382 70.6603 168.035 51.9815Z" fill="#94D3E6"/>
<path d="M168.736 50.8727C212.688 38.3372 256.792 27.312 301.569 12.6043C306.271 11.06 310.972 9.48173 315.674 7.86388C357.208 -6.44791 397.826 -21.9702 439.424 -34.6642C548.125 -67.9716 659.056 -82.453 773.618 -82.453C786.646 -82.453 799.722 -82.2664 812.847 -81.8987C940.931 -78.035 1067.72 -65.7824 1185.58 -38.7258C1231.81 -28.1192 1276.98 -15.2612 1320.06 1.24539C1358.22 15.8796 1401.56 31.2775 1440 52.0833V51.7326C1401.58 30.955 1358.3 15.5854 1320.21 0.985168C1277.11 -15.5384 1231.92 -28.3964 1185.67 -39.0086C1067.78 -66.0709 940.958 -78.3292 812.861 -82.1928C799.729 -82.5605 786.653 -82.7415 773.618 -82.7472C659.021 -82.7472 548.049 -68.2601 439.299 -34.9357C397.688 -22.2418 357.062 -6.70811 315.535 7.59235C310.833 9.2102 306.132 10.7941 301.431 12.3384C256.674 27.0349 212.576 38.06 168.625 50.6012C105.646 68.3693 50.9791 98.3279 0 133.225V133.609C51.0277 98.656 105.729 68.6521 168.736 50.8727Z" fill="#94D3E6"/>
<path d="M169.444 49.7696C213.632 37.8677 257.847 27.4365 302.611 12.9437C307.312 11.422 312.014 9.86073 316.708 8.25419C358.181 -5.92183 398.604 -21.6082 440.007 -34.5227C552.931 -69.8723 668.042 -85.1513 787.66 -85.1513C795.799 -85.1513 803.944 -85.0891 812.125 -84.9477C939.979 -82.4983 1066.82 -72.4235 1185.44 -47.5448C1231.92 -37.798 1277.42 -25.8169 1320.97 -10.1814C1358.54 3.30447 1401.51 17.4183 1440 36.7589V36.4082C1401.53 17.1015 1358.6 3.01031 1321.12 -10.4473C1277.54 -26.0941 1232.02 -38.0752 1185.53 -47.8219C1066.88 -72.7176 940.007 -82.7868 812.132 -85.2419C803.951 -85.3833 795.806 -85.4455 787.66 -85.4455C668.007 -85.4455 552.84 -70.1608 439.875 -34.7943C398.451 -21.8797 358.028 -6.18768 316.576 7.98832C311.875 9.59486 307.181 11.1505 302.479 12.6778C257.736 27.1536 213.521 37.5905 169.333 49.4925C106 66.3555 51.1459 95.7879 0 130.272V130.657C51.1875 96.116 106.076 66.644 169.444 49.7696Z" fill="#94D3E6"/>
<path d="M170.153 48.6609C214.569 37.4095 258.91 27.5553 303.66 13.2775C308.361 11.7841 313.056 10.2454 317.75 8.65017C359.153 -5.4014 399.375 -21.2462 440.583 -34.3813C557.91 -71.8918 677.382 -88.0137 802.424 -88.0137C805.417 -88.0137 808.41 -88.0137 811.403 -87.9911C939.035 -86.9559 1065.92 -79.0703 1185.29 -56.3581C1232.02 -47.4712 1277.85 -36.3669 1321.9 -21.6139C1358.88 -9.21976 1401.49 3.6665 1440 21.6043V21.2649C1401.5 3.35538 1358.94 -9.5139 1322.03 -21.8797C1277.97 -36.6441 1232.12 -47.7484 1185.38 -56.6466C1065.97 -79.3644 939.049 -87.2501 811.403 -88.2796C808.41 -88.3022 805.417 -88.3079 802.424 -88.3135C677.347 -88.3135 557.826 -72.1803 440.451 -34.6472C399.222 -21.5177 359 -5.66727 317.611 8.37865C312.917 9.96822 308.229 11.5069 303.528 13.0116C258.806 27.2725 214.472 37.121 170.042 48.3837C106.347 64.353 51.2986 93.2424 0 127.325V127.704C51.3402 93.5705 106.417 64.6358 170.153 48.6609Z" fill="#94D3E6"/>
<path d="M170.854 47.5579C215.514 36.9343 259.979 27.6798 304.715 13.6169C309.403 12.1461 314.097 10.6188 318.792 9.0405C360.118 -4.88095 400.146 -20.8841 441.16 -34.2342C560.826 -73.306 682.493 -90.4179 810.681 -91.0401C814.465 -91.0458 818.25 -91.0514 822.035 -91.0514C945.611 -91.0514 1068.55 -84.9138 1185.15 -65.1714C1232.11 -57.0652 1278.29 -46.9112 1322.82 -33.035C1359.24 -21.693 1401.47 -9.97209 1440 6.61938V6.28563C1401.49 -10.2832 1359.3 -21.9872 1322.95 -33.3122C1278.4 -47.194 1232.19 -57.3537 1185.23 -65.4599C1068.59 -85.2079 945.632 -91.3456 822.035 -91.3456C818.25 -91.3456 814.465 -91.3399 810.681 -91.3343C682.458 -90.712 560.736 -73.5945 441.028 -34.5058C400 -21.1556 359.965 -5.14682 318.653 8.76897C313.965 10.3416 309.271 11.8689 304.583 13.3454C259.868 27.3913 215.424 36.6571 170.757 47.2807C106.694 62.3391 51.4584 90.7025 0 124.372V124.757C51.5 91.0306 106.771 62.6276 170.854 47.5579Z" fill="#94D3E6"/>
<path d="M171.562 46.4548C216.458 36.4705 261.035 27.7986 305.757 13.9506C310.451 12.5025 315.139 10.9921 319.826 9.43083C361.09 -4.36052 400.917 -20.5277 441.743 -34.0928C560.944 -73.8207 681.882 -92.0527 809.958 -94.0835C828.521 -94.3437 847.069 -94.4908 865.597 -94.4908C974.056 -94.4908 1081.74 -89.5241 1185.01 -73.9961C1232.22 -66.744 1278.72 -57.4555 1323.74 -44.4731C1359.62 -34.1268 1401.49 -23.5202 1440 -8.21848V-8.54091C1401.49 -23.8257 1359.67 -34.4153 1323.86 -44.7446C1278.83 -57.7327 1232.3 -67.0269 1185.08 -74.2846C1081.77 -89.8183 974.069 -94.7793 865.597 -94.7793C847.062 -94.7793 828.514 -94.6379 809.951 -94.372C681.847 -92.3412 560.854 -74.1036 441.604 -34.3587C400.764 -20.7879 360.931 -4.62074 319.694 9.15931C315.007 10.7262 310.319 12.2253 305.632 13.6791C260.931 27.5101 216.368 36.1876 171.465 46.172C107.042 60.3367 51.618 88.1626 0 121.43V121.804C51.6527 88.4907 107.111 60.6252 171.562 46.4548Z" fill="#94D3E6"/>
<path d="M172.264 45.3517C217.403 36.0067 262.097 27.9174 306.806 14.2901C311.493 12.8589 316.181 11.3768 320.861 9.82121C362.056 -3.84003 401.694 -20.1656 442.319 -33.9457C561.062 -74.3354 681.285 -93.6874 809.236 -97.1268C843.076 -97.9866 876.924 -98.5014 910.66 -98.5014C1003.51 -98.507 1095.63 -94.5642 1184.87 -82.8094C1232.33 -76.4228 1279.16 -67.9885 1324.67 -55.8998C1360.02 -46.5095 1401.51 -36.9664 1440 -22.8979V-23.226C1401.51 -37.2719 1360.06 -46.798 1324.78 -56.177C1279.25 -68.2713 1232.4 -76.7113 1184.92 -83.0979C1095.67 -94.8528 1003.53 -98.7955 910.66 -98.8012C876.91 -98.7955 843.069 -98.2751 809.222 -97.4209C681.229 -93.9816 560.958 -74.6239 442.181 -34.2172C401.542 -20.4315 361.903 -4.10025 320.729 9.54967C316.049 11.0996 311.368 12.5874 306.681 14.0186C261.993 27.6346 217.319 35.7238 172.174 45.0632C107.396 58.3342 51.7709 85.6227 0 118.483V118.857C51.8125 85.9508 107.451 58.617 172.264 45.3517Z" fill="#94D3E6"/>
<path d="M172.965 44.243C218.34 35.5371 263.153 28.0362 307.854 14.6295C312.542 13.2209 317.229 11.7558 321.903 10.2171C363.028 -3.314 402.465 -19.8037 442.903 -33.8043C561.174 -74.8446 680.681 -95.3224 808.514 -100.176C857.465 -101.958 906.465 -103.163 955.229 -103.163C1032.71 -103.163 1109.6 -100.131 1184.73 -91.6284C1232.43 -86.1017 1279.59 -78.5216 1325.59 -67.3267C1360.44 -58.8528 1401.56 -50.3279 1440 -37.4473V-37.7698C1401.56 -50.6391 1360.48 -59.1413 1325.69 -67.6095C1279.67 -78.8044 1232.5 -86.3959 1184.78 -91.9169C1109.62 -100.425 1032.72 -103.451 955.229 -103.451C906.458 -103.451 857.444 -102.252 808.5 -100.464C680.632 -95.6165 561.069 -75.1331 442.764 -34.0702C402.312 -20.0695 362.868 -3.57986 321.764 9.94562C317.09 11.4786 312.41 12.9437 307.729 14.3523C263.062 27.7533 218.264 35.2543 172.889 43.9545C107.743 56.326 51.9305 83.0941 0 115.542V115.915C51.9722 83.4109 107.806 56.6145 172.965 44.243Z" fill="#94D3E6"/>
<path d="M173.681 43.1342C219.285 35.0732 264.215 28.1606 308.91 14.9632C313.59 13.5773 318.271 12.1291 322.938 10.6075C363.993 -2.79357 403.236 -19.4416 443.479 -33.6572C561.285 -75.365 680.076 -96.9571 807.792 -103.219C871.222 -106.246 934.819 -108.486 997.986 -108.486C1060.8 -108.486 1123.18 -106.274 1184.58 -100.442C1232.54 -95.7805 1280.03 -89.0432 1326.51 -78.7591C1360.87 -71.1563 1401.62 -63.6101 1440 -51.8666V-52.1833C1401.62 -63.9099 1360.91 -71.4448 1326.6 -79.0363C1280.1 -89.3317 1232.6 -96.0747 1184.62 -100.73C1123.21 -106.568 1060.8 -108.78 997.986 -108.78C934.799 -108.78 871.208 -106.54 807.764 -103.513C680.021 -97.2513 561.181 -75.6479 443.333 -33.9231C403.076 -19.7018 363.833 -3.05944 322.806 10.3359C318.132 11.8576 313.465 13.3058 308.785 14.686C264.125 27.8721 219.215 34.7847 173.604 42.8514C108.09 54.3234 52.0902 80.5541 0 112.6V112.968C52.125 80.8766 108.153 54.6063 173.681 43.1342Z" fill="#94D3E6"/>
<path d="M174.382 42.0312C220.229 34.6037 265.278 28.2794 309.951 15.3026C314.632 13.9393 319.306 12.5082 323.979 10.9921C364.965 -2.27313 404.007 -19.0852 444.062 -33.5158C561.396 -75.8741 679.465 -98.592 807.069 -106.268C884.083 -110.811 961.444 -114.476 1038.19 -114.476C1087.27 -114.476 1136.11 -112.983 1184.43 -109.255C1232.65 -105.459 1280.47 -99.5593 1327.43 -90.1859C1361.32 -83.426 1401.69 -76.8132 1440 -66.167V-66.4725C1401.69 -77.1073 1361.35 -83.7145 1327.52 -90.4688C1280.53 -99.8534 1232.7 -105.748 1184.47 -109.549C1136.12 -113.277 1087.28 -114.771 1038.19 -114.771C961.431 -114.771 884.056 -111.105 807.042 -106.557C679.41 -98.8861 561.292 -76.1626 443.917 -33.7817C403.847 -19.3454 364.812 -2.53901 323.84 10.7263C319.181 12.2366 314.507 13.6622 309.833 15.0255C265.188 27.9909 220.16 34.3152 174.312 41.7427C108.444 52.3209 52.243 78.0199 0 109.659V110.026C52.2847 78.3423 108.493 52.6038 174.382 42.0312Z" fill="#94D3E6"/>
<path d="M175.09 40.9224C221.167 34.1399 266.34 28.4038 311 15.6364C315.681 14.2957 320.347 12.8872 325.014 11.3881C365.938 -1.7527 404.778 -18.7232 444.639 -33.3687C561.507 -76.3945 678.861 -100.232 806.347 -109.312C895.938 -115.619 986.16 -121.117 1075.6 -121.117C1112 -121.117 1148.26 -120.212 1184.29 -118.074C1232.76 -115.138 1280.9 -110.081 1328.35 -101.618C1361.78 -95.656 1401.78 -89.937 1440 -80.343V-80.6485C1401.78 -90.2311 1361.81 -95.9445 1328.43 -101.907C1280.96 -110.369 1232.81 -115.432 1184.32 -118.368C1148.27 -120.501 1112.01 -121.412 1075.6 -121.412C986.139 -121.412 895.91 -115.907 806.312 -109.606C678.799 -100.521 561.396 -76.6717 444.486 -33.6346C404.618 -18.9834 365.778 -2.01292 324.882 11.1166C320.222 12.61 315.556 14.0242 310.882 15.3592C266.257 28.1153 221.111 33.8457 175.021 40.6339C108.792 50.3184 52.4097 75.4856 0 106.723V107.085C52.4445 75.8081 108.84 50.6069 175.09 40.9224Z" fill="#94D3E6"/>
<path d="M175.792 39.8193C222.111 33.676 267.396 28.5227 312.049 15.9701C316.722 14.6521 321.389 13.2662 326.056 11.7841C366.91 -1.23227 405.556 -18.3611 445.215 -33.2273C561.625 -76.9093 678.264 -101.867 805.625 -112.355C906.785 -120.625 1008.93 -128.375 1110.27 -128.375C1134.95 -128.375 1159.59 -127.917 1184.15 -126.887C1232.87 -124.811 1281.34 -120.597 1329.27 -113.045C1362.26 -107.858 1401.88 -102.993 1440 -94.4115V-94.7113C1401.88 -103.287 1362.28 -108.146 1329.35 -113.334C1281.39 -120.885 1232.9 -125.105 1184.17 -127.182C1159.6 -128.205 1134.96 -128.664 1110.27 -128.664C1008.91 -128.664 906.75 -120.919 805.583 -112.649C678.188 -102.156 561.507 -77.1865 445.069 -33.4932C405.396 -18.6214 366.743 -1.49814 325.917 11.5069C321.264 12.989 316.604 14.3862 311.931 15.6986C267.319 28.2342 222.062 33.3819 175.736 39.5308C109.139 48.3159 52.5625 72.957 0 103.787V104.143C52.5972 73.2738 109.188 48.6044 175.792 39.8193Z" fill="#94D3E6"/>
<path d="M176.493 38.7106C223.056 33.2065 268.451 28.6415 313.097 16.3096C317.771 15.0142 322.431 13.6395 327.09 12.1688C367.875 -0.711838 406.326 -17.9991 445.799 -33.0859C561.743 -77.4185 677.653 -103.502 804.896 -115.398C916.66 -125.824 1029.86 -136.204 1142.33 -136.204C1156.24 -136.204 1170.13 -136.046 1184.01 -135.706C1232.99 -134.496 1281.77 -131.04 1330.2 -124.478C1362.74 -119.986 1402 -115.924 1440 -108.316V-108.627C1401.99 -116.224 1362.76 -120.275 1330.26 -124.766C1281.81 -131.334 1233.01 -134.784 1184.02 -136.001C1170.13 -136.34 1156.24 -136.493 1142.33 -136.493C1029.83 -136.493 916.625 -126.112 804.861 -115.693C677.576 -103.791 561.625 -77.7013 445.639 -33.3461C406.16 -18.2593 367.715 -0.972054 326.958 11.8972C322.306 13.368 317.653 14.7426 312.979 16.0267C268.389 28.353 223.007 32.9124 176.444 38.4221C109.493 46.319 52.7222 70.4285 0 100.851V101.207C52.757 70.7452 109.535 46.6075 176.493 38.7106Z" fill="#94D3E6"/>
<path d="M177.201 37.6019C228.896 32.2335 279.028 27.94 328.125 12.5647C368.84 -0.18576 407.104 -17.6427 446.375 -32.9388C561.854 -77.9389 677.056 -105.137 804.181 -118.453C925.639 -131.164 1049.08 -144.565 1172.03 -144.559C1225.22 -144.565 1278.31 -142.059 1331.12 -135.904C1363.25 -132.165 1402.13 -128.907 1440 -122.232V-122.532C1402.12 -129.195 1363.26 -132.448 1331.17 -136.199C1278.34 -142.348 1225.23 -144.854 1172.03 -144.854C1049.04 -144.854 925.59 -131.452 804.132 -118.742C676.965 -105.425 561.736 -78.2104 446.222 -33.199C406.938 -17.8973 368.681 -0.45163 328 12.2932C278.958 27.6515 228.861 31.9394 177.153 37.3134C109.84 44.3222 52.882 67.8998 0 97.915V98.2714C52.9097 68.211 109.882 44.605 177.201 37.6019Z" fill="#94D3E6"/>
</g>
</svg>
