<svg width="1440" height="562" viewBox="0 0 1440 562" fill="none" xmlns="http://www.w3.org/2000/svg">
  <path
    fill-rule="evenodd"
    clip-rule="evenodd"
    d="M-2 546.583L46.0667 517.638C94.1333 488.694 190.267 430.805 286.4 416.332C382.533 401.86 478.667 430.805 574.8 423.569C670.933 416.332 767.067 372.915 863.2 329.499C959.333 286.082 1055.47 242.665 1151.6 228.192C1247.73 213.72 1343.87 228.192 1391.93 235.429L1440 242.665V590H1391.93C1343.87 590 1247.73 590 1151.6 590C1055.47 590 959.333 590 863.2 590C767.067 590 670.933 590 574.8 590C478.667 590 382.533 590 286.4 590C190.267 590 94.1333 590 46.0667 590H-2V546.583Z"
    fill="#66C6FF"
    fill-opacity="0.6"/>
  <path
    fill-rule="evenodd"
    clip-rule="evenodd"
    d="M-122 308.193L-110.261 255.377C-99.9889 202.562 -77.9778 95.4638 -55.9667 74.9245C-33.9556 54.3852 -11.9445 117.47 10.0666 138.01C32.0777 160.016 54.0888 138.01 76.0999 149.746C98.111 160.016 120.122 202.562 142.133 255.377C164.144 308.193 186.155 371.278 208.166 371.278C230.178 371.278 252.189 308.193 274.2 265.647C296.211 223.101 318.222 202.562 340.233 170.286C362.244 138.01 384.255 95.4638 407.734 149.746C429.745 202.562 451.756 350.738 473.767 328.732C495.778 308.193 517.789 117.47 539.8 85.1941C561.811 54.3852 583.822 180.555 605.834 212.831C627.845 245.108 649.856 180.555 671.867 180.555C693.878 180.555 715.889 245.108 737.9 212.831C759.911 180.555 781.922 54.3851 803.933 32.3787C825.945 11.8394 847.956 95.4638 869.967 95.4638C891.978 95.4638 913.989 11.8394 936 11.8394C958.011 11.8394 980.022 95.4638 1002.03 127.74C1024.04 160.016 1046.06 138.01 1068.07 117.47C1090.08 95.4638 1112.09 74.9245 1134.1 85.1941C1156.11 95.4638 1178.12 138.01 1200.13 180.555C1222.14 223.101 1244.16 265.647 1266.17 318.462C1288.18 371.278 1310.19 434.363 1332.2 403.554C1354.21 371.278 1376.22 245.108 1398.23 190.825C1420.24 138.01 1442.26 160.016 1465.73 138.01C1487.74 117.47 1509.76 54.3851 1531.77 22.1091C1553.78 -10.167 1575.79 -10.167 1597.8 42.6484C1619.81 95.4638 1641.82 202.562 1663.83 233.371C1685.84 265.647 1707.86 223.101 1729.87 233.371C1751.88 245.108 1773.89 308.193 1795.9 339.002C1817.91 371.278 1839.92 371.278 1861.93 328.732C1883.94 286.186 1905.96 202.562 1927.97 223.101C1949.98 245.108 1971.99 371.278 1982.26 434.363L1994 498.915V562H1982.26C1971.99 562 1949.98 562 1927.97 562C1905.96 562 1883.94 562 1861.93 562C1839.92 562 1817.91 562 1795.9 562C1773.89 562 1751.88 562 1729.87 562C1707.86 562 1685.84 562 1663.83 562C1641.82 562 1619.81 562 1597.8 562C1575.79 562 1553.78 562 1531.77 562C1509.76 562 1487.74 562 1465.73 562C1442.26 562 1420.24 562 1398.23 562C1376.22 562 1354.21 562 1332.2 562C1310.19 562 1288.18 562 1266.17 562C1244.16 562 1222.14 562 1200.13 562C1178.12 562 1156.11 562 1134.1 562C1112.09 562 1090.08 562 1068.07 562C1046.06 562 1024.04 562 1002.03 562C980.022 562 958.011 562 936 562C913.989 562 891.978 562 869.967 562C847.956 562 825.945 562 803.933 562C781.922 562 759.911 562 737.9 562C715.889 562 693.878 562 671.867 562C649.856 562 627.845 562 605.834 562C583.822 562 561.811 562 539.8 562C517.789 562 495.778 562 473.767 562C451.756 562 429.745 562 407.734 562C384.255 562 362.244 562 340.233 562C318.222 562 296.211 562 274.2 562C252.189 562 230.178 562 208.166 562C186.155 562 164.144 562 142.133 562C120.122 562 98.111 562 76.0999 562C54.0888 562 32.0777 562 10.0666 562C-11.9445 562 -33.9556 562 -55.9667 562C-77.9778 562 -99.9889 562 -110.261 562H-122V308.193Z"
    fill="#66C6FF"
    fill-opacity="0.75"/>
  <path
    fill-rule="evenodd"
    clip-rule="evenodd"
    d="M-125 214.384L-102.012 250.157C-80.7917 285.93 -36.5833 357.476 7.625 339.589C51.8333 321.703 96.0417 214.384 140.25 151.781C184.458 89.1785 228.667 71.292 272.875 62.3487C317.083 53.4055 361.292 53.4055 405.5 80.2352C449.708 107.065 493.917 160.724 538.125 214.384C582.333 268.043 626.542 321.703 670.75 321.703C714.958 321.703 759.167 268.043 803.375 241.214C847.583 214.384 891.792 214.384 936 241.214C980.208 268.043 1024.42 321.703 1068.62 303.816C1112.83 285.93 1157.04 196.497 1201.25 151.781C1245.46 107.065 1289.67 107.065 1333.87 178.611C1378.08 250.157 1422.29 393.249 1466.5 429.022C1510.71 464.795 1554.92 393.249 1599.12 330.646C1643.33 268.043 1687.54 214.384 1731.75 178.611C1775.96 142.838 1820.17 124.951 1864.37 160.724C1908.58 196.497 1952.79 285.93 1975.78 330.646L1997 375.362V590H1975.78C1952.79 590 1908.58 590 1864.37 590C1820.17 590 1775.96 590 1731.75 590C1687.54 590 1643.33 590 1599.12 590C1554.92 590 1510.71 590 1466.5 590C1422.29 590 1378.08 590 1333.87 590C1289.67 590 1245.46 590 1201.25 590C1157.04 590 1112.83 590 1068.62 590C1024.42 590 980.208 590 936 590C891.792 590 847.583 590 803.375 590C759.167 590 714.958 590 670.75 590C626.542 590 582.333 590 538.125 590C493.917 590 449.708 590 405.5 590C361.292 590 317.083 590 272.875 590C228.667 590 184.458 590 140.25 590C96.0417 590 51.8333 590 7.625 590C-36.5833 590 -80.7917 590 -102.012 590H-125V214.384Z"
    fill="#05FDD8"
    fill-opacity="0.75"/>
</svg>
