<svg width="1440" height="405" viewBox="0 0 1440 405" fill="none" xmlns="http://www.w3.org/2000/svg">
<g opacity="0.65">
<path opacity="0.65" d="M220.16 223.155C271.16 256.1 301.25 311.65 358.181 337.655C395.972 354.925 438.083 356.922 480.542 356.922C493.236 356.922 505.965 356.741 518.611 356.741C527.757 356.741 536.854 356.837 545.875 357.16C701.062 362.686 750.521 422.864 879.736 479.455C924.979 499.265 966.056 507.49 1004.14 507.49C1173.97 507.574 1284.81 343.674 1440 312.64V313.336C1285.47 344.33 1174.57 508.112 1004.14 508.197C965.896 508.197 924.674 499.927 879.326 480.071C749.91 423.367 700.688 363.376 545.84 357.861C536.84 357.539 527.75 357.448 518.611 357.448C505.972 357.448 493.25 357.623 480.542 357.623C438.056 357.623 395.778 355.638 357.764 338.266C300.507 312.075 270.417 256.473 219.625 223.703C156.264 182.804 79.4445 149.955 0 120.523V119.753C79.5972 149.231 156.618 182.143 220.16 223.155Z" fill="#6BB4DF"/>
<path opacity="0.65" d="M50.618 141.814C107.91 162.643 162.757 185.96 209.993 215.319C231.389 228.641 249.229 246.024 266.611 264.132C291.062 289.576 313.778 315.377 345.521 331.324C380.938 349.103 420.812 352.565 464.153 352.848C466.181 352.854 468.215 352.854 470.25 352.854C482.986 352.854 495.674 352.678 508.222 352.678C516.167 352.678 524.056 352.752 531.875 352.995C593.34 354.896 637.715 365.633 678.257 383.893C736.521 410.141 782.729 447.668 861.09 480.059C900.465 496.334 933.556 501.216 965.653 501.216C978.382 501.216 990.965 500.452 1003.71 499.315C1054.73 494.914 1100.19 482.989 1142.07 465.872C1184.33 448.607 1224.49 426.082 1268.67 401.401C1315.51 375.232 1361.51 347.305 1412.47 334.424C1421.63 332.139 1430.8 330.283 1440 328.892V329.604C1430.89 330.99 1421.81 332.834 1412.72 335.097C1361.97 347.915 1316.01 375.798 1269.16 401.978C1224.98 426.664 1184.79 449.207 1142.46 466.5C1100.5 483.645 1054.93 495.604 1003.81 500.016C991.035 501.153 978.431 501.917 965.653 501.917C933.444 501.917 900.188 497.012 860.701 480.687C782.215 448.234 735.958 410.678 677.84 384.509C637.41 366.3 593.201 355.603 531.84 353.697C524.042 353.453 516.16 353.38 508.222 353.38C495.688 353.38 482.993 353.561 470.25 353.561C468.215 353.561 466.181 353.555 464.139 353.55C420.764 353.261 380.701 349.805 345.069 331.924C313.125 315.875 290.368 289.99 265.938 264.562C248.556 246.472 230.764 229.133 209.472 215.879C162.312 186.571 107.528 163.276 50.2709 142.465C33.6736 136.423 16.882 130.5 0 124.646V123.882C17 129.771 33.9097 135.744 50.618 141.814Z" fill="#6BB4DF"/>
<path opacity="0.65" d="M38.4722 139.552C96.1805 157.999 152.007 178.879 199.833 207.485C221.431 220.445 239.521 237.613 256.903 256.06C281.326 281.986 302.646 308.313 332.861 324.989C366.569 343.583 405.021 348.278 449.986 348.77C453.035 348.799 456.083 348.804 459.104 348.804C472.285 348.804 485.319 348.601 498.153 348.601C504.785 348.601 511.354 348.657 517.868 348.827C578.688 350.428 622.229 360.848 663.174 381.444C719.597 409.825 763.299 449.728 842.438 480.665C874.076 493.037 900.09 496.787 924.799 496.787C945.812 496.787 965.896 494.066 987.667 491.605C1040.92 485.575 1088.03 477.989 1129.88 465.793C1172.5 453.371 1212.72 436.378 1260.93 413.36C1310.81 389.545 1358.69 360.118 1412.55 349.229C1421.79 347.362 1430.92 345.925 1440 344.952V345.654C1430.99 346.632 1421.93 348.058 1412.76 349.913C1359.13 360.746 1311.3 390.116 1261.36 413.965C1213.14 437 1172.86 454.01 1130.17 466.449C1088.23 478.674 1041.06 486.271 987.785 492.301C966.035 494.762 945.91 497.494 924.799 497.494C899.986 497.494 873.806 493.71 842.069 481.299C762.764 450.294 719 410.339 662.722 382.044C621.903 361.521 578.556 351.135 517.84 349.528C511.34 349.359 504.778 349.308 498.153 349.308C485.333 349.308 472.292 349.506 459.104 349.506C456.076 349.506 453.035 349.5 449.979 349.478C404.951 348.98 366.292 344.279 332.375 325.572C301.965 308.782 280.611 282.382 256.215 256.496C238.854 238.06 220.812 220.943 199.319 208.051C151.59 179.501 95.8334 158.644 38.1597 140.203C25.5 136.158 12.7709 132.108 0 128.052V127.294C12.868 131.384 25.7084 135.468 38.4722 139.552Z" fill="#6BB4DF"/>
<path opacity="0.65" d="M26.3334 137.284C84.4305 153.361 141.243 171.785 189.667 199.651C211.465 212.248 229.819 229.202 247.188 247.999C271.583 274.389 291.507 301.242 320.194 318.659C352.201 338.067 389.222 343.99 435.826 344.697C439.646 344.742 443.444 344.759 447.229 344.759C461.167 344.759 474.854 344.516 488.264 344.516C493.507 344.516 498.708 344.55 503.868 344.657C564.028 345.964 606.743 355.999 648.09 378.994C702.708 409.383 743.931 451.707 823.792 481.276C849.75 490.887 871.118 494.1 890.847 494.1C918.319 494.105 942.625 487.854 971.618 483.889C1027.11 476.315 1076.02 473.022 1117.7 465.708C1160.83 458.145 1200.88 446.639 1253.18 425.318C1306.02 403.794 1355.91 373.021 1412.62 364.038C1421.93 362.561 1431.03 361.52 1440 360.921V361.628C1431.09 362.222 1422.04 363.257 1412.78 364.728C1356.35 373.66 1306.49 404.377 1253.56 425.952C1201.22 447.284 1161.08 458.818 1117.88 466.398C1076.12 473.724 1027.21 477.005 971.764 484.585C942.847 488.528 918.486 494.801 890.847 494.807C871.007 494.807 849.486 491.565 823.431 481.915C743.382 452.267 702.076 409.864 647.597 379.577C606.389 356.661 563.91 346.666 503.84 345.365C498.694 345.257 493.507 345.218 488.264 345.218C474.868 345.218 461.174 345.461 447.229 345.461C443.444 345.461 439.639 345.449 435.812 345.399C389.139 344.697 351.875 338.752 319.688 319.224C290.806 301.688 270.868 274.773 246.507 248.429C229.16 229.649 210.861 212.752 189.174 200.228C140.854 172.424 84.125 154.023 26.0555 137.952C17.382 135.553 8.6875 133.109 0 130.654V129.908C8.78467 132.391 17.5625 134.857 26.3334 137.284Z" fill="#6BB4DF"/>
<path opacity="0.65" d="M14.1875 135.016C72.6597 148.75 130.486 164.697 179.507 191.816C201.507 204.046 220.118 220.784 237.479 239.944C261.847 266.803 280.375 294.182 307.528 312.334C337.826 332.552 373.424 339.792 421.66 340.618C426.306 340.698 430.917 340.731 435.493 340.731C450.312 340.731 464.771 340.415 478.847 340.415C482.549 340.415 486.215 340.432 489.861 340.494C549.375 341.489 591.271 351.078 633.007 376.551C685.882 408.828 724.611 453.619 805.146 481.886C827.34 489.676 845.736 492.487 862.375 492.487C895 492.499 920.972 481.649 955.576 476.179C1013.31 467.054 1064.15 468.135 1105.52 465.634C1149.33 462.981 1188.97 456.849 1245.44 437.288C1301.16 417.998 1353.15 385.941 1412.69 378.842C1422.05 377.727 1431.13 377.037 1440 376.782V377.49C1431.17 377.744 1422.13 378.429 1412.81 379.537C1353.57 386.591 1301.62 418.575 1245.78 437.938C1189.23 457.522 1149.46 463.683 1105.58 466.336C1064.15 468.836 1013.36 467.767 955.736 476.863C921.271 482.305 895.25 493.183 862.375 493.194C845.611 493.194 827.09 490.355 804.806 482.537C724.049 454.179 685.208 409.281 632.486 377.111C590.903 351.734 549.264 342.202 489.84 341.195C486.201 341.139 482.542 341.116 478.847 341.116C464.785 341.116 450.319 341.439 435.493 341.439C430.91 341.439 426.299 341.405 421.646 341.325C373.326 340.5 337.472 333.225 306.993 312.872C279.646 294.595 261.118 267.165 236.792 240.357C219.451 221.237 200.903 204.566 179.021 192.393C130.132 165.353 72.3959 149.412 13.9514 135.694C9.29163 134.603 4.64587 133.471 0 132.351V131.616C4.72217 132.759 9.45837 133.907 14.1875 135.016Z" fill="#6BB4DF"/>
<path opacity="0.65" d="M2.04163 132.753C60.875 144.151 119.729 157.609 169.347 183.981C191.549 195.849 210.417 212.378 227.771 231.878C252.104 259.206 269.236 287.111 294.875 306.005C323.465 327.031 357.632 335.511 407.5 336.546C412.597 336.653 417.653 336.693 422.66 336.693C438.528 336.693 453.91 336.286 468.785 336.286C471.153 336.286 473.514 336.303 475.854 336.325C534.715 337.027 575.84 346.089 617.91 374.101C669.097 408.178 705.34 455.464 786.5 482.498C806.104 489.026 822.472 491.52 837.104 491.52C874.229 491.526 900.292 475.444 939.535 468.463C966.618 463.655 992.264 462.144 1016.01 462.144C1044.84 462.144 1070.89 464.362 1093.34 465.561C1104.08 466.138 1114.5 466.523 1124.98 466.523C1158.01 466.523 1191.62 462.733 1237.69 449.258C1296.25 432.135 1350.38 398.873 1412.76 393.651C1421.6 392.916 1430.12 392.543 1438.42 392.543C1438.95 392.543 1439.47 392.554 1440 392.554V393.261C1439.47 393.255 1438.95 393.244 1438.42 393.244C1430.15 393.244 1421.65 393.618 1412.85 394.353C1350.79 399.529 1296.7 432.723 1237.99 449.92C1191.83 463.417 1158.09 467.224 1124.98 467.224C1114.47 467.224 1104.03 466.834 1093.28 466.268C1070.81 465.063 1044.78 462.851 1016.01 462.851C992.306 462.851 966.729 464.351 939.715 469.148C900.694 476.071 874.562 492.205 837.104 492.222C822.354 492.222 805.861 489.704 786.167 483.148C704.764 456.024 668.403 408.602 617.368 374.645C575.438 346.745 534.618 337.734 475.847 337.032C473.507 337.004 471.153 336.993 468.785 336.993C453.924 336.993 438.556 337.394 422.66 337.394C417.646 337.394 412.59 337.355 407.479 337.247C357.514 336.229 323.062 327.693 294.292 306.525C268.486 287.501 251.361 259.556 227.069 232.29C209.75 212.837 190.951 196.375 168.868 184.569C119.41 158.277 60.6459 144.825 1.84021 133.437C1.22913 133.319 0.611084 133.194 0 133.07V132.351C0.680542 132.481 1.36108 132.617 2.04163 132.753Z" fill="#6BB4DF"/>
<path opacity="0.65" d="M159.181 176.141C181.583 187.652 200.708 203.967 218.056 223.817C242.368 251.614 258.09 280.045 282.208 299.675C309.097 321.521 341.833 331.239 393.34 332.472C398.819 332.603 404.222 332.653 409.562 332.653C426.556 332.653 442.868 332.15 458.549 332.15C459.653 332.15 460.757 332.15 461.854 332.156C520.062 332.552 560.458 341.048 602.826 371.652C652.382 407.448 686.111 457.251 767.847 483.108C785.576 488.714 800.486 490.937 813.729 490.937C855.014 490.954 880.222 469.243 923.493 460.747C944.535 456.623 964.743 455.067 983.854 455.067C1021.22 455.067 1054.35 461.035 1081.17 465.504C1103.78 469.266 1124.65 472.157 1147.9 472.157C1171.39 472.157 1197.32 469.209 1229.94 461.222C1291.31 446.214 1347.62 411.821 1412.83 408.461C1418.43 408.172 1423.91 408.031 1429.26 408.031C1432.9 408.031 1436.47 408.099 1440 408.24V408.941C1436.47 408.806 1432.9 408.732 1429.26 408.732C1423.93 408.732 1418.47 408.879 1412.88 409.168C1348.02 412.483 1291.76 446.814 1230.19 461.901C1197.51 469.899 1171.49 472.858 1147.9 472.858C1124.56 472.858 1103.62 469.956 1080.99 466.189C1054.17 461.731 1021.11 455.774 983.854 455.774C964.799 455.774 944.66 457.324 923.701 461.431C880.701 469.832 855.444 491.616 813.729 491.639C800.368 491.639 785.34 489.393 767.535 483.764C685.5 457.805 651.653 407.838 602.25 372.178C560.028 341.699 519.972 333.27 461.847 332.863C460.757 332.857 459.653 332.851 458.549 332.851C442.889 332.851 426.576 333.355 409.562 333.355C404.215 333.355 398.799 333.304 393.319 333.174C341.701 331.946 308.653 322.16 281.597 300.178C257.333 280.402 241.618 251.948 217.354 224.224C200.056 204.425 180.993 188.178 158.722 176.735C111.569 152.676 55.7709 141.572 0 132.776V132.063C55.8541 140.865 111.826 151.98 159.181 176.141Z" fill="#6BB4DF"/>
<path opacity="0.65" d="M149.021 168.306C171.618 179.456 191.007 195.549 208.347 215.75C232.632 244.023 246.951 272.98 269.549 293.35C294.736 316.005 326.035 326.957 379.174 328.4C384.965 328.552 390.653 328.614 396.264 328.614C414.306 328.614 431.465 327.998 447.854 327.992C505.403 328.083 545.125 335.946 587.736 369.202C635.729 406.65 666.903 458.987 749.201 483.719C765.493 488.607 779.312 490.609 791.535 490.609C836.84 490.643 860.528 463.038 907.451 453.036C925.833 449.128 943.597 447.549 960.556 447.549C1003.03 447.549 1040.33 457.46 1068.97 465.442C1098.61 473.701 1124.78 480.285 1157.92 480.285C1176.53 480.285 1197.33 478.215 1222.19 473.192C1286.36 460.238 1344.86 424.775 1412.89 423.276C1415.35 423.219 1417.8 423.191 1420.21 423.191C1427.02 423.191 1433.6 423.417 1440 423.847V424.554C1433.6 424.124 1427.02 423.898 1420.21 423.898C1417.81 423.898 1415.38 423.921 1412.91 423.977C1345.25 425.442 1286.79 460.848 1222.4 473.876C1197.49 478.911 1176.6 480.992 1157.92 480.992C1124.63 480.992 1098.34 474.368 1068.7 466.115C1040.06 458.128 1002.86 448.256 960.556 448.256C943.667 448.256 925.972 449.823 907.674 453.721C861.09 463.586 837.34 491.282 791.535 491.311C779.194 491.311 765.278 489.291 748.903 484.375C666.271 459.536 634.979 407.012 587.139 369.711C544.66 336.591 505.326 328.801 447.854 328.699C431.486 328.699 414.333 329.322 396.264 329.322C390.653 329.322 384.944 329.259 379.146 329.107C325.889 327.67 294.236 316.633 268.91 293.825C246.174 273.308 231.868 244.339 207.639 216.152C190.347 196.013 171.042 179.993 148.576 168.911C104.285 147.229 52.1875 138.07 0 131.576V130.858C52.2709 137.363 104.528 146.533 149.021 168.306Z" fill="#6BB4DF"/>
<path opacity="0.65" d="M138.861 160.477C161.66 171.259 181.306 187.138 198.639 207.683C222.896 236.431 235.812 265.915 256.889 287.026C280.368 310.491 310.243 322.67 365.014 324.322C371.062 324.508 377.007 324.576 382.833 324.576C400.764 324.576 417.715 323.914 433.847 323.824C434.611 323.818 435.368 323.818 436.125 323.818C491.785 323.807 530.424 331.285 572.646 366.759C619.139 405.808 647.708 460.679 730.556 484.325C745.715 488.652 758.667 490.463 770.111 490.463C819.354 490.508 841.097 456.844 891.417 445.327C908.306 441.469 924.708 439.862 940.424 439.862C986.736 439.862 1027.12 453.818 1056.78 465.392C1091.38 478.889 1120.68 489.727 1163.03 489.727C1178.2 489.727 1195.06 488.336 1214.44 485.162C1281.07 474.278 1341.5 438.097 1411.9 438.08C1412.26 438.08 1412.6 438.08 1412.96 438.086C1422.4 438.131 1431.38 438.578 1440 439.393V440.106C1431.39 439.285 1422.4 438.838 1412.95 438.788C1412.6 438.788 1412.25 438.782 1411.9 438.782C1341.88 438.771 1281.49 474.901 1214.6 485.858C1195.18 489.037 1178.27 490.434 1163.03 490.434C1120.49 490.434 1091 479.522 1056.42 466.031C1026.78 454.463 986.521 440.564 940.424 440.564C924.778 440.564 908.458 442.159 891.646 446.006C841.722 457.348 819.931 491.124 770.111 491.164C758.556 491.164 745.507 489.337 730.264 484.992C647.056 461.223 618.368 406.131 572.028 367.246C529.924 331.919 491.715 324.531 436.125 324.525C435.368 324.525 434.611 324.525 433.847 324.531C417.75 324.621 400.792 325.278 382.833 325.278C376.993 325.278 371.049 325.21 364.986 325.029C310.083 323.388 279.826 311.096 256.215 287.467C235.014 266.214 222.111 236.731 197.924 208.091C180.646 187.601 161.09 171.802 138.424 161.082C97.0277 141.651 48.6389 134.088 0 129.523V128.81C48.7152 133.386 97.25 140.95 138.861 160.477Z" fill="#6BB4DF"/>
<path opacity="0.65" d="M128.694 152.641C151.688 163.055 171.597 178.731 188.924 199.621C213.153 228.833 224.674 258.854 244.222 280.701C266 304.98 294.444 318.381 350.847 320.248C357.132 320.457 363.271 320.531 369.292 320.531C387.153 320.531 403.938 319.835 419.84 319.66C421.771 319.643 423.667 319.631 425.535 319.631C478.708 319.62 516.104 326.94 557.549 364.309C602.611 404.919 628.535 462.33 711.903 484.935C726.146 488.793 738.389 490.439 749.222 490.439C802.375 490.49 821.847 450.655 875.375 437.61C891.368 433.724 906.924 432.078 921.882 432.078C971.375 432.083 1014.27 450.146 1044.59 465.34C1082.97 484.579 1114.34 499.954 1165.78 499.954C1178.14 499.954 1191.65 499.072 1206.69 497.137C1274.46 488.425 1335.75 452.816 1406.76 452.799C1408.84 452.799 1410.92 452.833 1413.01 452.895C1422.47 453.183 1431.43 453.851 1440 454.869V455.587C1431.42 454.552 1422.45 453.879 1412.99 453.596C1410.9 453.54 1408.83 453.506 1406.76 453.506C1336.12 453.494 1274.86 489.059 1206.81 497.833C1191.74 499.773 1178.19 500.661 1165.78 500.661C1114.11 500.667 1082.5 485.173 1044.13 465.945C1013.87 450.768 971.111 432.779 921.882 432.785C907 432.785 891.528 434.42 875.618 438.283C822.535 451.113 803.014 491.095 749.222 491.146C738.278 491.146 725.938 489.483 711.639 485.603C627.854 462.873 601.819 405.208 556.91 364.778C515.569 327.562 478.639 320.344 425.535 320.338C423.667 320.338 421.771 320.338 419.847 320.361C403.972 320.536 387.188 321.238 369.292 321.238C363.264 321.238 357.111 321.159 350.812 320.955C294.271 319.105 265.417 305.557 243.521 281.113C223.861 259.12 212.368 229.127 188.208 200.017C170.944 179.189 151.132 163.61 128.271 153.252C89.7777 135.942 45.1111 129.675 0 126.665V125.964C45.1875 128.973 89.993 135.247 128.694 152.641Z" fill="#6BB4DF"/>
<path opacity="0.65" d="M118.528 144.802C141.736 154.86 161.896 170.32 179.215 191.561C203.417 221.243 213.528 251.79 231.556 274.377C251.632 299.471 278.646 314.088 336.688 316.175C343.167 316.407 349.5 316.498 355.688 316.498C373.493 316.498 390.132 315.751 405.84 315.491C408.91 315.451 411.924 315.423 414.889 315.423C465.639 315.4 501.868 322.686 542.465 361.86C586.139 404.003 609.375 463.949 693.257 485.546C706.715 489.014 718.368 490.507 728.688 490.507C785.771 490.575 802.729 444.461 859.34 429.894C874.764 425.946 889.785 424.238 904.257 424.238C956.549 424.238 1001.6 446.463 1032.38 465.295C1073.82 490.632 1106.66 510.72 1167.38 510.725C1177.12 510.725 1187.6 510.21 1198.93 509.107C1267.89 502.432 1330.09 467.428 1401.76 467.411C1405.51 467.411 1409.28 467.512 1413.08 467.71C1422.52 468.208 1431.47 469.074 1440 470.296V471.008C1431.46 469.786 1422.49 468.91 1413.02 468.406C1409.24 468.208 1405.49 468.112 1401.76 468.112C1330.44 468.101 1268.28 503.077 1199.03 509.809C1187.66 510.912 1177.16 511.432 1167.38 511.432C1106.4 511.438 1073.26 491.186 1031.86 465.855C1001.15 447.057 956.236 424.939 904.257 424.945C889.868 424.945 874.938 426.63 859.597 430.568C803.472 444.879 786.479 491.152 728.688 491.214C718.271 491.214 706.521 489.698 693 486.219C608.667 464.48 585.333 404.258 541.806 362.318C501.312 323.292 465.556 316.147 414.889 316.124C411.931 316.124 408.924 316.147 405.854 316.192C390.174 316.452 373.528 317.205 355.688 317.205C349.486 317.205 343.146 317.114 336.653 316.877C278.458 314.823 251.007 300.025 230.826 274.762C212.701 252.021 202.618 221.52 178.493 191.952C161.243 170.784 141.181 155.42 118.125 145.424C82.5347 130.111 41.5834 124.375 0 122.599V121.892C41.6666 123.668 82.7639 129.415 118.528 144.802Z" fill="#6BB4DF"/>
<path opacity="0.65" d="M108.368 136.973C131.764 146.663 152.188 161.903 169.507 183.5C193.681 213.651 202.389 244.718 218.889 268.059C237.271 293.967 262.854 309.704 322.535 312.102C329.139 312.346 335.59 312.442 341.868 312.442C359.715 312.442 376.271 311.672 391.833 311.322C396.021 311.237 400.104 311.186 404.097 311.186C452.528 311.169 487.694 318.517 527.375 359.41C569.736 403.07 590.215 465.521 674.611 486.152C687.389 489.28 698.535 490.655 708.431 490.655C769.465 490.728 783.701 438.278 843.299 422.184C858.368 418.134 873.062 416.369 887.229 416.369C942.056 416.375 989.007 442.752 1020.17 465.244C1064.15 496.962 1098.11 521.886 1168.35 521.892C1175.56 521.892 1183.15 521.626 1191.17 521.083C1261.35 516.325 1324.48 481.937 1396.88 481.926C1402.24 481.926 1407.66 482.118 1413.14 482.52C1422.58 483.216 1431.51 484.268 1440 485.66V486.378C1431.49 484.981 1422.53 483.923 1413.06 483.216C1407.61 482.82 1402.22 482.627 1396.88 482.627C1324.82 482.611 1261.72 516.976 1191.25 521.79C1183.2 522.333 1175.59 522.593 1168.35 522.593C1097.83 522.605 1063.53 497.477 1019.6 465.764C988.507 443.33 941.701 417.065 887.229 417.071C873.146 417.071 858.556 418.818 843.569 422.852C784.493 438.657 770.222 491.282 708.431 491.356C698.431 491.356 687.215 489.97 674.361 486.831C589.479 466.053 568.91 403.29 526.694 359.846C487.104 319.111 452.438 311.91 404.097 311.893C400.111 311.893 396.042 311.938 391.854 312.029C376.306 312.368 359.743 313.143 341.868 313.143C335.576 313.143 329.118 313.053 322.486 312.804C262.66 310.439 236.59 294.487 218.139 268.409C201.556 244.928 192.868 213.911 168.778 183.885C151.535 162.372 131.229 147.234 107.979 137.601C75.3125 124.16 38.0486 119.731 0 118.814V118.119C38.125 119.029 75.5209 123.464 108.368 136.973Z" fill="#6BB4DF"/>
<path opacity="0.65" d="M98.2014 129.137C121.806 138.465 142.493 153.495 159.792 175.433C183.938 206.059 191.236 237.658 206.215 261.733C222.91 288.456 247.056 305.416 308.361 308.029C315.16 308.301 321.764 308.408 328.188 308.408C346 308.408 362.438 307.582 377.833 307.158C383.076 307.022 388.16 306.937 393.104 306.937C439.354 306.915 473.556 314.421 512.278 356.961C553.375 402.119 571.069 467.077 655.965 486.768C668.16 489.596 678.861 490.852 688.389 490.852C753.41 490.937 764.806 432.191 827.257 414.468C842.104 410.327 856.569 408.506 870.528 408.506C927.764 408.517 976.458 439.013 1007.96 465.187C1054.08 503.512 1088.97 533.351 1169.03 533.363C1173.67 533.363 1178.47 533.261 1183.42 533.057C1254.82 530.11 1318.9 496.373 1392.06 496.356C1399.01 496.356 1406.06 496.662 1413.2 497.329C1422.63 498.212 1431.53 499.445 1440 500.995V501.719C1431.51 500.158 1422.57 498.919 1413.1 498.031C1406 497.369 1398.98 497.058 1392.06 497.058C1319.23 497.041 1255.17 530.772 1183.47 533.759C1178.49 533.968 1173.69 534.064 1169.03 534.064C1088.67 534.076 1053.4 503.982 1007.34 465.679C975.917 439.556 927.368 409.207 870.528 409.213C856.66 409.213 842.292 411.017 827.542 415.136C765.632 432.525 754.201 491.474 688.389 491.554C678.764 491.554 667.993 490.286 655.729 487.447C570.306 467.597 552.542 402.3 511.583 357.379C472.931 314.993 439.257 307.661 393.104 307.639C388.167 307.639 383.097 307.724 377.861 307.865C362.479 308.284 346.035 309.11 328.188 309.11C321.757 309.11 315.132 308.996 308.319 308.731C246.854 306.162 222.174 288.948 205.451 262.05C190.403 237.833 183.118 206.302 159.062 175.812C141.833 153.965 121.278 139.037 97.8334 129.771C68.0972 118.089 34.493 114.288 0 113.971V113.27C34.5695 113.587 68.3055 117.388 98.2014 129.137Z" fill="#6BB4DF"/>
<path opacity="0.65" d="M0.076416 107.885C31.0416 107.885 61.1111 111.212 88.0416 121.298C111.833 130.264 132.792 145.085 150.076 167.367C174.201 198.463 180.097 230.588 193.549 255.416C208.535 282.947 231.264 301.128 294.201 303.957C301.167 304.251 307.917 304.37 314.472 304.37C332.271 304.37 348.59 303.499 363.826 302.995C370.049 302.791 376.056 302.661 381.861 302.661C426.111 302.639 459.438 310.377 497.181 354.512C537.076 401.158 551.917 468.599 637.319 487.38C648.965 489.942 659.25 491.09 668.444 491.09C737.514 491.187 745.903 425.997 811.222 406.758C825.958 402.471 840.333 400.587 854.201 400.587C913.66 400.592 963.951 435.263 995.729 465.137C1043.72 510.222 1079.42 545.068 1169.56 545.079C1171.57 545.079 1173.6 545.068 1175.67 545.034C1248.39 543.818 1313.45 510.765 1387.49 510.748C1395.96 510.748 1404.53 511.178 1413.26 512.145C1422.67 513.214 1431.56 514.617 1440 516.331V517.061C1431.52 515.335 1422.6 513.916 1413.14 512.841C1404.46 511.885 1395.92 511.455 1387.49 511.455C1313.78 511.438 1248.72 544.479 1175.68 545.735C1173.62 545.775 1171.58 545.786 1169.56 545.786C1079.1 545.803 1043 510.663 995.076 465.601C963.375 435.778 913.222 401.277 854.201 401.288C840.424 401.288 826.16 403.161 811.514 407.42C746.764 426.297 738.347 491.701 668.444 491.798C659.16 491.798 648.806 490.632 637.09 488.058C551.132 469.114 536.222 401.305 496.472 354.914C458.778 310.926 425.993 303.385 381.861 303.363C376.062 303.363 370.083 303.499 363.861 303.697C348.646 304.206 332.306 305.071 314.472 305.071C307.91 305.071 301.146 304.952 294.153 304.658C231.042 301.881 207.771 283.411 192.764 255.698C179.243 230.735 173.368 198.7 149.347 167.746C132.132 145.554 111.319 130.847 87.6736 121.943C60.9097 111.907 30.9722 108.581 0.076416 108.581C0.048584 108.581 0.02771 108.587 0 108.587V107.885C0.02771 107.885 0.048584 107.885 0.076416 107.885Z" fill="#6BB4DF"/>
<path opacity="0.65" d="M1.50696 102.065C28.3611 102.065 54.3334 105.063 77.875 113.469C101.875 122.067 123.083 136.667 140.368 159.306C164.465 190.871 168.944 223.528 180.882 249.091C194.167 277.449 215.465 296.835 280.035 299.878C287.16 300.201 294.042 300.331 300.708 300.331C318.507 300.331 334.736 299.414 349.826 298.826C356.938 298.555 363.764 298.362 370.347 298.362C412.771 298.34 445.312 306.367 482.076 352.062C520.812 400.196 532.771 470.092 618.674 487.99C629.812 490.31 639.708 491.362 648.59 491.362C721.771 491.464 727.035 419.814 795.188 399.042C809.896 394.607 824.236 392.639 838.083 392.639C899.681 392.656 951.465 431.484 983.514 465.08C1032.76 516.704 1069.03 556.427 1167.9 557.004C1168.39 557.004 1168.87 557.009 1169.35 557.009C1242.72 557.026 1308.34 525.048 1382.64 525.037C1392.7 525.037 1402.91 525.625 1413.32 526.96C1422.72 528.177 1431.58 529.738 1440 531.588V532.317C1431.54 530.451 1422.64 528.884 1413.18 527.65C1402.82 526.321 1392.65 525.744 1382.64 525.744C1308.65 525.727 1243.03 557.7 1169.35 557.711C1168.86 557.711 1168.39 557.711 1167.9 557.711C1068.68 557.162 1032.01 517.1 982.826 465.51C950.854 431.982 899.201 393.335 838.083 393.346C824.34 393.346 810.104 395.298 795.486 399.704C727.924 420.069 722.653 491.961 648.59 492.069C639.632 492.069 629.66 491.005 618.451 488.675C531.958 470.601 519.958 400.315 481.368 352.447C444.625 306.898 412.639 299.092 370.347 299.069C363.778 299.069 356.972 299.256 349.861 299.528C334.792 300.116 318.542 301.032 300.708 301.032C294.028 301.032 287.132 300.908 279.993 300.585C215.229 297.604 193.361 277.868 180.076 249.346C168.097 223.647 163.618 191.086 139.632 159.679C122.431 137.143 101.368 122.655 77.5277 114.114C54.132 105.764 28.2847 102.772 1.50696 102.772C1 102.772 0.5 102.777 0 102.783V102.076C0.5 102.076 1 102.065 1.50696 102.065Z" fill="#6BB4DF"/>
<path opacity="0.65" d="M0.631958 95.9034C24.1805 95.9034 46.9027 98.5624 67.7152 105.639C91.9097 113.869 113.382 128.255 130.653 151.238C154.722 183.279 157.806 216.462 168.208 242.766C179.806 271.938 199.674 292.552 265.875 295.799C273.153 296.149 280.16 296.291 286.924 296.291C304.736 296.291 320.875 295.323 335.819 294.656C343.736 294.305 351.299 294.045 358.562 294.045C399.347 294.017 431.188 302.372 466.993 349.612C504.597 399.234 513.618 471.574 600.028 488.601C610.701 490.699 620.229 491.667 628.826 491.667C706.167 491.774 708.208 413.625 779.153 391.332C793.882 386.738 808.243 384.69 822.118 384.69C885.778 384.707 938.986 427.688 971.292 465.029C1020.7 522.151 1057.07 566.212 1160.15 568.984C1162.47 569.04 1164.77 569.069 1167.06 569.069C1239.47 569.086 1304.59 539.274 1377.81 539.263C1389.44 539.263 1401.28 540.021 1413.38 541.769C1422.76 543.132 1431.6 544.824 1440 546.798V547.539C1431.56 545.542 1422.67 543.834 1413.22 542.459C1401.17 540.722 1389.4 539.97 1377.81 539.97C1304.89 539.953 1239.76 569.765 1167.06 569.776C1164.76 569.776 1162.44 569.742 1160.12 569.685C1056.69 566.942 1019.92 522.519 970.583 465.436C938.354 428.163 885.271 385.381 822.118 385.392C808.354 385.392 794.097 387.423 779.465 391.988C709.118 413.851 707.076 492.255 628.826 492.368C620.153 492.368 610.549 491.401 599.819 489.285C512.778 472.071 503.736 399.325 466.257 349.986C430.472 302.887 399.194 294.775 358.562 294.746C351.319 294.746 343.778 295.007 335.861 295.363C320.931 296.031 304.771 296.992 286.924 296.992C280.139 296.992 273.125 296.856 265.819 296.506C199.417 293.321 178.951 272.323 167.389 242.987C156.944 216.546 153.875 183.477 129.917 151.612C112.722 128.736 91.4166 114.469 67.382 106.284C46.7084 99.2584 24.1041 96.6053 0.631958 96.6053C0.423584 96.6053 0.208374 96.6104 0 96.6104V95.9094C0.208374 95.9094 0.423584 95.9034 0.631958 95.9034Z" fill="#6BB4DF"/>
<path opacity="0.65" d="M120.938 143.178C146.299 177.459 146.771 213.074 157.062 240.815C167.375 268.539 187.208 288.434 251.715 291.732C259.125 292.106 266.257 292.253 273.118 292.253C301.326 292.253 325.132 289.707 346.528 289.707C385.833 289.685 417.042 298.402 451.889 347.17C488.424 398.285 494.472 473.028 581.375 489.213C591.604 491.113 600.792 491.996 609.097 491.996C690.681 492.115 689.403 407.449 763.118 383.617C777.924 378.859 792.34 376.732 806.278 376.732C871.951 376.744 926.528 423.871 959.056 464.973C1008.62 527.571 1045.14 575.982 1152.39 580.96C1156.51 581.147 1160.61 581.232 1164.69 581.232C1236.16 581.249 1300.78 553.451 1372.97 553.44C1386.18 553.44 1399.64 554.379 1413.43 556.579C1422.81 558.079 1431.62 559.894 1440 561.987V562.728C1431.58 560.613 1422.7 558.786 1413.26 557.275C1399.53 555.075 1386.13 554.147 1372.97 554.147C1301.07 554.136 1236.44 581.928 1164.69 581.945C1160.6 581.945 1156.48 581.854 1152.34 581.662C1044.71 576.701 1007.82 527.911 958.333 465.358C925.875 424.323 871.403 377.417 806.278 377.434C792.451 377.434 778.139 379.538 763.431 384.273C690.34 407.63 691.611 492.578 609.097 492.697C600.708 492.697 591.465 491.809 581.188 489.897C493.59 473.515 487.556 398.341 451.146 347.52C416.312 298.894 385.653 290.437 346.528 290.414C325.208 290.409 301.389 292.96 273.118 292.96C266.236 292.96 259.097 292.807 251.66 292.434C186.965 289.204 166.528 268.93 156.229 241.019C145.91 213.125 145.431 177.634 120.201 143.546C90.368 103.23 47.2986 90.5193 0 90.1853V89.4843C47.4722 89.7953 90.9652 102.636 120.938 143.178Z" fill="#6BB4DF"/>
<path opacity="0.65" d="M334.347 442.962C344.757 442.962 355.333 442.611 366.062 441.882C427.715 437.673 489.479 430.166 548.632 415.283C608.701 400.174 665.361 383.051 729.201 381.365C735.618 381.195 742.035 381.11 748.444 381.11C842.278 381.116 935.764 398.064 1029.37 398.058C1049.61 398.058 1069.86 397.266 1090.11 395.343C1201.12 384.821 1291.1 320.967 1384.89 275.955C1400.22 268.602 1419.35 258.165 1440 248.893V250.234C1419.68 259.392 1400.81 269.665 1385.61 276.968C1291.98 321.878 1201.88 385.896 1090.28 396.514C1069.96 398.443 1049.65 399.235 1029.37 399.235C935.542 399.229 842.062 382.281 748.444 382.281C742.049 382.281 735.653 382.366 729.25 382.536C665.708 384.21 609.188 401.277 549.069 416.403C489.757 431.32 427.896 438.838 366.181 443.047C355.41 443.788 344.799 444.139 334.347 444.139C210.069 444.116 107.493 394.528 0 350.569V349.262C107.792 393.295 210.333 442.979 334.347 442.962Z" fill="#404C98"/>
<path opacity="0.65" d="M314.729 448.348C324.035 448.348 333.458 448.076 343.021 447.499C406.757 443.692 469.868 435.795 530.806 420.046C591.729 404.394 649.326 386.354 713.646 383.515C724.16 383.051 734.674 382.841 745.188 382.841C830.132 382.847 914.847 396.316 999.722 396.31C1021.88 396.31 1044.05 395.394 1066.24 393.086C1178.22 381.433 1268.07 316.9 1365.83 276.702C1386.85 268.064 1412.73 256.66 1440 248.209V249.465C1413.04 257.865 1387.38 269.15 1366.47 277.749C1268.93 317.822 1178.98 382.502 1066.42 394.246C1044.16 396.565 1021.93 397.481 999.722 397.481C914.667 397.476 829.938 384.012 745.188 384.018C734.701 384.018 724.215 384.222 713.722 384.691C649.701 387.508 592.215 405.491 531.25 421.167C470.16 436.949 406.938 444.852 343.118 448.676C333.528 449.247 324.076 449.519 314.729 449.519C198.125 449.507 100.465 406.617 0 365.554V364.242C100.715 405.384 198.333 448.365 314.729 448.348Z" fill="#404C98"/>
<path opacity="0.65" d="M295.111 453.761C303.299 453.761 311.583 453.557 319.965 453.127C385.799 449.722 450.25 441.418 512.986 424.815C574.75 408.614 633.271 389.692 698.076 385.67C712.688 384.759 727.285 384.38 741.882 384.38C817.764 384.385 893.535 394.624 969.472 394.624C993.75 394.624 1018.05 393.578 1042.38 390.817C1155.33 378.022 1245.85 313.641 1346.76 277.449C1373.78 267.776 1406.39 256.27 1440 249.646V250.85C1406.68 257.458 1374.25 268.879 1347.34 278.529C1246.69 314.58 1156.09 379.085 1042.58 391.983C1018.17 394.755 993.806 395.795 969.472 395.795C893.382 395.795 817.604 385.551 741.882 385.557C727.312 385.557 712.757 385.93 698.188 386.835C633.66 390.834 575.25 409.711 513.431 425.929C450.556 442.572 385.979 450.893 320.062 454.293C311.646 454.728 303.326 454.938 295.111 454.938C186.201 454.92 93.6666 418.179 0 380.381V379.074C93.875 416.946 186.382 453.778 295.111 453.761Z" fill="#404C98"/>
<path opacity="0.65" d="M275.479 459.214C282.556 459.214 289.701 459.061 296.924 458.744C364.854 455.774 430.646 447.04 495.16 429.577C557.771 412.833 617.194 393.046 682.514 387.819C701.333 386.314 720.153 385.726 738.965 385.726C805.354 385.731 871.743 393.023 938.278 393.017C964.993 393.017 991.729 391.841 1018.51 388.56C1132.46 374.587 1224.13 310.971 1327.69 278.206C1360.97 267.69 1400.28 256.755 1440 252.62V253.797C1400.53 257.926 1361.38 268.81 1328.22 279.303C1224.96 311.932 1133.2 375.645 1018.72 389.719C991.854 393.017 965.049 394.188 938.278 394.188C871.611 394.188 805.222 386.902 738.965 386.902C720.188 386.902 701.424 387.485 682.653 388.99C617.604 394.183 558.278 413.925 495.604 430.686C430.958 448.194 365.028 456.94 297 459.915C289.757 460.237 282.583 460.379 275.479 460.379C174.299 460.373 87.0834 429.221 0 394.952V393.645C87.2639 427.988 174.444 459.225 275.479 459.214Z" fill="#404C98"/>
<path opacity="0.65" d="M255.868 464.689C261.819 464.689 267.826 464.582 273.875 464.367C343.91 461.838 410.986 452.555 477.333 434.346C540.75 416.94 601.097 396.434 666.958 389.968C690.326 387.677 713.708 386.874 737.097 386.868C793.167 386.874 849.292 391.513 905.549 391.507C935.208 391.513 964.896 390.223 994.639 386.297C1109.59 371.125 1202.73 308.753 1308.62 278.964C1348.36 267.792 1394.33 257.943 1440 256.744V257.915C1394.57 259.114 1348.74 268.929 1309.09 280.073C1203.53 309.732 1110.32 372.189 994.868 387.457C965.028 391.394 935.257 392.684 905.549 392.684C849.188 392.684 793.062 388.039 737.097 388.045C713.75 388.039 690.431 388.854 667.125 391.139C601.535 397.565 541.271 418.032 477.799 435.455C411.312 453.704 344.09 463.009 273.938 465.538C267.868 465.753 261.84 465.86 255.868 465.86C162.396 465.849 80.6805 439.743 0 409.162V407.867C80.8264 438.515 162.514 464.695 255.868 464.689Z" fill="#404C98"/>
<path opacity="0.65" d="M236.271 470.194C241.097 470.194 245.944 470.132 250.833 469.991C322.972 467.92 391.368 458.168 459.514 439.11C523.764 421.15 584.986 399.852 651.389 392.13C680.09 388.787 708.812 387.78 737.569 387.774C781.653 387.78 825.826 390.15 870.09 390.15C903.59 390.15 937.139 388.793 970.771 384.035C1086.73 367.636 1181.52 306.865 1289.54 279.729C1331.19 269.269 1377.83 261.468 1424.17 261.468C1429.45 261.468 1434.74 261.57 1440 261.78V262.956C1434.74 262.741 1429.45 262.639 1424.17 262.639C1378.02 262.639 1331.53 270.412 1289.97 280.843C1182.28 307.866 1087.44 368.699 971.014 385.189C937.278 389.963 903.639 391.321 870.09 391.321C825.764 391.321 781.59 388.951 737.569 388.951C708.854 388.951 680.194 389.963 651.597 393.29C585.438 400.983 524.292 422.236 459.979 440.219C391.694 459.311 323.153 469.091 250.882 471.162C245.979 471.297 241.118 471.365 236.271 471.365C150.472 471.36 74.4305 449.756 0 422.937V421.653C74.5486 448.54 150.569 470.206 236.271 470.194Z" fill="#404C98"/>
<path opacity="0.65" d="M216.729 475.721C220.396 475.721 224.083 475.687 227.785 475.608C302.042 474.024 371.75 463.779 441.688 443.873C506.771 425.352 568.868 403.308 635.833 394.279C671.819 389.426 707.882 388.374 744.028 388.374C772.083 388.374 800.181 389.007 828.326 389.007C867.743 389.007 907.271 387.763 946.91 381.778C1063.86 364.123 1160.43 305.241 1270.47 280.487C1310.6 271.47 1354.1 265.547 1397.58 265.541C1411.76 265.541 1425.94 266.181 1440 267.544V268.726C1425.94 267.357 1411.77 266.718 1397.58 266.718C1354.26 266.712 1310.88 272.618 1270.85 281.618C1161.16 306.254 1064.55 365.181 947.167 382.926C907.396 388.934 867.785 390.178 828.326 390.178C800.146 390.178 772.056 389.539 744.028 389.545C707.917 389.539 671.938 390.603 636.062 395.439C569.333 404.433 507.319 426.439 442.16 444.982C372.09 464.922 302.215 475.195 227.826 476.784C224.104 476.858 220.41 476.897 216.729 476.897C138.542 476.892 68.3125 459.282 0 436.197V434.929C68.3959 458.072 138.611 475.732 216.729 475.721Z" fill="#404C98"/>
<path opacity="0.65" d="M183.16 481.723C190.278 481.723 197.458 481.564 204.708 481.236C281.007 477.735 352.153 469.391 423.861 448.642C489.799 429.567 552.743 406.798 620.271 396.435C720.312 381.088 821.271 395.875 923.035 379.51C1041 360.565 1139.41 303.81 1251.38 281.25C1289.52 273.574 1329.86 268.992 1370.28 268.992C1393.63 268.986 1417.01 270.536 1440 273.879V275.073C1417.01 271.713 1393.65 270.163 1370.28 270.157C1329.99 270.157 1289.76 274.728 1251.73 282.387C1140.11 304.851 1041.67 361.628 923.312 380.664C821.208 397.057 720.229 382.27 620.535 397.589C553.229 407.918 490.34 430.647 424.34 449.745C352.465 470.545 281.167 478.9 204.792 482.402C197.514 482.73 190.306 482.899 183.16 482.899C118.049 482.888 58.1527 469.487 0 450.887V449.62C58.2152 468.288 118.111 481.734 183.16 481.723Z" fill="#404C98"/>
<path opacity="0.65" d="M162.458 487.237C168.812 487.237 175.208 487.113 181.66 486.853C260.097 483.685 332.542 475.002 406.035 453.404C472.812 433.78 536.611 410.338 604.701 398.589C701.785 381.851 800.049 394.154 899.167 377.246C1018.14 356.983 1118.43 302.542 1232.31 282.013C1268.2 275.547 1305.51 271.932 1342.89 271.932C1375.49 271.932 1408.16 274.699 1440 280.689V281.894C1408.17 275.881 1375.51 273.109 1342.89 273.109C1305.62 273.103 1268.42 276.707 1232.62 283.156C1119.09 303.599 1018.78 358.052 899.465 378.394C800.007 395.331 701.743 383.033 605 399.738C537.111 411.447 473.375 434.855 406.528 454.507C332.861 476.161 260.25 484.85 181.729 488.024C175.25 488.284 168.833 488.414 162.458 488.414C105.125 488.408 51.743 478.13 0 463.128V461.883C51.7986 476.936 105.174 487.243 162.458 487.237Z" fill="#404C98"/>
<path opacity="0.65" d="M142.014 492.753C147.507 492.753 153.042 492.663 158.611 492.476C239.194 489.698 312.931 480.63 388.201 458.173C455.833 437.995 520.486 413.92 589.139 400.745C683.264 382.694 778.806 392.395 875.299 374.984C995.271 353.363 1097.47 301.4 1213.22 282.772C1246.79 277.375 1281.23 274.502 1315.7 274.502C1357.57 274.496 1399.49 278.756 1440 287.891V289.108C1399.51 279.949 1357.59 275.673 1315.7 275.673C1281.33 275.673 1246.99 278.541 1213.51 283.926C1098.08 302.469 995.882 354.438 875.611 376.132C778.799 393.578 683.257 383.882 589.472 401.882C521.007 415.017 456.396 439.075 388.701 459.276C313.25 481.784 239.34 490.869 158.667 493.641C153.083 493.833 147.535 493.93 142.014 493.93C92.2639 493.924 45.4236 486.293 0 474.606V473.378C45.4584 485.105 92.3055 492.764 142.014 492.753Z" fill="#404C98"/>
<path opacity="0.65" d="M121.875 498.285C126.41 498.285 130.972 498.223 135.562 498.093C218.292 495.785 293.312 486.253 370.382 462.936C438.854 442.22 504.368 417.54 573.576 402.894C664.757 383.616 757.562 390.602 851.431 372.721C972.396 349.709 1076.5 300.364 1194.15 283.54C1225.35 279.077 1257.08 276.769 1288.79 276.769C1339.93 276.769 1391.05 282.794 1440 295.442V296.676C1391.06 283.982 1339.95 277.94 1288.79 277.94C1257.17 277.94 1225.53 280.242 1194.38 284.694C1077.08 301.45 972.986 350.778 851.757 373.869C757.59 391.784 664.799 384.804 573.938 404.031C504.903 418.643 439.424 443.29 370.882 464.039C293.653 487.402 218.444 496.95 135.611 499.27C131.007 499.394 126.431 499.462 121.875 499.462C79.507 499.456 39.1736 494.003 0 485.286V484.07C39.1945 492.821 79.5277 498.285 121.875 498.285Z" fill="#404C98"/>
<path opacity="0.65" d="M102.076 503.823C105.542 503.823 109.021 503.789 112.514 503.716C197.396 501.945 273.708 491.882 352.556 467.704C421.889 446.44 488.264 421.217 558.014 405.055C646.264 384.617 736.299 388.775 827.562 370.458C949.507 346.015 1055.53 299.408 1175.06 284.304C1203.91 280.655 1233.03 278.806 1262.11 278.806C1322.54 278.806 1382.78 286.821 1440 303.277V304.516C1382.81 288.02 1322.56 279.982 1262.11 279.976C1233.1 279.976 1204.06 281.826 1175.27 285.464C1056.06 300.511 950.076 347.089 827.903 371.6C736.375 389.957 646.347 385.799 558.403 406.181C488.799 422.308 422.451 447.515 353.062 468.802C274.049 493.036 197.549 503.116 112.549 504.887C109.049 504.96 105.556 504.994 102.076 504.994C66.8541 504.994 32.9861 501.3 0 495.134V493.929C33 500.118 66.868 503.829 102.076 503.823Z" fill="#404C98"/>
<path opacity="0.65" d="M89.493 509.339C94.5277 509.441 99.5209 509.486 104.493 509.486C185.458 509.486 258.736 496.074 334.729 472.468C404.91 450.667 472.174 424.951 542.451 407.205C627.792 385.675 715.035 386.92 803.694 368.201C926.611 342.271 1034.53 298.521 1155.97 285.069C1182.44 282.133 1209.03 280.668 1235.56 280.668C1305.35 280.668 1374.67 290.867 1440 311.35V312.612C1374.69 292.066 1305.37 281.839 1235.56 281.839C1209.09 281.839 1182.57 283.304 1156.16 286.228C1035.03 299.641 927.153 343.357 804.056 369.338C715.153 388.091 627.924 386.858 542.875 408.331C472.722 426.031 405.486 451.736 335.243 473.56C259.139 497.205 185.66 510.663 104.493 510.663C99.507 510.663 94.5 510.612 89.4584 510.51C58.7361 509.888 29.0139 506.912 0 502.24V501.046C29.0347 505.736 58.7639 508.717 89.493 509.339Z" fill="#404C98"/>
<path opacity="0.65" d="M66.4514 514.956C72.9722 515.137 79.4375 515.216 85.8541 515.216C167.118 515.216 240.507 501.261 316.91 477.231C387.931 454.892 456.111 428.735 526.889 409.366C609.347 386.806 693.757 385.024 779.826 365.938C903.688 338.486 1013.51 297.699 1136.88 285.831C1160.93 283.518 1185.01 282.364 1209.01 282.364C1288.28 282.364 1366.67 294.933 1440 319.62V320.893C1366.68 296.138 1288.3 283.54 1209.01 283.54C1185.07 283.54 1161.04 284.683 1137.06 286.997C1013.97 298.831 904.215 339.577 780.201 367.075C693.917 386.195 609.535 387.983 527.347 410.48C456.674 429.815 388.521 455.967 317.431 478.322C240.91 502.392 167.326 516.398 85.8541 516.398C79.4236 516.398 72.9375 516.302 66.3959 516.132C43.7916 515.521 21.6945 513.677 0 510.86V509.678C21.7152 512.506 43.8264 514.35 66.4514 514.956Z" fill="#404C98"/>
<path opacity="0.65" d="M43.4027 520.579C51.3472 520.845 59.2084 520.975 66.993 520.975C148.625 520.975 222.201 506.46 299.083 482C370.965 459.124 440.076 432.582 511.326 411.522C590.938 387.995 672.465 383.108 755.958 363.682C880.764 334.651 992.472 296.925 1117.79 286.602C1139.37 284.82 1160.91 283.943 1182.38 283.943C1271.27 283.943 1358.72 299.041 1440 328.089V329.368C1358.74 300.252 1271.28 285.114 1182.38 285.114C1160.96 285.114 1139.46 285.991 1117.94 287.761C992.889 298.062 881.257 335.749 756.354 364.808C672.674 384.273 591.174 389.166 511.819 412.625C440.653 433.651 371.549 460.193 299.611 483.092C222.618 507.586 148.833 522.152 66.993 522.152C59.1875 522.152 51.3055 522.016 43.3472 521.75C28.7014 521.264 14.2639 520.263 0 518.843V517.66C14.2847 519.086 28.743 520.087 43.4027 520.579Z" fill="#404C98"/>
<path opacity="0.65" d="M20.3541 526.202C29.7222 526.581 38.9652 526.768 48.1041 526.768C130.104 526.768 203.951 511.777 281.257 486.763C354.049 463.463 424.083 436.491 495.757 413.677C572.549 389.24 651.153 381.167 732.09 361.419C857.806 330.759 971.403 296.184 1098.71 287.36C1117.71 286.042 1136.68 285.397 1155.56 285.397C1254.24 285.397 1350.81 303.182 1440 336.716V338.011C1350.83 304.398 1254.25 286.562 1155.56 286.562C1136.72 286.562 1117.79 287.213 1098.83 288.531C971.778 297.333 858.278 331.862 732.5 362.545C651.417 382.316 572.861 390.399 496.285 414.769C424.674 437.555 354.639 464.538 281.792 487.855C204.382 512.909 130.326 527.945 48.1041 527.945C38.9445 527.945 29.6736 527.752 20.2847 527.379C13.4791 527.096 6.72913 526.689 0 526.219V525.043C6.75 525.518 13.5209 525.925 20.3541 526.202Z" fill="#404C98"/>
<path opacity="0.65" d="M28.8889 532.578C111.361 532.578 185.528 516.993 263.431 491.526C337.076 467.682 408.139 440.462 480.201 415.832C554.215 390.54 629.826 379.187 708.222 359.162C834.826 326.816 950.306 295.489 1079.62 288.123C1095.97 287.196 1112.26 286.737 1128.49 286.737C1237.14 286.737 1342.9 307.351 1440 345.489V346.79C1342.91 308.567 1237.15 287.908 1128.49 287.908C1112.29 287.908 1096.03 288.367 1079.72 289.3C950.632 296.643 835.271 327.925 708.646 360.276C630.146 380.33 554.583 391.683 480.75 416.912C408.736 441.525 337.66 468.757 263.972 492.618C185.965 518.107 111.59 533.749 28.8889 533.749C19.375 533.749 9.75696 533.528 0 533.115V531.933C9.75696 532.357 19.382 532.578 28.8889 532.578Z" fill="#404C98"/>
<path opacity="0.65" d="M9.52087 538.41C92.5139 538.41 167.069 522.203 245.611 496.295C320.104 471.902 392.25 444.501 464.632 417.999C535.924 391.887 608.486 377.19 684.347 356.899C811.806 322.805 929.174 294.815 1060.53 288.887C1074.09 288.282 1087.62 287.976 1101.09 287.976C1219.93 287.976 1334.95 311.537 1440 354.393V355.706C1334.97 312.753 1219.93 289.153 1101.09 289.153C1087.65 289.153 1074.15 289.453 1060.61 290.064C929.458 295.975 812.236 323.925 684.799 358.008C608.868 378.322 536.361 393.007 465.222 419.056C392.847 445.57 320.688 472.977 246.153 497.381C167.507 523.329 92.75 539.581 9.52087 539.581C6.36108 539.581 3.1875 539.552 0 539.507V538.331C3.1875 538.381 6.36804 538.41 9.52087 538.41Z" fill="#404C98"/>
<path opacity="0.65" d="M227.785 501.057C303.132 476.116 376.424 448.613 449.069 420.148C517.681 393.267 587.118 375.17 660.479 354.636C788.757 318.732 908.007 294.17 1041.44 289.656C1052.1 289.3 1062.72 289.119 1073.31 289.119C1202.55 289.119 1326.97 315.728 1440 363.398V364.722C1326.98 316.956 1202.56 290.29 1073.31 290.29C1062.74 290.29 1052.14 290.471 1041.5 290.833C908.25 295.341 789.16 319.858 660.951 355.745C587.569 376.285 518.188 394.37 449.688 421.206C377.035 449.682 303.708 477.191 228.333 502.144C152.181 527.498 79.8195 544.072 0 545.345V544.18C79.5764 542.896 151.729 526.378 227.785 501.057Z" fill="#404C98"/>
<path opacity="0.65" d="M209.965 505.826C286.16 480.337 360.667 452.799 433.507 422.309C499.486 394.687 565.736 373.128 636.611 352.373C765.667 314.586 886.819 293.548 1022.35 290.426C1029.96 290.245 1037.55 290.16 1045.12 290.16C1184.99 290.16 1318.91 319.92 1440 372.506V373.835C1318.93 321.153 1185 291.331 1045.12 291.331C1037.56 291.331 1029.99 291.416 1022.4 291.597C887.021 294.719 766.049 315.723 637.097 353.477C566.25 374.226 500.069 395.761 434.167 423.35C361.285 453.857 286.743 481.406 210.507 506.913C139.951 530.603 72.757 547.036 0 550.589V549.418C72.5209 545.865 139.507 529.478 209.965 505.826Z" fill="#404C98"/>
<path opacity="0.65" d="M192.139 510.595C269.188 484.557 345 457.059 417.944 424.47C481.361 396.129 544.34 371.064 612.743 350.117C742.521 310.372 865.597 292.943 1003.26 291.189C1007.67 291.127 1012.07 291.104 1016.46 291.104C1167.22 291.104 1310.78 324.123 1440 381.716V383.051C1310.79 325.357 1167.23 292.275 1016.46 292.275C1012.07 292.275 1007.69 292.304 1003.28 292.36C865.75 294.12 742.882 311.514 613.25 351.214C544.924 372.139 482.014 397.176 418.632 425.494C345.618 458.117 269.764 485.632 192.688 511.676C127.826 533.63 65.9097 549.695 0 555.165V553.989C65.6666 548.518 127.396 532.51 192.139 510.595Z" fill="#404C98"/>
<path opacity="0.65" d="M174.312 515.353C252.215 488.771 329.417 461.392 402.382 426.625C463.292 397.6 522.903 368.988 588.868 347.854C719.333 306.067 844.34 292.355 984.174 291.953C985.222 291.947 986.264 291.947 987.312 291.947C1149.2 291.947 1302.56 328.309 1440 390.998V392.339C1302.58 329.548 1149.21 293.124 987.312 293.124C986.271 293.124 985.222 293.124 984.181 293.124C844.458 293.537 719.66 307.221 589.396 348.951C523.569 370.034 464.021 398.607 403.104 427.638C330.049 462.455 252.785 489.846 174.868 516.439C115.812 536.588 59.257 552.054 0 559.052V557.864C59.0209 550.877 115.389 535.463 174.312 515.353Z" fill="#404C98"/>
<path opacity="0.65" d="M291.465 521.903C323.312 517.095 354.535 515.047 385.403 515.047C467.889 515.047 547.889 529.676 630.771 545.492C713.549 561.286 795.361 576.118 877.868 576.118C922.153 576.118 966.632 571.842 1011.58 561.167C1132.26 532.476 1246.31 474.793 1340.66 407.777C1381.49 378.763 1414.06 347.701 1440 312.346V313.477C1414.12 348.544 1381.69 379.408 1341.13 408.218C1246.72 475.28 1132.59 533.007 1011.78 561.722C966.764 572.424 922.208 576.701 877.868 576.701C795.257 576.701 713.389 561.857 630.604 546.063C547.729 530.247 467.778 515.63 385.403 515.635C354.569 515.635 323.396 517.677 291.597 522.48C192.674 537.403 97.5277 554.617 0 563.617V563.023C97.4445 554.023 192.549 536.826 291.465 521.903Z" fill="#3A6A86"/>
<path opacity="0.65" d="M198.701 534.693C229.778 530.767 261.007 526.757 292.604 522.972C318.25 519.889 343.493 518.526 368.5 518.526C456.736 518.526 541.91 535.468 630.639 553.197C715.271 570.275 799.326 585.706 884.174 585.706C928.285 585.706 972.618 581.532 1017.35 571.259C1138.94 543.201 1253.38 486.276 1348.2 419.396C1384.87 393.516 1415.09 365.927 1440 335.103V336.156C1415.17 366.731 1385.09 394.138 1348.67 419.831C1253.78 486.763 1139.27 543.733 1017.55 571.819C972.743 582.114 928.347 586.289 884.174 586.289C799.215 586.289 715.104 570.846 630.465 553.762C541.743 536.034 456.625 519.114 368.5 519.114C343.528 519.114 318.319 520.466 292.708 523.561C261.111 527.334 229.882 531.344 198.812 535.27C132.451 543.586 66.8334 551.822 0 556.653V556.065C66.7777 551.239 132.361 543.009 198.701 534.693Z" fill="#3A6A86"/>
<path opacity="0.65" d="M200.278 532.742C231.229 529.811 262.312 526.819 293.729 524.058C313.09 522.322 332.236 521.53 351.222 521.53C445.403 521.53 535.826 540.944 630.514 560.896C717.174 579.156 803.618 595.25 890.931 595.25C934.736 595.25 978.75 591.199 1023.13 581.351C1145.62 553.915 1260.44 497.76 1355.75 431.009C1388.56 408.008 1416.39 383.593 1440 356.729V357.725C1416.48 384.374 1388.8 408.619 1356.22 431.456C1260.85 498.246 1145.94 554.447 1023.32 581.911C978.875 591.782 934.785 595.838 890.931 595.838C803.507 595.838 717.014 579.722 630.333 561.461C535.639 541.51 445.278 522.118 351.222 522.118C332.257 522.118 313.146 522.904 293.819 524.635C262.396 527.402 231.319 530.388 200.361 533.33C133.59 539.524 67.4584 546.086 0 549.627V549.039C67.4166 545.498 133.514 538.941 200.278 532.742Z" fill="#3A6A86"/>
<path opacity="0.65" d="M201.854 530.796C232.688 528.85 263.618 526.881 294.868 525.133C307.625 524.386 320.285 524.036 332.868 524.036C433.41 524.041 529.326 546.318 630.389 568.606C718.979 588.128 807.743 604.844 897.465 604.838C941.021 604.838 984.806 600.906 1028.91 591.442C1152.3 564.635 1267.51 509.237 1363.3 442.628C1392.5 422.286 1417.9 400.785 1440 377.45V378.412C1417.99 401.548 1392.75 422.886 1363.76 443.069C1267.92 509.73 1152.62 565.172 1029.09 592.008C984.924 601.483 941.076 605.426 897.465 605.426C807.639 605.426 718.806 588.693 630.194 569.166C529.125 546.878 433.278 524.624 332.868 524.624C320.306 524.624 307.66 524.975 294.917 525.721C263.674 527.469 232.743 529.432 201.903 531.378C134.722 535.423 68.0834 540.282 0 542.528V541.945C68.0486 539.694 134.667 534.84 201.854 530.796Z" fill="#3A6A86"/>
<path opacity="0.65" d="M203.424 528.844C234.146 527.945 264.924 526.949 296.007 526.208C301.889 526.055 307.764 525.976 313.604 525.976C420.882 525.976 522.465 551.494 630.257 576.305C720.764 597.128 811.875 614.443 904.007 614.443C947.319 614.443 990.868 610.625 1034.68 601.534C1158.98 575.354 1274.58 520.721 1370.85 454.242C1396.65 436.395 1419.59 417.603 1440 397.447V398.37C1419.7 418.344 1396.91 436.977 1371.31 454.689C1274.99 521.213 1159.29 575.898 1034.86 602.1C990.979 611.202 947.368 615.031 904.007 615.031C811.764 615.031 720.59 597.699 630.062 576.871C522.264 552.06 420.736 526.564 313.604 526.564C307.764 526.564 301.903 526.632 296.028 526.796C264.951 527.526 234.174 528.533 203.451 529.427C135.868 531.407 68.7222 534.518 0 535.429V534.846C68.7014 533.93 135.833 530.824 203.424 528.844Z" fill="#3A6A86"/>
<path opacity="0.65" d="M230.167 495.768C361.646 568.51 483.083 652.106 628.069 707.26C750.479 753.822 883.826 779.425 1018.27 779.425C1056.45 779.425 1094.72 777.36 1132.85 773.123C1246.95 760.452 1349.42 730.301 1440 684.712V685.397C1349.42 730.929 1246.99 761.04 1132.95 773.706C1094.78 777.943 1056.48 780.007 1018.27 780.007C883.715 780.007 750.271 754.387 627.764 707.787C482.667 652.587 361.201 568.962 229.757 496.255C155.792 455.333 79.9791 426.127 0 404.433V403.811C80.118 425.533 156.062 454.773 230.167 495.768Z" fill="#3A6A86"/>
<path opacity="0.65" d="M281.653 398.777C378.417 439.195 483.438 457.07 589.583 457.076C804.333 457.076 1023.65 383.905 1188.31 276.233C1299.85 203.299 1389.33 109.203 1440 0.604126V1.43011C1389.24 109.78 1299.88 203.661 1188.54 276.459C1023.81 384.171 804.431 457.37 589.583 457.37C483.389 457.37 378.312 439.478 281.479 399.043C172.451 353.505 81.757 288.152 0 215.405V214.969C81.8055 287.795 172.556 353.211 281.653 398.777Z" fill="#94D3E6"/>
<path opacity="0.65" d="M156.042 334.232C195.708 358.274 237.701 379.86 282.694 398.443C287.444 400.406 292.215 402.318 296.993 404.179C339.764 420.833 383.924 433.464 429 442.255C483.944 452.963 540.194 457.975 596.729 457.975C673.417 457.975 750.653 448.76 825.854 432.084C958.035 402.736 1083.62 350.762 1188.17 285.052C1229.83 258.838 1268.54 229.734 1303.47 198.038C1359.97 146.539 1407.52 88.528 1440 24.119V24.883C1407.51 89.065 1360.07 146.889 1303.74 198.236C1268.79 229.943 1230.06 259.059 1188.39 285.278C1083.81 351.022 958.174 403.008 825.944 432.367C750.715 449.055 673.458 458.27 596.729 458.27C540.16 458.27 483.882 453.252 428.924 442.538C383.812 433.747 339.632 421.104 296.84 404.445C292.056 402.584 287.285 400.666 282.535 398.709C237.521 380.115 195.507 358.517 155.833 334.47C99.4097 300.291 48.1527 260.671 0 218.375V217.945C48.2152 260.32 99.5416 300.008 156.042 334.232Z" fill="#94D3E6"/>
<path opacity="0.65" d="M156.75 335.341C196.653 358.738 238.764 379.741 283.75 398.109C288.486 400.044 293.257 401.939 298.035 403.789C340.736 420.307 384.694 433.102 429.583 442.108C486.729 453.591 545.257 458.937 604.083 458.937C678.021 458.937 752.431 450.486 825.132 435.133C957.083 407.2 1082.74 357.42 1188.02 293.865C1229.94 268.517 1269.08 240.363 1304.4 209.465C1359.28 161.444 1406.94 107.518 1440 46.7751V47.4881C1406.93 108.021 1359.39 161.784 1304.66 209.663C1269.33 240.578 1230.16 268.737 1188.24 294.103C1082.91 357.674 957.215 407.471 825.222 435.416C752.493 450.774 678.056 459.226 604.083 459.226C545.229 459.226 486.674 453.88 429.5 442.397C384.583 433.385 340.597 420.578 297.882 404.055C293.097 402.205 288.333 400.31 283.583 398.369C238.583 379.996 196.451 358.987 156.542 335.579C99.757 302.322 48.3055 263.239 0 221.362V220.932C48.375 262.883 99.882 302.039 156.75 335.341Z" fill="#94D3E6"/>
<path opacity="0.65" d="M157.458 336.443C197.597 359.207 239.826 379.616 284.792 397.769C289.535 399.687 294.292 401.559 299.069 403.398C341.694 419.786 385.472 432.745 430.167 441.96C489.583 454.247 550.458 459.949 611.632 459.949C682.757 459.949 754.292 452.239 824.41 438.176C956.132 411.657 1081.85 364.077 1187.88 302.677C1230.04 278.195 1269.58 250.957 1305.32 220.897C1358.64 176.032 1406.35 125.873 1440 68.6265V69.2994C1406.35 126.354 1358.75 176.366 1305.58 221.095C1269.82 251.172 1230.26 278.421 1188.09 302.921C1082.01 364.332 956.264 411.934 824.493 438.464C754.354 452.527 682.785 460.243 611.632 460.243C550.431 460.243 489.528 454.535 430.076 442.249C385.354 433.023 341.562 420.057 298.917 403.664C294.146 401.825 289.375 399.953 284.632 398.035C239.653 379.871 197.403 359.455 157.25 336.687C100.097 304.346 48.4652 265.801 0 224.342V223.912C48.5277 265.455 100.229 304.063 157.458 336.443Z" fill="#94D3E6"/>
<path opacity="0.65" d="M158.167 337.547C198.542 359.671 240.882 379.498 285.84 397.436C290.583 399.331 295.34 401.186 300.111 403.008C342.667 419.266 386.243 432.384 430.743 441.825C492.507 454.955 555.799 461.03 619.389 461.03C687.639 461.03 756.236 454.033 823.688 441.22C955.181 416.121 1080.96 370.73 1187.74 311.497C1230.15 287.874 1270.07 261.553 1306.24 232.324C1358.12 190.39 1405.78 143.693 1440 89.7501V90.3951C1405.78 144.157 1358.22 190.718 1306.49 232.534C1270.31 261.774 1230.37 288.101 1187.94 311.735C1081.12 370.99 955.306 416.398 823.771 441.503C756.299 454.321 687.667 461.324 619.389 461.324C555.764 461.324 492.451 455.243 430.653 442.108C386.125 432.661 342.535 419.537 299.958 403.274C295.181 401.452 290.424 399.591 285.681 397.696C240.708 379.758 198.347 359.92 157.965 337.79C100.444 306.372 48.625 268.37 0 227.318V226.894C48.6875 268.019 100.569 306.09 158.167 337.547Z" fill="#94D3E6"/>
<path opacity="0.65" d="M158.875 338.65C199.479 360.135 241.951 379.379 286.889 397.102C291.625 398.969 296.382 400.802 301.153 402.618C343.639 418.745 387.014 432.022 431.319 441.678C495.507 455.701 561.285 462.178 627.382 462.178C692.667 462.178 758.278 455.865 822.958 444.269C954.229 420.578 1080.07 377.383 1187.59 320.311C1230.26 297.548 1270.56 272.148 1307.16 243.751C1357.7 204.538 1405.26 161.026 1440 110.199V110.81C1405.26 161.473 1357.81 204.86 1307.41 243.966C1270.79 272.369 1230.47 297.78 1187.78 320.554C1080.22 377.648 954.347 420.861 823.042 444.552C758.326 456.154 692.701 462.473 627.382 462.473C561.257 462.473 495.451 455.996 431.229 441.961C386.896 432.299 343.507 419.011 300.993 402.878C296.229 401.073 291.472 399.235 286.729 397.363C241.778 379.634 199.299 360.389 158.674 338.899C100.792 308.398 48.7777 270.932 0 230.294V229.869C48.8402 270.587 100.91 308.115 158.875 338.65Z" fill="#94D3E6"/>
<path opacity="0.65" d="M159.576 339.759C200.424 360.604 243.014 379.254 287.931 396.762C292.674 398.606 297.431 400.428 302.188 402.221C344.611 418.219 387.785 431.659 431.896 441.536C498.583 456.504 566.924 463.394 635.611 463.394C697.868 463.394 760.403 457.737 822.243 447.306C953.278 425.041 1079.18 384.04 1187.45 329.129C1230.37 307.22 1271.04 282.744 1308.08 255.178C1357.38 218.499 1404.76 177.951 1440 130.077V130.649C1404.76 178.37 1357.48 218.816 1308.33 255.393C1271.26 282.97 1230.57 307.464 1187.64 329.373C1079.33 384.306 953.396 425.318 822.312 447.595C760.458 458.026 697.896 463.683 635.611 463.683C566.896 463.683 498.521 456.793 431.806 441.813C387.667 431.942 344.472 418.496 302.035 402.487C297.271 400.694 292.521 398.872 287.778 397.023C242.84 379.515 200.243 360.858 159.389 340.007C101.139 310.422 48.9375 273.495 0 233.263V232.845C48.993 273.144 101.257 310.139 159.576 339.759Z" fill="#94D3E6"/>
<path opacity="0.65" d="M160.285 340.862C201.368 361.068 244.069 379.136 288.986 396.429C293.722 398.25 298.465 400.049 303.222 401.837C345.576 417.704 388.556 431.303 432.479 441.389C501.743 457.359 572.736 464.679 644.111 464.679C703.243 464.679 762.639 459.655 821.521 450.361C952.326 429.504 1078.29 390.693 1187.31 337.943C1230.47 316.9 1271.51 293.333 1309 266.61C1357.12 232.302 1404.31 194.514 1440 149.441V149.978C1404.31 194.916 1357.23 232.607 1309.24 266.831C1271.74 293.565 1230.67 317.143 1187.49 338.192C1078.44 390.964 952.444 429.782 821.59 450.65C762.688 459.949 703.271 464.973 644.111 464.973C572.708 464.973 501.681 457.647 432.382 441.672C388.438 431.575 345.444 417.97 303.076 402.103C298.319 400.321 293.562 398.511 288.833 396.689C243.903 379.396 201.194 361.328 160.09 341.116C101.479 312.442 49.0972 276.052 0 236.245V235.82C49.1597 275.707 101.597 312.159 160.285 340.862Z" fill="#94D3E6"/>
<path opacity="0.65" d="M160.986 341.965C202.306 361.538 245.125 379.011 290.035 396.089C294.764 397.888 299.507 399.67 304.264 401.441C346.549 417.178 389.326 430.935 433.056 441.242C504.993 458.264 578.722 466.042 652.875 466.042C708.806 466.042 764.979 461.618 820.792 453.399C951.382 433.962 1077.41 397.351 1187.16 346.756C1230.58 326.578 1271.99 303.923 1309.92 278.037C1356.94 245.94 1403.9 210.698 1440 168.266V168.787C1403.9 211.1 1357.06 246.251 1310.15 278.263C1272.21 304.166 1230.78 326.827 1187.33 347.011C1077.55 397.622 951.486 434.245 820.854 453.687C765.021 461.907 708.826 466.33 652.875 466.336C578.688 466.336 504.924 458.552 432.958 441.525C389.208 431.213 346.41 417.45 304.111 401.707C299.354 399.936 294.618 398.154 289.882 396.355C244.965 379.277 202.139 361.792 160.806 342.225C101.826 314.467 49.25 278.614 0 239.209V238.796C49.3055 278.269 101.944 314.184 160.986 341.965Z" fill="#94D3E6"/>
<path opacity="0.65" d="M161.688 343.073C203.257 362.001 246.188 378.892 291.083 395.75C295.812 397.526 300.549 399.291 305.299 401.05C347.521 416.657 390.097 430.579 433.639 441.1C508.333 459.225 584.889 467.484 661.931 467.484C714.562 467.484 767.424 463.632 820.069 456.447C950.431 438.425 1076.51 404.003 1187.01 355.575C1230.69 336.257 1272.47 314.512 1310.84 289.464C1356.83 259.449 1403.51 226.6 1440 186.662V187.155C1403.53 226.979 1356.94 259.749 1311.07 289.696C1272.67 314.755 1230.88 336.506 1187.19 355.829C1076.65 404.275 950.528 438.708 820.132 456.736C767.465 463.92 714.583 467.772 661.931 467.772C584.854 467.772 508.264 459.519 433.535 441.383C389.972 430.856 347.375 416.929 305.153 401.316C300.396 399.562 295.66 397.797 290.931 396.021C246.035 379.158 203.09 362.267 161.514 343.328C102.174 316.486 49.4097 281.165 0 242.179V241.766C49.4652 280.826 102.285 316.198 161.688 343.073Z" fill="#94D3E6"/>
<path opacity="0.65" d="M162.396 344.176C204.201 362.465 247.25 378.774 292.132 395.416C296.854 397.17 301.59 398.918 306.34 400.654C348.486 416.143 390.875 430.217 434.215 440.959C511.764 460.255 591.243 469.006 671.292 469.006C720.528 469.006 769.986 465.702 819.347 459.491C949.479 442.882 1075.74 410.842 1186.88 364.388C1230.85 346.009 1272.93 325.102 1311.76 300.891C1356.78 272.827 1403.18 242.229 1440 204.668V205.148C1403.19 242.602 1356.88 273.132 1311.98 301.122C1273.13 325.35 1231.03 346.258 1187.03 364.648C1075.87 411.119 949.576 443.165 819.403 459.779C770.028 465.991 720.549 469.3 671.292 469.3C591.208 469.3 511.701 460.549 434.111 441.236C390.743 430.494 348.347 416.408 306.194 400.926C301.444 399.189 296.708 397.441 291.979 395.682C247.097 379.039 204.035 362.731 162.222 344.437C102.521 318.506 49.5695 283.728 0 245.143V244.741C49.625 283.383 102.625 318.223 162.396 344.176Z" fill="#94D3E6"/>
<path opacity="0.65" d="M163.104 345.285C205.139 362.935 248.312 378.649 293.181 395.083C297.903 396.808 302.632 398.539 307.375 400.27C349.458 415.611 391.653 429.855 434.799 440.818C515.299 461.347 597.806 470.624 680.972 470.624C726.729 470.624 772.681 467.818 818.625 462.535C948.528 447.346 1074.85 417.506 1186.73 373.202C1230.95 355.688 1273.4 335.686 1312.68 312.323C1356.78 286.093 1402.88 257.582 1440 222.272V222.719C1402.89 257.944 1356.89 286.398 1312.9 312.561C1273.59 335.94 1231.12 355.943 1186.89 373.468C1074.98 417.783 948.618 447.629 818.674 462.829C772.715 468.112 726.743 470.918 680.972 470.918C597.771 470.918 515.236 461.635 434.688 441.09C391.521 430.132 349.312 415.883 307.229 400.536C302.493 398.805 297.757 397.079 293.028 395.348C248.167 378.921 204.986 363.201 162.938 345.546C102.868 320.525 49.7222 286.279 0 248.113V247.705C49.7777 285.94 102.979 320.243 163.104 345.285Z" fill="#94D3E6"/>
<path opacity="0.65" d="M163.806 346.388C206.083 363.398 249.368 378.53 294.229 394.743C298.944 396.451 303.674 398.16 308.41 399.874C350.424 415.09 392.424 429.498 435.375 440.671C518.951 462.512 604.569 472.332 691.014 472.332C733.16 472.332 775.507 469.996 817.903 465.583C947.583 451.809 1073.97 424.17 1186.59 382.015C1231.06 365.367 1273.85 346.275 1313.6 323.755C1356.83 299.267 1402.61 272.742 1440 239.565V240.006C1402.62 273.093 1356.93 299.561 1313.81 323.993C1274.04 346.524 1231.23 365.633 1186.74 382.281C1074.08 424.452 947.653 452.092 817.951 465.872C775.535 470.29 733.181 472.626 691.014 472.626C604.535 472.626 518.875 462.8 435.264 440.948C392.292 429.77 350.285 415.362 308.264 400.145C303.528 398.425 298.799 396.723 294.083 395.009C249.229 378.802 205.938 363.664 163.646 346.654C103.215 322.539 49.875 288.836 0 251.077V250.669C49.9305 288.497 103.312 322.256 163.806 346.388Z" fill="#94D3E6"/>
<path opacity="0.65" d="M164.507 347.497C207.028 363.863 250.431 378.412 295.278 394.409C299.993 396.09 304.715 397.787 309.451 399.484C351.396 414.576 393.194 429.131 435.951 440.53C522.708 463.745 611.562 474.142 701.431 474.142C739.854 474.142 778.472 472.242 817.181 468.627C946.632 456.267 1073.08 430.834 1186.44 390.829C1231.17 375.052 1274.31 356.848 1314.53 335.177C1356.93 312.329 1402.38 287.659 1440 256.513V256.926C1402.39 287.999 1357.03 312.629 1314.72 335.426C1274.49 357.108 1231.33 375.318 1186.58 391.1C1073.18 431.117 946.701 456.555 817.222 468.921C778.5 472.53 739.868 474.437 701.431 474.437C611.528 474.437 522.639 464.034 435.84 440.807C393.062 429.408 351.25 414.842 309.299 399.749C304.569 398.052 299.854 396.361 295.132 394.681C250.292 378.683 206.889 364.134 164.361 347.758C103.562 324.553 50.0347 291.387 0 254.041V253.639C50.0902 291.048 103.66 324.276 164.507 347.497Z" fill="#94D3E6"/>
<path opacity="0.65" d="M165.215 348.6C207.972 364.332 251.493 378.287 296.326 394.076C301.042 395.733 305.757 397.408 310.486 399.093C352.361 414.05 393.972 428.775 436.528 440.382C526.597 465.052 618.799 476.054 712.243 476.054C746.826 476.054 781.583 474.55 816.458 471.676C945.681 460.724 1072.19 437.497 1186.3 399.648C1231.28 384.731 1274.76 367.426 1315.45 346.609C1357.06 325.317 1402.17 302.412 1440 273.206V273.608C1402.19 302.752 1357.15 325.611 1315.64 346.858C1274.94 367.687 1231.42 384.996 1186.44 399.919C1072.28 437.78 945.743 461.019 816.5 471.965C781.604 474.844 746.84 476.349 712.243 476.349C618.764 476.349 526.521 465.34 436.417 440.66C393.833 429.046 352.222 414.321 310.34 399.359C305.618 397.673 300.896 396.005 296.181 394.342C251.354 378.559 207.833 364.604 165.069 348.866C103.91 326.573 50.1945 293.939 0 256.999V256.603C50.25 293.605 104.007 326.29 165.215 348.6Z" fill="#94D3E6"/>
<path opacity="0.65" d="M165.924 349.704C208.91 364.796 252.549 378.169 297.375 393.737C302.083 395.377 306.806 397.023 311.521 398.703C353.326 413.53 394.743 428.413 437.111 440.241C530.611 466.449 626.285 478.086 723.5 478.086C754.097 478.086 784.847 476.932 815.736 474.72C944.729 465.188 1071.29 444.156 1186.15 408.461C1231.39 394.41 1275.21 378.005 1316.37 358.036C1357.23 338.215 1402 316.973 1440 289.611V289.996C1402.01 317.313 1357.32 338.509 1316.56 358.291C1275.38 378.265 1231.53 394.681 1186.28 408.738C1071.38 444.439 944.785 465.482 815.771 475.014C784.875 477.226 754.111 478.374 723.5 478.374C626.25 478.374 530.535 466.738 436.993 440.519C394.604 428.684 353.188 413.801 311.375 398.969C306.667 397.295 301.944 395.643 297.229 394.008C252.417 378.441 208.778 365.068 165.778 349.97C104.257 328.587 50.3541 296.49 0 259.958V259.562C50.4027 296.156 104.347 328.304 165.924 349.704Z" fill="#94D3E6"/>
<path opacity="0.65" d="M166.632 350.806C209.854 365.265 253.611 378.05 298.424 393.402C303.132 395.015 307.847 396.649 312.562 398.307C354.299 413.009 395.514 428.05 437.688 440.099C534.757 467.937 634.035 480.223 735.222 480.223C761.694 480.223 788.285 479.386 815.021 477.768C943.778 469.651 1070.4 450.814 1186.01 417.28C1231.49 404.088 1275.66 388.571 1317.29 369.468C1357.43 351.044 1401.85 331.375 1440 305.767V306.146C1401.87 331.709 1357.52 351.333 1317.47 369.723C1275.81 388.837 1231.62 404.36 1186.13 417.557C1070.49 451.102 943.833 469.939 815.042 478.057C788.312 479.68 761.701 480.518 735.222 480.518C634 480.518 534.681 468.22 437.569 440.371C395.375 428.328 354.153 413.275 312.417 398.578C307.701 396.921 302.993 395.286 298.285 393.674C253.486 378.327 209.729 365.537 166.493 351.078C104.611 330.6 50.507 299.035 0 262.917V262.521C50.5555 298.702 104.694 330.312 166.632 350.806Z" fill="#94D3E6"/>
<path opacity="0.65" d="M167.333 351.915C210.799 365.734 254.674 377.925 299.472 393.063C304.181 394.658 308.889 396.276 313.597 397.916C355.278 412.488 396.278 427.688 438.271 439.952C539.062 469.509 642.069 482.497 747.458 482.503C769.632 482.497 791.91 481.926 814.292 480.811C942.826 474.108 1069.51 457.471 1185.87 426.093C1231.6 413.767 1276.1 399.138 1318.22 380.895C1357.67 363.8 1401.74 345.63 1440 321.696V322.064C1401.75 345.958 1357.75 364.094 1318.38 381.149C1276.25 399.41 1231.73 414.044 1185.98 426.376C1069.58 457.754 942.875 474.396 814.312 481.1C791.924 482.22 769.639 482.797 747.458 482.797C642.035 482.797 538.979 469.797 438.146 440.224C396.146 427.96 355.125 412.754 313.458 398.188C308.75 396.536 304.035 394.924 299.326 393.334C254.549 378.208 210.681 366.006 167.201 352.186C104.951 332.614 50.6666 301.58 0 265.868V265.478C50.7152 301.246 105.042 332.325 167.333 351.915Z" fill="#94D3E6"/>
<path opacity="0.65" d="M168.035 353.018C211.743 366.193 255.736 377.806 300.514 392.729C305.222 394.296 309.924 395.891 314.632 397.526C356.243 411.968 397.056 427.332 438.854 439.811C543.507 471.189 650.41 484.901 760.236 484.907C777.938 484.901 795.715 484.551 813.569 483.855C941.875 478.566 1068.62 464.124 1185.73 434.912C1231.71 423.44 1276.54 409.705 1319.14 392.322C1357.93 376.494 1401.64 359.738 1440 337.405V337.773C1401.65 360.066 1358.01 376.782 1319.3 392.588C1276.68 409.977 1231.83 423.717 1185.83 435.189C1068.68 464.412 941.917 478.86 813.59 484.149C795.722 484.845 777.944 485.196 760.236 485.201C650.368 485.201 543.431 471.472 438.722 440.082C396.917 427.598 356.09 412.234 314.493 397.792C309.792 396.163 305.083 394.562 300.382 393.001C255.618 378.089 211.625 366.476 167.91 353.295C105.299 334.622 50.8264 304.127 0 268.828V268.438C50.875 303.793 105.382 334.339 168.035 353.018Z" fill="#94D3E6"/>
<path opacity="0.65" d="M168.736 354.127C212.688 366.663 256.792 377.688 301.569 392.396C306.271 393.94 310.972 395.518 315.674 397.136C357.208 411.448 397.826 426.97 439.424 439.664C548.125 472.971 659.056 487.453 773.618 487.453C786.646 487.453 799.722 487.266 812.847 486.899C940.931 483.035 1067.72 470.782 1185.58 443.726C1231.81 433.119 1276.98 420.261 1320.06 403.754C1358.22 389.12 1401.56 373.722 1440 352.917V353.267C1401.58 374.045 1358.3 389.414 1320.21 404.015C1277.11 420.538 1231.92 433.396 1185.67 444.008C1067.78 471.071 940.958 483.329 812.861 487.193C799.729 487.56 786.653 487.741 773.618 487.747C659.021 487.747 548.049 473.26 439.299 439.936C397.688 427.242 357.062 411.708 315.535 397.408C310.833 395.79 306.132 394.206 301.431 392.661C256.674 377.965 212.576 366.94 168.625 354.399C105.646 336.631 50.9791 306.672 0 271.775V271.391C51.0277 306.344 105.729 336.348 168.736 354.127Z" fill="#94D3E6"/>
<path opacity="0.65" d="M169.444 355.23C213.632 367.132 257.847 377.563 302.611 392.056C307.312 393.578 312.014 395.139 316.708 396.746C358.181 410.922 398.604 426.608 440.007 439.523C552.931 474.872 668.042 490.151 787.66 490.151C795.799 490.151 803.944 490.089 812.125 489.948C939.979 487.498 1066.82 477.423 1185.44 452.545C1231.92 442.798 1277.42 430.817 1320.97 415.181C1358.54 401.695 1401.51 387.582 1440 368.241V368.592C1401.53 387.898 1358.6 401.99 1321.12 415.447C1277.54 431.094 1232.02 443.075 1185.53 452.822C1066.88 477.717 940.007 487.787 812.132 490.242C803.951 490.383 795.806 490.445 787.66 490.445C668.007 490.445 552.84 475.161 439.875 439.794C398.451 426.88 358.028 411.187 316.576 397.011C311.875 395.405 307.181 393.849 302.479 392.322C257.736 377.846 213.521 367.409 169.333 355.507C106 338.644 51.1459 309.212 0 274.728V274.343C51.1875 308.884 106.076 338.356 169.444 355.23Z" fill="#94D3E6"/>
<path opacity="0.65" d="M170.153 356.339C214.569 367.59 258.91 377.445 303.66 391.722C308.361 393.216 313.056 394.755 317.75 396.35C359.153 410.401 399.375 426.246 440.583 439.381C557.91 476.892 677.382 493.014 802.424 493.014C805.417 493.014 808.41 493.014 811.403 492.991C939.035 491.956 1065.92 484.07 1185.29 461.358C1232.02 452.471 1277.85 441.367 1321.9 426.614C1358.88 414.22 1401.49 401.333 1440 383.396V383.735C1401.5 401.645 1358.94 414.514 1322.03 426.88C1277.97 441.644 1232.12 452.748 1185.38 461.647C1065.97 484.364 939.049 492.25 811.403 493.28C808.41 493.302 805.417 493.308 802.424 493.313C677.347 493.313 557.826 477.18 440.451 439.647C399.222 426.518 359 410.667 317.611 396.621C312.917 395.032 308.229 393.493 303.528 391.988C258.806 377.727 214.472 367.879 170.042 356.616C106.347 340.647 51.2986 311.758 0 277.675V277.296C51.3402 311.429 106.417 340.364 170.153 356.339Z" fill="#94D3E6"/>
<path opacity="0.65" d="M170.854 357.442C215.514 368.066 259.979 377.32 304.715 391.383C309.403 392.854 314.097 394.381 318.792 395.96C360.118 409.881 400.146 425.884 441.16 439.234C560.826 478.306 682.493 495.418 810.681 496.04C814.465 496.046 818.25 496.052 822.035 496.052C945.611 496.052 1068.55 489.914 1185.15 470.172C1232.11 462.065 1278.29 451.911 1322.82 438.035C1359.24 426.693 1401.47 414.972 1440 398.381V398.714C1401.49 415.283 1359.3 426.987 1322.95 438.312C1278.4 452.194 1232.19 462.354 1185.23 470.46C1068.59 490.208 945.632 496.346 822.035 496.346C818.25 496.346 814.465 496.34 810.681 496.334C682.458 495.712 560.736 478.595 441.028 439.506C400 426.156 359.965 410.147 318.653 396.231C313.965 394.659 309.271 393.131 304.583 391.655C259.868 377.609 215.424 368.343 170.757 357.719C106.694 342.661 51.4584 314.298 0 280.628V280.243C51.5 313.97 106.771 342.372 170.854 357.442Z" fill="#94D3E6"/>
<path opacity="0.65" d="M171.562 358.545C216.458 368.529 261.035 377.201 305.757 391.049C310.451 392.498 315.139 394.008 319.826 395.569C361.09 409.361 400.917 425.528 441.743 439.093C560.944 478.821 681.882 497.053 809.958 499.084C828.521 499.344 847.069 499.491 865.597 499.491C974.056 499.491 1081.74 494.524 1185.01 478.996C1232.22 471.744 1278.72 462.455 1323.74 449.473C1359.62 439.127 1401.49 428.52 1440 413.218V413.541C1401.49 428.826 1359.67 439.415 1323.86 449.745C1278.83 462.733 1232.3 472.027 1185.08 479.285C1081.77 494.818 974.069 499.779 865.597 499.779C847.062 499.779 828.514 499.638 809.951 499.372C681.847 497.341 560.854 479.104 441.604 439.359C400.764 425.788 360.931 409.621 319.694 395.841C315.007 394.274 310.319 392.775 305.632 391.321C260.931 377.49 216.368 368.812 171.465 358.828C107.042 344.663 51.618 316.837 0 283.57V283.196C51.6527 316.509 107.111 344.375 171.562 358.545Z" fill="#94D3E6"/>
<path opacity="0.65" d="M172.264 359.648C217.403 368.993 262.097 377.082 306.806 390.709C311.493 392.141 316.181 393.623 320.861 395.178C362.056 408.84 401.694 425.165 442.319 438.945C561.062 479.335 681.285 498.687 809.236 502.126C843.076 502.986 876.924 503.501 910.66 503.501C1003.51 503.507 1095.63 499.564 1184.87 487.809C1232.33 481.422 1279.16 472.988 1324.67 460.899C1360.02 451.509 1401.51 441.966 1440 427.897V428.226C1401.51 442.271 1360.06 451.798 1324.78 461.177C1279.25 473.271 1232.4 481.711 1184.92 488.097C1095.67 499.852 1003.53 503.795 910.66 503.801C876.91 503.795 843.069 503.275 809.222 502.42C681.229 498.981 560.958 479.623 442.181 439.217C401.542 425.431 361.903 409.1 320.729 395.45C316.049 393.9 311.368 392.412 306.681 390.981C261.993 377.365 217.319 369.276 172.174 359.936C107.396 346.665 51.7709 319.377 0 286.517V286.143C51.8125 319.049 107.451 346.383 172.264 359.648Z" fill="#94D3E6"/>
<path opacity="0.65" d="M172.965 360.757C218.34 369.463 263.153 376.964 307.854 390.371C312.542 391.779 317.229 393.244 321.903 394.783C363.028 408.314 402.465 424.804 442.903 438.804C561.174 479.845 680.681 500.323 808.514 505.176C857.465 506.958 906.465 508.163 955.229 508.163C1032.71 508.163 1109.6 505.131 1184.73 496.629C1232.43 491.102 1279.59 483.522 1325.59 472.327C1360.44 463.853 1401.56 455.328 1440 442.447V442.77C1401.56 455.639 1360.48 464.141 1325.69 472.61C1279.67 483.805 1232.5 491.396 1184.78 496.917C1109.62 505.425 1032.72 508.451 955.229 508.451C906.458 508.451 857.444 507.252 808.5 505.464C680.632 500.617 561.069 480.133 442.764 439.07C402.312 425.07 362.868 408.58 321.764 395.055C317.09 393.522 312.41 392.056 307.729 390.648C263.062 377.247 218.264 369.746 172.889 361.046C107.743 348.674 51.9305 321.906 0 289.458V289.085C51.9722 321.589 107.806 348.386 172.965 360.757Z" fill="#94D3E6"/>
<path opacity="0.65" d="M173.681 361.866C219.285 369.927 264.215 376.84 308.91 390.037C313.59 391.423 318.271 392.871 322.938 394.393C363.993 407.794 403.236 424.442 443.479 438.657C561.285 480.365 680.076 501.957 807.792 508.219C871.222 511.246 934.819 513.486 997.986 513.486C1060.8 513.486 1123.18 511.274 1184.58 505.442C1232.54 500.781 1280.03 494.043 1326.51 483.759C1360.87 476.157 1401.62 468.61 1440 456.867V457.184C1401.62 468.91 1360.91 476.445 1326.6 484.037C1280.1 494.332 1232.6 501.075 1184.62 505.73C1123.21 511.568 1060.8 513.78 997.986 513.78C934.799 513.78 871.208 511.54 807.764 508.513C680.021 502.252 561.181 480.648 443.333 438.923C403.076 424.702 363.833 408.06 322.806 394.664C318.132 393.143 313.465 391.694 308.785 390.314C264.125 377.128 219.215 370.216 173.604 362.149C108.09 350.677 52.0902 324.446 0 292.4V292.032C52.125 324.124 108.153 350.394 173.681 361.866Z" fill="#94D3E6"/>
<path opacity="0.65" d="M174.382 362.968C220.229 370.396 265.278 376.72 309.951 389.697C314.632 391.06 319.306 392.491 323.979 394.007C364.965 407.273 404.007 424.085 444.062 438.515C561.396 480.874 679.465 503.592 807.069 511.268C884.083 515.811 961.444 519.476 1038.19 519.476C1087.27 519.476 1136.11 517.983 1184.43 514.255C1232.65 510.459 1280.47 504.559 1327.43 495.185C1361.32 488.426 1401.69 481.813 1440 471.167V471.472C1401.69 482.107 1361.35 488.714 1327.52 495.468C1280.53 504.853 1232.7 510.748 1184.47 514.549C1136.12 518.277 1087.28 519.771 1038.19 519.771C961.431 519.771 884.056 516.105 807.042 511.557C679.41 503.886 561.292 481.162 443.917 438.781C403.847 424.345 364.812 407.539 323.84 394.273C319.181 392.763 314.507 391.337 309.833 389.974C265.188 377.009 220.16 370.684 174.312 363.257C108.444 352.679 52.243 326.98 0 295.341V294.974C52.2847 326.657 108.493 352.396 174.382 362.968Z" fill="#94D3E6"/>
<path opacity="0.65" d="M175.09 364.078C221.167 370.86 266.34 376.596 311 389.364C315.681 390.704 320.347 392.113 325.014 393.612C365.938 406.753 404.778 423.723 444.639 438.369C561.507 481.395 678.861 505.232 806.347 514.312C895.938 520.619 986.16 526.117 1075.6 526.117C1112 526.117 1148.26 525.212 1184.29 523.074C1232.76 520.138 1280.9 515.081 1328.35 506.618C1361.78 500.656 1401.78 494.937 1440 485.343V485.649C1401.78 495.231 1361.81 500.945 1328.43 506.907C1280.96 515.369 1232.81 520.432 1184.32 523.368C1148.27 525.501 1112.01 526.412 1075.6 526.412C986.139 526.412 895.91 520.907 806.312 514.606C678.799 505.521 561.396 481.672 444.486 438.635C404.618 423.984 365.778 407.013 324.882 393.884C320.222 392.39 315.556 390.976 310.882 389.641C266.257 376.885 221.111 371.154 175.021 364.366C108.792 354.682 52.4097 329.514 0 298.277V297.915C52.4445 329.192 108.84 354.393 175.09 364.078Z" fill="#94D3E6"/>
<path opacity="0.65" d="M175.792 365.181C222.111 371.324 267.396 376.477 312.049 389.03C316.722 390.348 321.389 391.734 326.056 393.216C366.91 406.232 405.556 423.361 445.215 438.227C561.625 481.909 678.264 506.867 805.625 517.355C906.785 525.625 1008.93 533.375 1110.27 533.375C1134.95 533.375 1159.59 532.917 1184.15 531.887C1232.87 529.811 1281.34 525.597 1329.27 518.045C1362.26 512.858 1401.88 507.993 1440 499.412V499.711C1401.88 508.287 1362.28 513.146 1329.35 518.334C1281.39 525.885 1232.9 530.105 1184.17 532.182C1159.6 533.205 1134.96 533.664 1110.27 533.664C1008.91 533.664 906.75 525.919 805.583 517.649C678.188 507.156 561.507 482.187 445.069 438.493C405.396 423.621 366.743 406.498 325.917 393.493C321.264 392.011 316.604 390.614 311.931 389.301C267.319 376.766 222.062 371.618 175.736 365.469C109.139 356.684 52.5625 332.043 0 301.213V300.857C52.5972 331.726 109.188 356.396 175.792 365.181Z" fill="#94D3E6"/>
<path opacity="0.65" d="M176.493 366.29C223.056 371.794 268.451 376.359 313.097 388.691C317.771 389.986 322.431 391.361 327.09 392.831C367.875 405.712 406.326 422.999 445.799 438.086C561.743 482.419 677.653 508.502 804.896 520.398C916.66 530.824 1029.86 541.204 1142.33 541.204C1156.24 541.204 1170.13 541.046 1184.01 540.706C1232.99 539.496 1281.77 536.04 1330.2 529.478C1362.74 524.986 1402 520.924 1440 513.316V513.627C1401.99 521.224 1362.76 525.275 1330.26 529.766C1281.81 536.334 1233.01 539.784 1184.02 541.001C1170.13 541.34 1156.24 541.493 1142.33 541.493C1029.83 541.493 916.625 531.112 804.861 520.693C677.576 508.791 561.625 482.701 445.639 438.346C406.16 423.259 367.715 405.972 326.958 393.103C322.306 391.632 317.653 390.258 312.979 388.973C268.389 376.647 223.007 372.088 176.444 366.578C109.493 358.681 52.7222 334.572 0 304.149V303.793C52.757 334.255 109.535 358.393 176.493 366.29Z" fill="#94D3E6"/>
<path opacity="0.65" d="M177.201 367.398C228.896 372.766 279.028 377.06 328.125 392.435C368.84 405.185 407.104 422.642 446.375 437.938C561.854 482.938 677.056 510.137 804.181 523.453C925.639 536.164 1049.08 549.565 1172.03 549.559C1225.22 549.565 1278.31 547.059 1331.12 540.904C1363.25 537.165 1402.13 533.907 1440 527.232V527.532C1402.12 534.195 1363.26 537.448 1331.17 541.199C1278.34 547.348 1225.23 549.854 1172.03 549.854C1049.04 549.854 925.59 536.452 804.132 523.742C676.965 510.425 561.736 483.21 446.222 438.199C406.938 422.897 368.681 405.451 328 392.706C278.958 377.348 228.861 373.06 177.153 367.686C109.84 360.677 52.882 337.1 0 307.085V306.728C52.9097 336.789 109.882 360.395 177.201 367.398Z" fill="#94D3E6"/>
</g>
</svg>
