<svg xmlns="http://www.w3.org/2000/svg" width="3000" height="3000" viewBox="0 0 3000 3000">
  <defs>
    <style>
      .cls-1 {
        fill: #fff;
        fill-rule: evenodd;
      }
    </style>
  </defs>
  <path id="Color_Fill_1" data-name="Color Fill 1" class="cls-1" d="M1428,935c60.44-1.372,110.69,39.909,156,59,54.24,22.85,107,47.89,159,73q77.49,35.49,155,71c36.31,19.26,78.37,24.9,95,64,3.33,7.84,15.27,27.51,9,42-16.61,38.37-81.63,126.75-143,115-20.04-3.84-38.24-15.96-55-24q-30-12.495-60-25-46.995-22.005-94-44c-8.16-3.17-27.87-15.57-33-10q-4.995,36-10,72c-5.02,24.01-16.67,74.78-13,98q27.495,19.5,55,39c38.56,26,115.38,68.88,69,140-14.44,22.14-45.47,40.81-67,56-7.96-2.99-26.98-25.59-25-34,11.54-21.82,46.64-28.02,59-50,4.62-8.21,4.46-22.76,0-31-7.42-13.74-78.08-60.64-95-70-1,1.33-2,2.67-3,4-9.71,17.47-4.25,45.42-9,67-7.51,34.16-7.15,71.4-15,108-2.02,9.41-8.62,33.85-6,43,7.67,13.04,37.55,15.45,52,22,39.73,18.01,83.54,26.66,105,63,15.77,26.7,4.32,62.26-10,81q-51.495,44.49-103,89c-47.58,36.27-85.12,89.99-142,116-10.96,5.01-34.51-1.79-40-4-39.1-15.76-57.11-45.1-87-69-41.31-33.04-75.95-74.16-117-107-20.67-16.54-51.8-37.88-64-62-11.02-21.8-11.53-57.24,1-78,12.15-20.14,32.2-28.35,52-41,15.47-9.88,34.3-27.28,53-32q10.5,16.995,21,34c-17.09,27.78-81.55,35.88-93,68-8.14,22.82,13.39,40.47,24,49q52.5,46.995,105,94c12.62,10.09,25.21,32.63,42,37v-8c-13.41-54.72-14.89-115.1-25-169-7.22-38.49-2.83-95.37-17-126q-28.5-11.505-57-23c-49.39-21.05-75.62-18.74-87-80-3.27-17.6,2.76-38.56,11-51,22.82-34.48,72.95-49.08,102-78l-15-108c-3.66-20.38-.73-45.17-9-62q-94.485,40.995-189,82c-26.8,11.23-59.42,34.26-98,19-22.556-8.92-36.583-31.5-52-48-16.38-17.53-30.112-32.24-42-55-6.417-12.28,2.869-37.91,5-44,14.963-42.79,62.453-55.22,103-72l120-57q40.5-17.505,81-35,34.995-16.995,70-34C1315.24,984.367,1368.59,960.116,1428,935Zm3,40-403,185c-28.3,12.54-134.359,42.73-105,90,10.069,16.21,53.793,64.46,73,69,17.28,4.08,99.04-39.45,116-47q101.985-44.49,204-89c31.33-15.67,75.1-41.04,111-48,39.27-7.62,87.75,27.27,114,39q161.985,72.495,324,145c26.25,6.4,82.38-53.89,91-69,27.74-48.59-74.44-72.75-101-87q-146.985-67.5-294-135C1528.04,1013.77,1470.98,974.891,1431,975Zm1,200-95,43c-10.92,4.62-31.09,8.43-37,18-4.34,12.11,3.9,37,6,49l15,111c0.67,0.33,1.33.67,2,1,34.26-15.95,58.17-52.37,98-62,53.14-12.85,100.2,43.81,132,62,1-.67,2-1.33,3-2q7.5-55.995,15-112c2.91-12.52,10.01-38.66,5-50C1532.76,1221.28,1479.44,1175.29,1432,1175Zm-1,203c-26.61,14.31-47.94,31.88-72,48q-14.505,9.495-29,19c-4.37,6.72.9,31.13,3,41,6.75,31.75,9.93,117.6,24,139q78.495,29.49,157,59l2-2c0.01-36.28,11.03-95.2,19-129,8.17-34.66,1.64-72.31,14-103C1540.42,1435.63,1455.39,1377.89,1431,1378Zm-143,96c-17.91,14.42-64.27,36.22-74,55-22.37,43.18,37.18,53.79,63,64,9.03,3.57,17.83,9.57,29,11l1-1c-0.17-24.9-5.76-49.29-10-71-4.13-21.17.03-40.62-7-58h-2ZM996,1622q2-13.5,4-27h97c-4.08,49.82-31.35,80.07-70,95-48.29,18.66-97.668-6.2-109-44-33.746-112.55,145.4-192.02,180-77h-42c-6.97-22.29-39.26-28.59-64-18-21.735,9.3-47.2,41.2-39,79,12.654,58.29,86.01,31.95,104-7v-1H996Zm936-58h-38c-0.05-31.32-52.1-29.27-51,3,20.15,26.9,116.05,45.41,72,105-25.52,34.51-137.16,33.15-119-30q18,0.495,36,1c-0.73,25.06,40.18,34.09,50,14,13.91-17.3-7.75-28.36-19-34-26.37-13.21-70.61-25.38-56-72C1822.51,1501.5,1932.38,1494.8,1932,1564Zm892,0h-38c-0.05-31.32-52.1-29.27-51,3,20.15,26.9,116.05,45.41,72,105-25.52,34.51-137.16,33.15-119-30q18,0.495,36,1c-0.73,25.06,40.18,34.09,50,14,13.91-17.3-7.75-28.36-19-34-26.37-13.21-70.61-25.38-56-72C2714.51,1501.5,2824.38,1494.8,2824,1564ZM259,1544q-13,74.985-26,150H197q13-74.985,26-150H176q2.5-14.505,5-29H312q-3,14.505-6,29H259Zm114-29c-2.111,37.92-41.873,138.91,3,148,53.963,10.93,51.154-50.87,59-88q5.5-30,11-60h36q-6,33.495-12,67l-12,63c-13.121,31.76-55.636,63.7-105,48-46.706-14.85-35.59-69-26-115q5.5-31.5,11-63h35Zm148,179H484q16-89.49,32-179c40.636-.93,96.385-5.91,114,17,27.386,35.62-7.826,83.46-41,89q14.5,36.495,29,73H576q-13-34.995-26-70c-5.9-.36-14.1-0.83-17,2Q527,1659.99,521,1694Zm165,0H649q16-89.49,32-179h36Q701.5,1604.49,686,1694Zm183-179h36q-15.5,89.49-31,179H837q-29-60.99-58-122h-1l-21,122H720q16-89.49,32-179h36q30,60.99,60,122Zm1160,0q21.495,0.495,43,1,16.005,88.995,32,178c-9.46.33-32.64,2.93-38-2q-3-16.005-6-32h-72q-9,16.995-18,34h-36v-1Q1981.49,1604.005,2029,1515Zm136,179h-37q16.005-89.49,32-179c47.72-.86,105.36-6.8,119,27,16.99,42.08-21.83,74.94-52,82q-25.5,1.005-51,2Q2170.5,1659.99,2165,1694Zm156,0h-37q16.005-89.49,32-179h36Q2336.505,1604.49,2321,1694Zm149-105q-1.995,13.995-4,28h-61q-4.005,24.495-8,49h67q-1.995,13.995-4,28H2355q16.005-89.49,32-179h104q-2.505,13.995-5,28h-68q-4.005,22.995-8,46h60Zm171-74h36q-15.495,89.49-31,179h-37l-58-122h-1q-10.5,60.99-21,122h-37q16.005-89.49,32-179h36q30,60.99,60,122Q2630.5,1576.01,2641,1515ZM538,1598c41.648,1.59,85.957-13.31,55-51-12.692-2.22-29.379-3.04-46-3Zm1653-54q-4.5,26.49-9,53h35c19.91-5.62,32.05-19.28,25-45C2230.2,1543.49,2212.64,1543.68,2191,1544Zm-149,13q-19.005,37.5-38,75h52Q2049,1594.5,2042,1557Zm-681,117c-2.88,11.95,8.48,70.89,12,87,12.71,58.16,13.77,119.68,25,176,6.81,34.17-.74,76.4,32,84,45.38,10.54,41.26-34.32,47-66,8.76-48.32,11.36-104.13,23-152,2.73-11.22,9.04-71.51,6-74q-45.99-17.505-92-35C1398.18,1687.54,1379.69,1675.82,1361,1674Zm191,72c-7.98,11.99-4.72,29.93-8,47-6.64,34.53-6.94,72.21-15,109-3.56,16.24-12.53,45.47-8,63h1l119-104c14.04-11.24,37.9-24.71,40-47C1663.2,1774.15,1593.21,1762.07,1552,1746Z"/>
</svg>
