<svg width="1440" height="810" viewBox="0 0 1440 810" fill="none" xmlns="http://www.w3.org/2000/svg">
<g opacity="0.65">
<path d="M1219.84 424.155C1168.84 457.1 1138.75 512.65 1081.82 538.655C1044.03 555.925 1001.92 557.922 959.458 557.922C946.764 557.922 934.035 557.741 921.389 557.741C912.243 557.741 903.146 557.837 894.125 558.159C738.938 563.686 689.479 623.863 560.264 680.454C515.021 700.265 473.944 708.49 435.861 708.49C266.028 708.574 155.188 544.673 0 513.64V514.336C154.528 545.33 265.431 709.112 435.861 709.197C474.104 709.197 515.326 700.926 560.674 681.071C690.09 624.367 739.312 564.376 894.16 558.861C903.16 558.538 912.25 558.448 921.389 558.448C934.028 558.448 946.75 558.623 959.458 558.623C1001.94 558.623 1044.22 556.638 1082.24 539.266C1139.49 513.074 1169.58 457.473 1220.38 424.703C1283.74 383.805 1360.56 350.955 1440 321.523V320.754C1360.4 350.231 1283.38 383.143 1219.84 424.155Z" fill="#6BB4DF"/>
<path d="M1389.38 342.815C1332.09 363.644 1277.24 386.961 1230.01 416.32C1208.61 429.642 1190.77 447.025 1173.39 465.133C1148.94 490.577 1126.22 516.378 1094.48 532.325C1059.06 550.104 1019.19 553.566 975.847 553.849C973.819 553.854 971.785 553.854 969.75 553.854C957.014 553.854 944.326 553.679 931.778 553.679C923.833 553.679 915.944 553.753 908.125 553.996C846.66 555.897 802.285 566.633 761.743 584.893C703.479 611.141 657.271 648.669 578.91 681.06C539.535 697.334 506.444 702.216 474.347 702.216C461.618 702.216 449.035 701.452 436.292 700.315C385.271 695.914 339.812 683.99 297.931 666.872C255.667 649.608 215.514 627.082 171.333 602.401C124.493 576.233 78.4931 548.305 27.5278 535.424C18.3681 533.139 9.20139 531.284 0 529.892V530.605C9.11111 531.991 18.1944 533.835 27.2778 536.098C78.0347 548.916 123.986 576.799 170.84 602.978C215.021 627.665 255.208 650.207 297.542 667.5C339.5 684.646 385.069 696.605 436.194 701.017C448.965 702.154 461.569 702.918 474.347 702.918C506.556 702.918 539.812 698.013 579.299 681.687C657.785 649.234 704.042 611.679 762.16 585.51C802.59 567.301 846.799 556.604 908.16 554.697C915.958 554.454 923.84 554.381 931.778 554.381C944.312 554.381 957.007 554.562 969.75 554.562C971.785 554.562 973.819 554.556 975.861 554.55C1019.24 554.262 1059.3 550.805 1094.93 532.924C1126.88 516.876 1149.63 490.99 1174.06 465.563C1191.44 447.472 1209.24 430.134 1230.53 416.88C1277.69 387.572 1332.47 364.277 1389.73 343.466C1406.33 337.424 1423.12 331.501 1440 325.647V324.883C1423 330.772 1406.09 336.745 1389.38 342.815Z" fill="#6BB4DF"/>
<path d="M1401.53 340.552C1343.82 358.999 1287.99 379.879 1240.17 408.485C1218.57 421.445 1200.48 438.614 1183.1 457.06C1158.67 482.986 1137.35 509.313 1107.14 525.989C1073.43 544.583 1034.98 549.278 990.014 549.77C986.965 549.798 983.917 549.804 980.896 549.804C967.715 549.804 954.681 549.601 941.847 549.601C935.215 549.601 928.646 549.657 922.132 549.827C861.312 551.428 817.771 561.848 776.826 582.444C720.403 610.824 676.701 650.728 597.562 681.665C565.924 694.036 539.91 697.787 515.201 697.787C494.188 697.787 474.104 695.066 452.333 692.605C399.083 686.575 351.972 678.989 310.118 666.793C267.5 654.371 227.278 637.378 179.069 614.36C129.194 590.545 81.3125 561.118 27.4514 550.228C18.2083 548.362 9.07639 546.925 0 545.952V546.653C9.00694 547.632 18.0694 549.057 27.2431 550.913C80.8681 561.746 128.701 591.116 178.639 614.965C226.861 638 267.139 655.01 309.826 667.449C351.771 679.674 398.938 687.271 452.215 693.301C473.965 695.762 494.09 698.494 515.201 698.494C540.014 698.494 566.194 694.709 597.931 682.298C677.236 651.293 721 611.339 777.278 583.044C818.097 562.521 861.444 552.135 922.16 550.528C928.66 550.359 935.222 550.308 941.847 550.308C954.667 550.308 967.708 550.506 980.896 550.506C983.924 550.506 986.965 550.5 990.021 550.477C1035.05 549.98 1073.71 545.279 1107.62 526.572C1138.03 509.782 1159.39 483.382 1183.78 457.496C1201.15 439.06 1219.19 421.943 1240.68 409.051C1288.41 380.501 1344.17 359.644 1401.84 341.203C1414.5 337.158 1427.23 333.108 1440 329.052V328.294C1427.13 332.384 1414.29 336.468 1401.53 340.552Z" fill="#6BB4DF"/>
<path d="M1413.67 338.284C1355.57 354.361 1298.76 372.785 1250.33 400.651C1228.53 413.248 1210.18 430.202 1192.81 448.999C1168.42 475.389 1148.49 502.242 1119.81 519.659C1087.8 539.068 1050.78 544.99 1004.17 545.697C1000.35 545.743 996.556 545.76 992.771 545.76C978.833 545.76 965.146 545.516 951.736 545.516C946.493 545.516 941.292 545.55 936.132 545.658C875.972 546.964 833.257 557 791.91 579.995C737.292 610.383 696.069 652.708 616.208 682.276C590.25 691.887 568.882 695.1 549.153 695.1C521.681 695.105 497.375 688.855 468.382 684.889C412.889 677.315 363.979 674.022 322.299 666.708C279.167 659.145 239.125 647.639 186.819 626.318C133.979 604.794 84.0903 574.021 27.3819 565.038C18.0694 563.562 8.96528 562.521 0 561.921V562.628C8.90972 563.222 17.9583 564.257 27.2153 565.728C83.6528 574.66 133.507 605.377 186.438 626.952C238.785 648.284 278.917 659.818 322.118 667.398C363.882 674.724 412.792 678.005 468.236 685.585C497.153 689.528 521.514 695.801 549.153 695.807C568.993 695.807 590.514 692.566 616.569 682.915C696.618 653.268 737.924 610.864 792.403 580.577C833.611 557.662 876.09 547.666 936.16 546.365C941.306 546.257 946.493 546.218 951.736 546.218C965.132 546.218 978.826 546.461 992.771 546.461C996.556 546.461 1000.36 546.45 1004.19 546.399C1050.86 545.697 1088.12 539.752 1120.31 520.225C1149.19 502.688 1169.13 475.773 1193.49 449.429C1210.84 430.649 1229.14 413.752 1250.83 401.228C1299.15 373.424 1355.88 355.023 1413.94 338.952C1422.62 336.553 1431.31 334.109 1440 331.654V330.908C1431.22 333.391 1422.44 335.857 1413.67 338.284Z" fill="#6BB4DF"/>
<path d="M1425.81 336.016C1367.34 349.75 1309.51 365.697 1260.49 392.816C1238.49 405.046 1219.88 421.784 1202.52 440.944C1178.15 467.803 1159.62 495.182 1132.47 513.335C1102.17 533.552 1066.58 540.793 1018.34 541.619C1013.69 541.698 1009.08 541.732 1004.51 541.732C989.688 541.732 975.229 541.415 961.153 541.415C957.451 541.415 953.785 541.432 950.139 541.494C890.625 542.49 848.729 552.078 806.993 577.551C754.118 609.829 715.389 654.62 634.854 682.887C612.66 690.676 594.264 693.488 577.625 693.488C545 693.499 519.028 682.649 484.424 677.179C426.694 668.055 375.847 669.135 334.479 666.635C290.667 663.982 251.035 657.85 194.562 638.288C138.84 618.998 86.8542 586.941 27.3125 579.842C17.9514 578.728 8.86805 578.037 0 577.783V578.49C8.83333 578.744 17.8681 579.429 27.1944 580.538C86.4306 587.592 138.375 619.575 194.222 638.939C250.771 658.523 290.542 664.683 334.417 667.336C375.854 669.836 426.639 668.767 484.264 677.863C518.729 683.305 544.75 694.183 577.625 694.195C594.389 694.195 612.91 691.355 635.194 683.537C715.951 655.18 754.792 610.281 807.514 578.111C849.097 552.734 890.736 543.203 950.16 542.196C953.799 542.139 957.458 542.117 961.153 542.117C975.215 542.117 989.681 542.439 1004.51 542.439C1009.09 542.439 1013.7 542.405 1018.35 542.326C1066.67 541.5 1102.53 534.225 1133.01 513.872C1160.35 495.595 1178.88 468.165 1203.21 441.357C1220.55 422.237 1239.1 405.566 1260.98 393.393C1309.87 366.353 1367.6 350.412 1426.05 336.694C1430.71 335.603 1435.35 334.471 1440 333.351V332.616C1435.28 333.759 1430.54 334.907 1425.81 336.016Z" fill="#6BB4DF"/>
<path d="M1437.96 333.753C1379.12 345.151 1320.27 358.609 1270.65 384.981C1248.45 396.849 1229.58 413.378 1212.23 432.878C1187.9 460.206 1170.76 488.111 1145.12 507.005C1116.53 528.031 1082.37 536.511 1032.5 537.546C1027.4 537.653 1022.35 537.693 1017.34 537.693C1001.47 537.693 986.09 537.286 971.215 537.286C968.847 537.286 966.486 537.303 964.146 537.325C905.285 538.027 864.16 547.089 822.09 575.102C770.903 609.178 734.66 656.464 653.5 683.498C633.896 690.026 617.528 692.52 602.896 692.52C565.771 692.526 539.708 676.444 500.465 669.463C473.382 664.655 447.736 663.144 423.993 663.144C395.16 663.144 369.111 665.362 346.66 666.561C335.917 667.138 325.5 667.523 315.021 667.523C281.986 667.523 248.382 663.733 202.306 650.258C143.75 633.135 89.6181 599.873 27.2431 594.652C18.4028 593.916 9.875 593.543 1.58333 593.543C1.04861 593.543 0.527778 593.554 0 593.554V594.261C0.527778 594.256 1.04861 594.244 1.58333 594.244C9.84722 594.244 18.3472 594.618 27.1528 595.353C89.2083 600.529 143.299 633.723 202.014 650.92C248.167 664.417 281.91 668.224 315.021 668.224C325.528 668.224 335.965 667.834 346.715 667.268C369.194 666.063 395.215 663.852 423.993 663.852C447.694 663.852 473.271 665.351 500.285 670.148C539.306 677.072 565.438 693.205 602.896 693.222C617.646 693.222 634.139 690.704 653.833 684.148C735.236 657.024 771.597 609.603 822.632 575.645C864.562 547.745 905.382 538.734 964.153 538.032C966.493 538.004 968.847 537.993 971.215 537.993C986.076 537.993 1001.44 538.394 1017.34 538.394C1022.35 538.394 1027.41 538.355 1032.52 538.247C1082.49 537.229 1116.94 528.693 1145.71 507.525C1171.51 488.501 1188.64 460.556 1212.93 433.29C1230.25 413.837 1249.05 397.375 1271.13 385.569C1320.59 359.277 1379.35 345.825 1438.16 334.437C1438.77 334.319 1439.39 334.194 1440 334.07V333.351C1439.32 333.481 1438.64 333.617 1437.96 333.753Z" fill="#6BB4DF"/>
<path d="M1280.82 377.141C1258.42 388.652 1239.29 404.967 1221.94 424.817C1197.63 452.614 1181.91 481.045 1157.79 500.675C1130.9 522.521 1098.17 532.24 1046.66 533.473C1041.18 533.603 1035.78 533.654 1030.44 533.654C1013.44 533.654 997.132 533.15 981.451 533.15C980.347 533.15 979.243 533.15 978.146 533.156C919.938 533.552 879.542 542.049 837.174 572.652C787.618 608.448 753.889 658.251 672.153 684.109C654.424 689.715 639.514 691.938 626.271 691.938C584.986 691.955 559.778 670.244 516.507 661.747C495.465 657.623 475.257 656.068 456.146 656.068C418.778 656.068 385.646 662.036 358.833 666.505C336.222 670.266 315.354 673.157 292.097 673.157C268.611 673.157 242.681 670.21 210.062 662.222C148.688 647.215 92.3819 612.821 27.1736 609.461C21.5694 609.173 16.0903 609.031 10.7361 609.031C7.10417 609.031 3.52778 609.099 0 609.24V609.942C3.52778 609.806 7.10417 609.733 10.7361 609.733C16.0694 609.733 21.5278 609.88 27.125 610.168C91.9792 613.483 148.243 647.814 209.812 662.901C242.493 670.9 268.514 673.858 292.097 673.858C315.444 673.858 336.382 670.956 359.007 667.189C385.826 662.731 418.889 656.775 456.146 656.775C475.201 656.775 495.34 658.325 516.299 662.432C559.299 670.832 584.556 692.616 626.271 692.639C639.632 692.639 654.66 690.393 672.465 684.765C754.5 658.806 788.347 608.839 837.75 573.178C879.972 542.699 920.028 534.27 978.153 533.863C979.243 533.858 980.347 533.852 981.451 533.852C997.111 533.852 1013.42 534.355 1030.44 534.355C1035.78 534.355 1041.2 534.304 1046.68 534.174C1098.3 532.947 1131.35 523.16 1158.4 501.178C1182.67 481.402 1198.38 452.948 1222.65 425.224C1239.94 405.425 1259.01 389.178 1281.28 377.735C1328.43 353.676 1384.23 342.572 1440 333.776V333.063C1384.15 341.865 1328.17 352.98 1280.82 377.141Z" fill="#6BB4DF"/>
<path d="M1290.98 369.306C1268.38 380.456 1248.99 396.549 1231.65 416.75C1207.37 445.023 1193.05 473.98 1170.45 494.35C1145.26 517.006 1113.97 527.957 1060.83 529.4C1055.03 529.553 1049.35 529.615 1043.74 529.615C1025.69 529.615 1008.53 528.998 992.146 528.993C934.597 529.083 894.875 536.946 852.264 570.203C804.271 607.651 773.097 659.988 690.799 684.72C674.507 689.607 660.688 691.61 648.465 691.61C603.16 691.643 579.472 664.038 532.549 654.037C514.167 650.128 496.403 648.55 479.444 648.55C436.972 648.55 399.674 658.461 371.028 666.442C341.389 674.701 315.222 681.286 282.076 681.286C263.472 681.286 242.667 679.215 217.812 674.192C153.639 661.238 95.1389 625.775 27.1111 624.276C24.6458 624.22 22.2014 624.191 19.7917 624.191C12.9792 624.191 6.40278 624.418 0 624.848V625.555C6.40278 625.125 12.9792 624.899 19.7917 624.899C22.1944 624.899 24.625 624.921 27.0903 624.978C94.75 626.443 153.208 661.849 217.604 674.877C242.514 679.911 263.396 681.993 282.076 681.993C315.368 681.993 341.66 675.369 371.299 667.115C399.944 659.128 437.139 649.257 479.444 649.257C496.333 649.257 514.028 650.824 532.326 654.721C578.91 664.587 602.66 692.283 648.465 692.311C660.806 692.311 674.722 690.291 691.097 685.376C773.729 660.537 805.021 608.013 852.861 570.712C895.34 537.591 934.674 529.802 992.146 529.7C1008.51 529.7 1025.67 530.322 1043.74 530.322C1049.35 530.322 1055.06 530.26 1060.85 530.107C1114.11 528.67 1145.76 517.634 1171.09 494.825C1193.83 474.308 1208.13 445.339 1232.36 417.152C1249.65 397.013 1268.96 380.993 1291.42 369.911C1335.72 348.229 1387.81 339.07 1440 332.576V331.858C1387.73 338.363 1335.47 347.533 1290.98 369.306Z" fill="#6BB4DF"/>
<path d="M1301.14 361.477C1278.34 372.259 1258.69 388.138 1241.36 408.683C1217.1 437.431 1204.19 466.915 1183.11 488.026C1159.63 511.49 1129.76 523.67 1074.99 525.321C1068.94 525.508 1062.99 525.576 1057.17 525.576C1039.24 525.576 1022.28 524.914 1006.15 524.824C1005.39 524.818 1004.63 524.818 1003.88 524.818C948.215 524.807 909.576 532.285 867.354 567.759C820.861 606.808 792.292 661.679 709.444 685.325C694.285 689.652 681.333 691.462 669.889 691.462C620.646 691.508 598.903 657.844 548.583 646.327C531.694 642.469 515.292 640.862 499.576 640.862C453.264 640.862 412.882 654.818 383.215 666.391C348.625 679.889 319.319 690.727 276.972 690.727C261.799 690.727 244.938 689.335 225.562 686.162C158.931 675.278 98.5 639.097 28.0972 639.08C27.7431 639.08 27.3958 639.08 27.0417 639.086C17.5972 639.131 8.61805 639.578 0 640.393V641.105C8.61111 640.285 17.5972 639.838 27.0486 639.787C27.4028 639.787 27.75 639.782 28.0972 639.782C98.125 639.77 158.514 675.9 225.396 686.858C244.819 690.037 261.729 691.434 276.972 691.434C319.514 691.434 349 680.522 383.583 667.031C413.222 655.462 453.479 641.564 499.576 641.564C515.222 641.564 531.542 643.159 548.354 647.005C598.278 658.347 620.069 692.124 669.889 692.164C681.444 692.164 694.493 690.337 709.736 685.992C792.944 662.222 821.632 607.13 867.972 568.245C910.076 532.919 948.285 525.531 1003.88 525.525C1004.63 525.525 1005.39 525.525 1006.15 525.531C1022.25 525.621 1039.21 526.277 1057.17 526.277C1063.01 526.277 1068.95 526.21 1075.01 526.028C1129.92 524.388 1160.17 512.096 1183.78 488.467C1204.99 467.214 1217.89 437.731 1242.08 409.091C1259.35 388.602 1278.91 372.802 1301.58 362.082C1342.97 342.651 1391.36 335.088 1440 330.523V329.81C1391.28 334.386 1342.75 341.95 1301.14 361.477Z" fill="#6BB4DF"/>
<path d="M1311.31 353.642C1288.31 364.057 1268.4 379.732 1251.08 400.622C1226.85 429.834 1215.33 459.855 1195.78 481.702C1174 505.981 1145.56 519.382 1089.15 521.248C1082.87 521.458 1076.73 521.531 1070.71 521.531C1052.85 521.531 1036.06 520.836 1020.16 520.66C1018.23 520.643 1016.33 520.632 1014.47 520.632C961.292 520.621 923.896 527.94 882.451 565.309C837.389 605.92 811.465 663.331 728.097 685.936C713.854 689.794 701.611 691.44 690.778 691.44C637.625 691.491 618.153 651.655 564.625 638.611C548.632 634.724 533.076 633.078 518.118 633.078C468.625 633.084 425.729 651.146 395.41 666.34C357.028 685.579 325.66 700.955 274.215 700.955C261.861 700.955 248.354 700.072 233.312 698.137C165.542 689.426 104.25 653.816 33.2431 653.799C31.1597 653.799 29.0764 653.833 26.9861 653.895C17.5347 654.184 8.56944 654.851 0 655.87V656.588C8.57639 655.553 17.5486 654.88 27.0139 654.597C29.0972 654.54 31.1736 654.506 33.2431 654.506C103.882 654.495 165.139 690.06 233.188 698.833C248.257 700.774 261.812 701.662 274.215 701.662C325.889 701.667 357.5 686.173 395.868 666.946C426.132 651.768 468.889 633.78 518.118 633.785C533 633.785 548.472 635.42 564.382 639.284C617.465 652.114 636.986 692.096 690.778 692.147C701.722 692.147 714.062 690.484 728.361 686.603C812.146 663.874 838.181 606.208 883.09 565.779C924.431 528.563 961.361 521.345 1014.47 521.339C1016.33 521.339 1018.23 521.339 1020.15 521.362C1036.03 521.537 1052.81 522.238 1070.71 522.238C1076.74 522.238 1082.89 522.159 1089.19 521.956C1145.73 520.106 1174.58 506.558 1196.48 482.115C1216.14 460.121 1227.63 430.128 1251.79 401.018C1269.06 380.19 1288.87 364.611 1311.73 354.253C1350.22 336.943 1394.89 330.676 1440 327.666V326.965C1394.81 329.974 1350.01 336.248 1311.31 353.642Z" fill="#6BB4DF"/>
<path d="M1321.47 345.802C1298.26 355.86 1278.1 371.32 1260.78 392.561C1236.58 422.243 1226.47 452.79 1208.44 475.377C1188.37 500.471 1161.35 515.088 1103.31 517.176C1096.83 517.408 1090.5 517.498 1084.31 517.498C1066.51 517.498 1049.87 516.751 1034.16 516.491C1031.09 516.451 1028.08 516.423 1025.11 516.423C974.361 516.401 938.132 523.687 897.535 562.86C853.861 605.003 830.625 664.949 746.743 686.547C733.285 690.014 721.632 691.508 711.312 691.508C654.229 691.576 637.271 645.461 580.66 630.895C565.236 626.946 550.215 625.238 535.743 625.238C483.451 625.238 438.403 647.464 407.618 666.295C366.181 691.632 333.34 711.72 272.625 711.725C262.875 711.725 252.403 711.21 241.069 710.107C172.111 703.432 109.91 668.428 38.2361 668.411C34.4931 668.411 30.7153 668.513 26.9236 668.711C17.4792 669.208 8.53472 670.074 0 671.296V672.009C8.54167 670.787 17.5069 669.91 26.9792 669.406C30.7569 669.208 34.5069 669.112 38.2361 669.112C109.556 669.101 171.722 704.077 240.965 710.809C252.34 711.912 262.84 712.432 272.625 712.432C333.604 712.438 366.736 692.187 408.139 666.855C438.854 648.058 483.764 625.939 535.743 625.945C550.132 625.945 565.062 627.631 580.403 631.568C636.528 645.88 653.521 692.153 711.312 692.215C721.729 692.215 733.479 690.699 747 687.22C831.333 665.481 854.667 605.258 898.194 563.318C938.688 524.292 974.444 517.147 1025.11 517.125C1028.07 517.125 1031.08 517.147 1034.15 517.193C1049.83 517.453 1066.47 518.205 1084.31 518.205C1090.51 518.205 1096.85 518.115 1103.35 517.877C1161.54 515.824 1188.99 501.025 1209.17 475.762C1227.3 453.021 1237.38 422.52 1261.51 392.952C1278.76 371.784 1298.82 356.42 1321.88 346.424C1357.47 331.111 1398.42 325.375 1440 323.599V322.892C1398.33 324.668 1357.24 330.415 1321.47 345.802Z" fill="#6BB4DF"/>
<path d="M1331.63 337.973C1308.24 347.663 1287.81 362.903 1270.49 384.5C1246.32 414.651 1237.61 445.719 1221.11 469.059C1202.73 494.967 1177.15 510.704 1117.47 513.103C1110.86 513.346 1104.41 513.442 1098.13 513.442C1080.28 513.442 1063.73 512.673 1048.17 512.322C1043.98 512.237 1039.9 512.186 1035.9 512.186C987.472 512.169 952.306 519.518 912.625 560.411C870.264 604.07 849.785 666.522 765.389 687.152C752.611 690.28 741.465 691.655 731.569 691.655C670.535 691.728 656.299 639.278 596.701 623.185C581.632 619.134 566.938 617.369 552.771 617.369C497.944 617.375 450.993 643.753 419.826 666.244C375.854 697.962 341.889 722.886 271.646 722.892C264.438 722.892 256.847 722.626 248.826 722.083C178.653 717.326 115.521 682.938 43.125 682.926C37.7569 682.926 32.3403 683.119 26.8611 683.52C17.4236 684.216 8.49306 685.268 0 686.66V687.378C8.51389 685.981 17.4722 684.923 26.9375 684.216C32.3889 683.82 37.7847 683.628 43.125 683.628C115.181 683.611 178.285 717.976 248.75 722.79C256.799 723.333 264.41 723.593 271.646 723.593C342.174 723.605 376.472 698.477 420.403 666.765C451.493 644.33 498.299 618.065 552.771 618.071C566.854 618.071 581.444 619.819 596.431 623.852C655.507 639.657 669.778 692.283 731.569 692.356C741.569 692.356 752.785 690.97 765.639 687.831C850.521 667.053 871.09 604.291 913.306 560.846C952.896 520.111 987.562 512.91 1035.9 512.893C1039.89 512.893 1043.96 512.939 1048.15 513.029C1063.69 513.369 1080.26 514.144 1098.13 514.144C1104.42 514.144 1110.88 514.053 1117.51 513.804C1177.34 511.44 1203.41 495.487 1221.86 469.409C1238.44 445.928 1247.13 414.911 1271.22 384.885C1288.47 363.372 1308.77 348.234 1332.02 338.601C1364.69 325.16 1401.95 320.731 1440 319.814V319.119C1401.88 320.029 1364.48 324.464 1331.63 337.973Z" fill="#6BB4DF"/>
<path d="M1341.8 330.138C1318.19 339.466 1297.51 354.496 1280.21 376.434C1256.06 407.06 1248.76 438.659 1233.78 462.734C1217.09 489.457 1192.94 506.416 1131.64 509.03C1124.84 509.301 1118.24 509.409 1111.81 509.409C1094 509.409 1077.56 508.583 1062.17 508.159C1056.92 508.023 1051.84 507.938 1046.9 507.938C1000.65 507.915 966.444 515.422 927.722 557.961C886.625 603.12 868.931 668.077 784.035 687.769C771.84 690.597 761.139 691.853 751.611 691.853C686.59 691.938 675.194 633.191 612.743 615.469C597.896 611.328 583.431 609.506 569.472 609.506C512.236 609.518 463.542 640.014 432.042 666.188C385.917 704.513 351.028 734.353 270.972 734.364C266.326 734.364 261.535 734.262 256.576 734.058C185.181 731.111 121.097 697.374 47.9444 697.357C40.9861 697.357 33.9444 697.662 26.7986 698.33C17.3681 699.212 8.47222 700.445 0 701.995V702.72C8.49306 701.158 17.4306 699.919 26.8958 699.031C34 698.369 41.0208 698.058 47.9444 698.058C120.771 698.041 184.826 731.773 256.535 734.76C261.507 734.969 266.312 735.065 270.972 735.065C351.333 735.077 386.597 704.982 432.66 666.68C464.083 640.557 512.632 610.208 569.472 610.213C583.34 610.213 597.708 612.018 612.458 616.136C674.368 633.525 685.799 692.475 751.611 692.554C761.236 692.554 772.007 691.287 784.271 688.447C869.694 668.598 887.458 603.301 928.417 558.38C967.069 515.993 1000.74 508.662 1046.9 508.639C1051.83 508.639 1056.9 508.724 1062.14 508.866C1077.52 509.284 1093.97 510.11 1111.81 510.11C1118.24 510.11 1124.87 509.997 1131.68 509.731C1193.15 507.163 1217.83 489.949 1234.55 463.051C1249.6 438.834 1256.88 407.303 1280.94 376.813C1298.17 354.966 1318.72 340.038 1342.17 330.772C1371.9 319.09 1405.51 315.289 1440 314.972V314.271C1405.43 314.588 1371.69 318.389 1341.8 330.138Z" fill="#6BB4DF"/>
<path d="M1439.92 308.885C1408.96 308.885 1378.89 312.212 1351.96 322.298C1328.17 331.264 1307.21 346.085 1289.92 368.367C1265.8 399.463 1259.9 431.588 1246.45 456.416C1231.47 483.947 1208.74 502.128 1145.8 504.957C1138.83 505.251 1132.08 505.37 1125.53 505.37C1107.73 505.37 1091.41 504.499 1076.17 503.995C1069.95 503.791 1063.94 503.661 1058.14 503.661C1013.89 503.639 980.562 511.377 942.819 555.512C902.924 602.158 888.083 669.599 802.681 688.379C791.035 690.942 780.75 692.09 771.556 692.09C702.486 692.186 694.097 626.997 628.778 607.758C614.042 603.47 599.667 601.587 585.799 601.587C526.34 601.592 476.049 636.263 444.271 666.137C396.285 711.222 360.583 746.068 270.438 746.079C268.431 746.079 266.396 746.068 264.333 746.034C191.611 744.818 126.549 711.765 52.5139 711.748C44.0417 711.748 35.4653 712.178 26.7431 713.145C17.3264 714.214 8.44444 715.617 0 717.331V718.061C8.47917 716.335 17.3958 714.916 26.8611 713.841C35.5417 712.885 44.0764 712.455 52.5139 712.455C126.222 712.438 191.278 745.479 264.319 746.735C266.382 746.775 268.424 746.786 270.438 746.786C360.903 746.803 397 711.663 444.924 666.601C476.625 636.778 526.778 602.277 585.799 602.288C599.576 602.288 613.84 604.161 628.486 608.42C693.236 627.297 701.653 692.701 771.556 692.797C780.84 692.797 791.194 691.632 802.91 689.058C888.868 670.114 903.778 602.305 943.528 555.913C981.222 511.926 1014.01 504.385 1058.14 504.363C1063.94 504.363 1069.92 504.499 1076.14 504.697C1091.35 505.206 1107.69 506.071 1125.53 506.071C1132.09 506.071 1138.85 505.952 1145.85 505.658C1208.96 502.881 1232.23 484.411 1247.24 456.698C1260.76 431.735 1266.63 399.7 1290.65 368.746C1307.87 346.554 1328.68 331.847 1352.33 322.943C1379.09 312.907 1409.03 309.581 1439.92 309.581C1439.95 309.581 1439.97 309.587 1440 309.587V308.885C1439.97 308.885 1439.95 308.885 1439.92 308.885Z" fill="#6BB4DF"/>
<path d="M1438.49 303.065C1411.64 303.065 1385.67 306.063 1362.12 314.469C1338.12 323.067 1316.92 337.667 1299.63 360.306C1275.53 391.871 1271.06 424.528 1259.12 450.091C1245.83 478.449 1224.53 497.835 1159.97 500.878C1152.84 501.201 1145.96 501.331 1139.29 501.331C1121.49 501.331 1105.26 500.414 1090.17 499.826C1083.06 499.555 1076.24 499.362 1069.65 499.362C1027.23 499.34 994.688 507.367 957.924 553.063C919.188 601.196 907.229 671.092 821.326 688.99C810.188 691.31 800.292 692.362 791.41 692.362C718.229 692.464 712.965 620.814 644.812 600.042C630.104 595.608 615.764 593.639 601.917 593.639C540.319 593.656 488.535 632.484 456.486 666.08C407.236 717.705 370.972 757.427 272.097 758.004C271.611 758.004 271.132 758.009 270.653 758.009C197.278 758.026 131.66 726.048 57.3611 726.037C47.2986 726.037 37.0903 726.625 26.6806 727.96C17.2778 729.177 8.42361 730.738 0 732.588V733.317C8.45833 731.451 17.3611 729.884 26.8194 728.65C37.1806 727.321 47.3472 726.744 57.3611 726.744C131.347 726.727 196.965 758.7 270.653 758.711C271.139 758.711 271.611 758.711 272.097 758.711C371.319 758.162 407.993 718.1 457.174 666.51C489.146 632.982 540.799 594.335 601.917 594.346C615.66 594.346 629.896 596.298 644.514 600.704C712.076 621.069 717.347 692.962 791.41 693.069C800.368 693.069 810.34 692.006 821.549 689.675C908.042 671.601 920.042 601.315 958.632 553.447C995.375 507.898 1027.36 500.092 1069.65 500.069C1076.22 500.069 1083.03 500.256 1090.14 500.528C1105.21 501.116 1121.46 502.032 1139.29 502.032C1145.97 502.032 1152.87 501.908 1160.01 501.585C1224.77 498.604 1246.64 478.868 1259.92 450.346C1271.9 424.647 1276.38 392.086 1300.37 360.679C1317.57 338.143 1338.63 323.655 1362.47 315.114C1385.87 306.764 1411.72 303.772 1438.49 303.772C1439 303.772 1439.5 303.777 1440 303.783V303.076C1439.5 303.076 1439 303.065 1438.49 303.065Z" fill="#6BB4DF"/>
<path d="M1439.37 296.904C1415.82 296.904 1393.1 299.563 1372.28 306.64C1348.09 314.87 1326.62 329.256 1309.35 352.239C1285.28 384.28 1282.19 417.463 1271.79 443.767C1260.19 472.939 1240.33 493.553 1174.12 496.8C1166.85 497.15 1159.84 497.292 1153.08 497.292C1135.26 497.292 1119.12 496.325 1104.18 495.657C1096.26 495.306 1088.7 495.046 1081.44 495.046C1040.65 495.018 1008.81 503.373 973.007 550.613C935.403 600.235 926.382 672.574 839.972 689.601C829.299 691.7 819.771 692.667 811.174 692.667C733.833 692.775 731.792 614.626 660.847 592.332C646.118 587.739 631.757 585.691 617.882 585.691C554.222 585.708 501.014 628.689 468.708 666.029C419.299 723.152 382.931 767.213 279.854 769.985C277.535 770.041 275.229 770.07 272.938 770.07C200.535 770.087 135.41 740.275 62.1944 740.264C50.5556 740.264 38.7222 741.022 26.625 742.77C17.2361 744.133 8.39583 745.825 0 747.799V748.54C8.44444 746.543 17.3264 744.835 26.7778 743.46C38.8264 741.723 50.6042 740.971 62.1944 740.971C135.111 740.954 200.236 770.766 272.938 770.777C275.243 770.777 277.562 770.743 279.875 770.686C383.312 767.943 420.076 723.52 469.417 666.437C501.646 629.164 554.729 586.381 617.882 586.393C631.646 586.393 645.903 588.423 660.535 592.988C730.882 614.852 732.924 693.256 811.174 693.369C819.847 693.369 829.451 692.401 840.181 690.286C927.222 673.072 936.264 600.325 973.743 550.986C1009.53 503.888 1040.81 495.776 1081.44 495.748C1088.68 495.748 1096.22 496.008 1104.14 496.364C1119.07 497.032 1135.23 497.993 1153.08 497.993C1159.86 497.993 1166.88 497.858 1174.18 497.507C1240.58 494.322 1261.05 473.324 1272.61 443.988C1283.06 417.548 1286.12 384.478 1310.08 352.613C1327.28 329.737 1348.58 315.47 1372.62 307.285C1393.29 300.259 1415.9 297.606 1439.37 297.606C1439.58 297.606 1439.79 297.611 1440 297.611V296.91C1439.79 296.91 1439.58 296.904 1439.37 296.904Z" fill="#6BB4DF"/>
<path d="M1319.06 344.178C1293.7 378.459 1293.23 414.074 1282.94 441.815C1272.62 469.539 1252.79 489.434 1188.28 492.732C1180.88 493.106 1173.74 493.253 1166.88 493.253C1138.67 493.253 1114.87 490.707 1093.47 490.707C1054.17 490.685 1022.96 499.402 988.111 548.169C951.576 599.284 945.528 674.028 858.625 690.212C848.396 692.113 839.208 692.995 830.903 692.995C749.319 693.114 750.597 608.449 676.882 584.616C662.076 579.859 647.66 577.732 633.722 577.732C568.049 577.743 513.472 624.87 480.944 665.973C431.375 728.571 394.861 776.982 287.611 781.96C283.486 782.147 279.389 782.232 275.312 782.232C203.84 782.249 139.215 754.451 67.0278 754.44C53.8194 754.44 40.3611 755.379 26.5694 757.579C17.1944 759.079 8.38195 760.894 0 762.987V763.728C8.42361 761.613 17.2986 759.786 26.7361 758.275C40.4653 756.075 53.8681 755.147 67.0278 755.147C138.931 755.136 203.556 782.928 275.312 782.945C279.403 782.945 283.521 782.854 287.66 782.662C395.292 777.701 432.181 728.911 481.667 666.357C514.125 625.323 568.597 578.416 633.722 578.433C647.549 578.433 661.861 580.538 676.569 585.272C749.66 608.63 748.389 693.578 830.903 693.697C839.292 693.697 848.535 692.809 858.812 690.897C946.41 674.515 952.444 599.341 988.854 548.52C1023.69 499.894 1054.35 491.437 1093.47 491.414C1114.79 491.409 1138.61 493.96 1166.88 493.96C1173.76 493.96 1180.9 493.807 1188.34 493.434C1253.03 490.204 1273.47 469.93 1283.77 442.019C1294.09 414.125 1294.57 378.634 1319.8 344.546C1349.63 304.23 1392.7 291.519 1440 291.185V290.484C1392.53 290.795 1349.03 303.636 1319.06 344.178Z" fill="#6BB4DF"/>
<path d="M1105.65 643.962C1095.24 643.962 1084.67 643.611 1073.94 642.882C1012.28 638.673 950.521 631.166 891.368 616.283C831.299 601.174 774.639 584.051 710.799 582.365C704.382 582.195 697.965 582.11 691.556 582.11C597.722 582.116 504.236 599.064 410.632 599.058C390.389 599.058 370.139 598.266 349.889 596.343C238.882 585.821 148.903 521.967 55.1111 476.955C39.7778 469.602 20.6528 459.165 0 449.893V451.234C20.3194 460.392 39.1875 470.665 54.3889 477.968C148.021 522.878 238.125 586.896 349.722 597.514C370.042 599.443 390.347 600.235 410.632 600.235C504.458 600.229 597.938 583.281 691.556 583.281C697.951 583.281 704.347 583.366 710.75 583.536C774.292 585.21 830.812 602.277 890.931 617.403C950.243 632.32 1012.1 639.838 1073.82 644.047C1084.59 644.788 1095.2 645.139 1105.65 645.139C1229.93 645.116 1332.51 595.528 1440 551.569V550.262C1332.21 594.295 1229.67 643.979 1105.65 643.962Z" fill="#404C98"/>
<path d="M1125.27 649.347C1115.97 649.347 1106.54 649.076 1096.98 648.499C1033.24 644.692 970.132 636.795 909.194 621.046C848.271 605.394 790.674 587.354 726.354 584.514C715.84 584.051 705.326 583.841 694.812 583.841C609.868 583.847 525.153 597.316 440.278 597.31C418.118 597.31 395.951 596.394 373.757 594.086C261.785 582.433 171.931 517.9 74.1736 477.702C53.1528 469.064 27.2708 457.66 0 449.209V450.465C26.9583 458.865 52.625 470.15 73.5278 478.749C171.069 518.822 261.021 583.502 373.576 595.245C395.84 597.565 418.069 598.481 440.278 598.481C525.333 598.475 610.062 585.012 694.812 585.018C705.299 585.018 715.785 585.222 726.278 585.691C790.299 588.508 847.785 606.491 908.75 622.166C969.84 637.949 1033.06 645.851 1096.88 649.675C1106.47 650.247 1115.92 650.518 1125.27 650.518C1241.88 650.507 1339.53 607.617 1440 566.554V565.242C1339.28 606.384 1241.67 649.364 1125.27 649.347Z" fill="#404C98"/>
<path d="M1144.89 654.761C1136.7 654.761 1128.42 654.557 1120.03 654.127C1054.2 650.722 989.75 642.418 927.014 625.815C865.25 609.614 806.729 590.692 741.924 586.67C727.312 585.759 712.715 585.38 698.118 585.38C622.236 585.386 546.465 595.624 470.528 595.624C446.25 595.624 421.951 594.578 397.625 591.817C284.667 579.022 194.153 514.641 93.2361 478.449C66.2222 468.776 33.6111 457.27 0 450.646V451.851C33.3194 458.458 65.75 469.879 92.6597 479.529C193.306 515.58 283.91 580.085 397.424 592.983C421.833 595.755 446.194 596.795 470.528 596.795C546.618 596.795 622.396 586.551 698.118 586.557C712.688 586.557 727.243 586.93 741.812 587.835C806.34 591.834 864.75 610.711 926.569 626.929C989.444 643.572 1054.02 651.893 1119.94 655.293C1128.35 655.728 1136.67 655.938 1144.89 655.938C1253.8 655.921 1346.33 619.18 1440 581.381V580.074C1346.12 617.946 1253.62 654.778 1144.89 654.761Z" fill="#404C98"/>
<path d="M1164.52 660.214C1157.44 660.214 1150.3 660.061 1143.08 659.745C1075.15 656.775 1009.35 648.041 944.84 630.578C882.229 613.834 822.806 594.046 757.486 588.819C738.667 587.315 719.847 586.726 701.035 586.726C634.646 586.732 568.257 594.024 501.722 594.018C475.007 594.018 448.271 592.841 421.493 589.56C307.542 575.588 215.868 511.971 112.306 479.207C79.0347 468.691 39.7222 457.756 0 453.621V454.798C39.4653 458.927 78.6181 469.811 111.785 480.304C215.042 512.933 306.799 576.646 421.278 590.72C448.146 594.018 474.951 595.189 501.722 595.189C568.389 595.189 634.778 587.903 701.035 587.903C719.812 587.903 738.576 588.486 757.347 589.99C822.396 595.183 881.722 614.926 944.396 631.687C1009.04 649.195 1074.97 657.94 1143 660.916C1150.24 661.238 1157.42 661.379 1164.52 661.379C1265.7 661.374 1352.92 630.222 1440 595.953V594.646C1352.74 628.988 1265.56 660.225 1164.52 660.214Z" fill="#404C98"/>
<path d="M1184.13 665.69C1178.18 665.69 1172.17 665.582 1166.12 665.368C1096.09 662.839 1029.01 653.556 962.667 635.347C899.25 617.941 838.903 597.435 773.042 590.969C749.674 588.678 726.292 587.875 702.903 587.869C646.833 587.875 590.708 592.513 534.451 592.508C504.792 592.513 475.104 591.223 445.361 587.298C330.41 572.126 237.271 509.754 131.382 479.965C91.6389 468.793 45.6667 458.944 0 457.745V458.916C45.4306 460.115 91.2569 469.93 130.91 481.074C236.472 510.732 329.681 573.189 445.132 588.457C474.972 592.394 504.743 593.684 534.451 593.684C590.812 593.684 646.938 589.04 702.903 589.046C726.25 589.04 749.569 589.855 772.875 592.14C838.465 598.566 898.729 619.032 962.201 636.455C1028.69 654.704 1095.91 664.01 1166.06 666.538C1172.13 666.753 1178.16 666.861 1184.13 666.861C1277.6 666.85 1359.32 640.743 1440 610.163V608.867C1359.17 639.516 1277.49 665.696 1184.13 665.69Z" fill="#404C98"/>
<path d="M1203.73 671.194C1198.9 671.194 1194.06 671.132 1189.17 670.99C1117.03 668.92 1048.63 659.168 980.486 640.11C916.236 622.149 855.014 600.851 788.611 593.13C759.91 589.787 731.188 588.78 702.431 588.774C658.347 588.78 614.174 591.15 569.91 591.15C536.41 591.15 502.861 589.792 469.229 585.035C353.271 568.636 258.479 507.864 150.458 480.729C108.806 470.269 62.1736 462.468 15.8264 462.468C10.5486 462.468 5.26389 462.57 0 462.78V463.956C5.26389 463.741 10.5486 463.639 15.8264 463.639C61.9792 463.639 108.472 471.412 150.028 481.843C257.715 508.866 352.562 569.699 468.986 586.189C502.722 590.963 536.361 592.321 569.91 592.321C614.236 592.321 658.41 589.951 702.431 589.951C731.146 589.951 759.806 590.963 788.403 594.289C854.562 601.983 915.708 623.235 980.021 641.219C1048.31 660.31 1116.85 670.091 1189.12 672.161C1194.02 672.297 1198.88 672.365 1203.73 672.365C1289.53 672.359 1365.57 650.756 1440 623.937V622.653C1365.45 649.54 1289.43 671.205 1203.73 671.194Z" fill="#404C98"/>
<path d="M1223.27 676.721C1219.6 676.721 1215.92 676.687 1212.22 676.608C1137.96 675.024 1068.25 664.779 998.312 644.873C933.229 626.352 871.132 604.308 804.167 595.279C768.181 590.426 732.118 589.374 695.972 589.374C667.917 589.374 639.819 590.007 611.674 590.007C572.257 590.007 532.729 588.763 493.09 582.778C376.139 565.123 279.569 506.241 169.535 481.487C129.403 472.47 85.9028 466.547 42.4167 466.541C28.2361 466.541 14.0625 467.181 0 468.544V469.726C14.0556 468.357 28.2292 467.718 42.4167 467.718C85.7431 467.712 129.125 473.618 169.153 482.618C278.84 507.254 375.451 566.181 492.833 583.926C532.604 589.934 572.215 591.178 611.674 591.178C639.854 591.178 667.944 590.539 695.972 590.545C732.083 590.539 768.062 591.602 803.938 596.439C870.667 605.433 932.681 627.438 997.84 645.982C1067.91 665.922 1137.78 676.195 1212.17 677.784C1215.9 677.858 1219.59 677.897 1223.27 677.897C1301.46 677.892 1371.69 660.282 1440 637.197V635.929C1371.6 659.071 1301.39 676.732 1223.27 676.721Z" fill="#404C98"/>
<path d="M1256.84 682.723C1249.72 682.723 1242.54 682.564 1235.29 682.236C1158.99 678.735 1087.85 670.391 1016.14 649.642C950.201 630.567 887.257 607.798 819.729 597.435C719.688 582.088 618.729 596.875 516.965 580.509C399 561.565 300.59 504.81 188.618 482.25C150.479 474.574 110.139 469.992 69.7153 469.992C46.3681 469.986 22.9931 471.536 0 474.879V476.073C22.9861 472.713 46.3542 471.163 69.7153 471.157C110.007 471.157 150.236 475.728 188.271 483.387C299.889 505.851 398.333 562.628 516.688 581.663C618.792 598.057 719.771 583.27 819.465 598.589C886.771 608.918 949.66 631.647 1015.66 650.745C1087.53 671.545 1158.83 679.9 1235.21 683.402C1242.49 683.73 1249.69 683.899 1256.84 683.899C1321.95 683.888 1381.85 670.487 1440 651.887V650.62C1381.78 669.288 1321.89 682.734 1256.84 682.723Z" fill="#404C98"/>
<path d="M1277.54 688.238C1271.19 688.238 1264.79 688.114 1258.34 687.853C1179.9 684.686 1107.46 676.002 1033.97 654.405C967.188 634.781 903.389 611.339 835.299 599.59C738.215 582.851 639.951 595.155 540.833 578.247C421.861 557.984 321.569 503.543 207.694 483.014C171.799 476.548 134.493 472.933 97.1111 472.933C64.5069 472.933 31.8403 475.7 0 481.69V482.895C31.8264 476.882 64.4931 474.11 97.1111 474.11C134.382 474.104 171.583 477.708 207.382 484.157C320.91 504.6 421.222 559.053 540.535 579.395C639.993 596.332 738.257 584.034 835 600.738C902.889 612.448 966.625 635.856 1033.47 655.508C1107.14 677.162 1179.75 685.851 1258.27 689.024C1264.75 689.285 1271.17 689.415 1277.54 689.415C1334.88 689.409 1388.26 679.131 1440 664.129V662.884C1388.2 677.937 1334.83 688.244 1277.54 688.238Z" fill="#404C98"/>
<path d="M1297.99 693.754C1292.49 693.754 1286.96 693.663 1281.39 693.476C1200.81 690.699 1127.07 681.631 1051.8 659.173C984.167 638.995 919.514 614.92 850.861 601.745C756.736 583.694 661.194 593.396 564.701 575.984C444.729 554.364 342.535 502.4 226.778 483.772C193.208 478.375 158.771 475.502 124.299 475.502C82.4306 475.496 40.5069 479.756 0 488.891V490.108C40.4861 480.949 82.4097 476.673 124.299 476.673C158.674 476.673 193.014 479.541 226.493 484.926C341.917 503.469 444.118 555.438 564.389 577.132C661.201 594.578 756.743 584.882 850.528 602.882C918.993 616.017 983.604 640.076 1051.3 660.276C1126.75 682.785 1200.66 691.87 1281.33 694.642C1286.92 694.834 1292.47 694.93 1297.99 694.93C1347.74 694.924 1394.58 687.293 1440 675.606V674.379C1394.54 686.105 1347.69 693.765 1297.99 693.754Z" fill="#404C98"/>
<path d="M1318.12 699.286C1313.59 699.286 1309.03 699.224 1304.44 699.094C1221.71 696.786 1146.69 687.254 1069.62 663.936C1001.15 643.221 935.632 618.54 866.424 603.895C775.243 584.616 682.438 591.602 588.569 573.721C467.604 550.709 363.5 501.365 245.854 484.541C214.646 480.078 182.924 477.77 151.208 477.77C100.069 477.77 48.9514 483.795 0 496.443V497.677C48.9375 484.983 100.049 478.941 151.208 478.941C182.833 478.941 214.472 481.243 245.618 485.695C362.917 502.451 467.014 551.778 588.243 574.87C682.41 592.785 775.201 585.804 866.062 605.032C935.097 619.643 1000.58 644.29 1069.12 665.039C1146.35 688.402 1221.56 697.951 1304.39 700.27C1308.99 700.395 1313.57 700.462 1318.12 700.462C1360.49 700.457 1400.83 695.004 1440 686.286V685.07C1400.81 693.821 1360.47 699.286 1318.12 699.286Z" fill="#404C98"/>
<path d="M1337.92 704.824C1334.46 704.824 1330.98 704.79 1327.49 704.716C1242.6 702.946 1166.29 692.882 1087.44 668.705C1018.11 647.441 951.736 622.217 881.986 606.056C793.736 585.618 703.701 589.775 612.438 571.458C490.493 547.015 384.472 500.409 264.944 485.305C236.09 481.656 206.965 479.807 177.889 479.807C117.458 479.807 57.2153 487.822 0 504.278V505.517C57.1944 489.022 117.438 480.983 177.889 480.977C206.896 480.977 235.944 482.827 264.729 486.465C383.938 501.512 489.924 548.09 612.097 572.601C703.625 590.958 793.653 586.8 881.597 607.181C951.201 623.309 1017.55 648.516 1086.94 669.802C1165.95 694.036 1242.45 704.117 1327.45 705.887C1330.95 705.961 1334.44 705.995 1337.92 705.995C1373.15 705.995 1407.01 702.301 1440 696.135V694.93C1407 701.119 1373.13 704.83 1337.92 704.824Z" fill="#404C98"/>
<path d="M1350.51 710.339C1345.47 710.441 1340.48 710.486 1335.51 710.486C1254.54 710.486 1181.26 697.074 1105.27 673.468C1035.09 651.667 967.826 625.951 897.549 608.205C812.208 586.675 724.965 587.92 636.306 569.201C513.389 543.271 405.472 499.521 284.028 486.069C257.562 483.133 230.965 481.668 204.444 481.668C134.646 481.668 65.3264 491.867 0 512.35V513.612C65.3125 493.066 134.632 482.839 204.444 482.839C230.91 482.839 257.431 484.304 283.84 487.228C404.965 500.641 512.847 544.357 635.944 570.338C724.847 589.091 812.076 587.858 897.125 609.331C967.278 627.031 1034.51 652.736 1104.76 674.56C1180.86 698.205 1254.34 711.663 1335.51 711.663C1340.49 711.663 1345.5 711.612 1350.54 711.51C1381.26 710.888 1410.99 707.913 1440 703.24V702.046C1410.97 706.736 1381.24 709.717 1350.51 710.339Z" fill="#404C98"/>
<path d="M1373.55 715.957C1367.03 716.138 1360.56 716.217 1354.15 716.217C1272.88 716.217 1199.49 702.261 1123.09 678.231C1052.07 655.892 983.889 629.735 913.111 610.366C830.653 587.807 746.243 586.025 660.174 566.939C536.312 539.486 426.486 498.7 303.118 486.832C279.069 484.519 254.986 483.365 230.986 483.365C151.715 483.365 73.3333 495.934 0 520.621V521.893C73.3194 497.139 151.701 484.541 230.986 484.541C254.931 484.541 278.958 485.684 302.944 487.998C426.028 499.832 535.785 540.578 659.799 568.076C746.083 587.196 830.465 588.983 912.653 611.481C983.326 630.816 1051.48 656.967 1122.57 679.323C1199.09 703.393 1272.67 717.399 1354.15 717.399C1360.58 717.399 1367.06 717.303 1373.6 717.133C1396.21 716.522 1418.31 714.678 1440 711.861V710.679C1418.28 713.507 1396.17 715.351 1373.55 715.957Z" fill="#404C98"/>
<path d="M1396.6 721.579C1388.65 721.845 1380.79 721.975 1373.01 721.975C1291.38 721.975 1217.8 707.46 1140.92 683C1069.03 660.124 999.924 633.582 928.674 612.521C849.062 588.995 767.535 584.107 684.042 564.682C559.236 535.651 447.528 497.925 322.208 487.602C300.632 485.82 279.09 484.943 257.618 484.943C168.729 484.943 81.2778 500.041 0 529.089V530.367C81.2569 501.252 168.715 486.114 257.618 486.114C279.042 486.114 300.542 486.991 322.062 488.761C447.111 499.062 558.743 536.748 683.646 565.807C767.326 585.272 848.826 590.166 928.181 613.624C999.347 634.651 1068.45 661.193 1140.39 684.092C1217.38 708.586 1291.17 723.152 1373.01 723.152C1380.81 723.152 1388.69 723.016 1396.65 722.75C1411.3 722.264 1425.74 721.263 1440 719.843V718.66C1425.72 720.086 1411.26 721.087 1396.6 721.579Z" fill="#404C98"/>
<path d="M1419.65 727.202C1410.28 727.581 1401.03 727.768 1391.9 727.768C1309.9 727.768 1236.05 712.777 1158.74 687.763C1085.95 664.462 1015.92 637.491 944.243 614.677C867.451 590.239 788.847 582.167 707.91 562.419C582.194 531.759 468.597 497.184 341.292 488.36C322.292 487.042 303.319 486.397 284.438 486.397C185.757 486.397 89.1875 504.182 0 537.716V539.011C89.1736 505.398 185.75 487.562 284.438 487.562C303.285 487.562 322.208 488.213 341.167 489.531C468.222 498.333 581.722 532.862 707.5 563.545C788.583 583.315 867.139 591.399 943.715 615.768C1015.33 638.554 1085.36 665.537 1158.21 688.855C1235.62 713.909 1309.67 728.945 1391.9 728.945C1401.06 728.945 1410.33 728.752 1419.72 728.379C1426.52 728.096 1433.27 727.689 1440 727.219V726.043C1433.25 726.518 1426.48 726.925 1419.65 727.202Z" fill="#404C98"/>
<path d="M1411.11 733.578C1328.64 733.578 1254.47 717.993 1176.57 692.526C1102.92 668.682 1031.86 641.462 959.799 616.832C885.785 591.54 810.174 580.187 731.778 560.162C605.174 527.816 489.694 496.489 360.375 489.123C344.035 488.196 327.743 487.737 311.514 487.737C202.861 487.737 97.1042 508.351 0 546.489V547.79C97.0903 509.567 202.847 488.908 311.514 488.908C327.708 488.908 343.972 489.367 360.278 490.3C489.368 497.643 604.729 528.925 731.354 561.276C809.854 581.33 885.417 592.683 959.25 617.912C1031.26 642.525 1102.34 669.757 1176.03 693.618C1254.03 719.107 1328.41 734.749 1411.11 734.749C1420.62 734.749 1430.24 734.528 1440 734.115V732.933C1430.24 733.357 1420.62 733.578 1411.11 733.578Z" fill="#404C98"/>
<path d="M1430.48 739.41C1347.49 739.41 1272.93 723.203 1194.39 697.295C1119.9 672.902 1047.75 645.501 975.368 618.998C904.076 592.887 831.514 578.19 755.653 557.899C628.194 523.805 510.826 495.815 379.465 489.887C365.91 489.282 352.382 488.976 338.91 488.976C220.069 488.976 105.049 512.537 0 555.393V556.705C105.035 513.753 220.069 490.153 338.91 490.153C352.354 490.153 365.847 490.453 379.389 491.064C510.542 496.975 627.764 524.925 755.201 559.008C831.132 579.321 903.639 594.007 974.778 620.056C1047.15 646.57 1119.31 673.977 1193.85 698.381C1272.49 724.329 1347.25 740.581 1430.48 740.581C1433.64 740.581 1436.81 740.552 1440 740.507V739.331C1436.81 739.381 1433.63 739.41 1430.48 739.41Z" fill="#404C98"/>
<path d="M1212.22 702.058C1136.87 677.117 1063.58 649.613 990.931 621.148C922.319 594.267 852.882 576.171 779.521 555.636C651.243 519.732 531.993 495.17 398.562 490.656C387.903 490.3 377.278 490.119 366.688 490.119C237.451 490.119 113.035 516.729 0 564.399V565.722C113.021 517.956 237.438 491.29 366.688 491.29C377.257 491.29 387.861 491.471 398.5 491.833C531.75 496.341 650.84 520.858 779.049 556.745C852.431 577.285 921.812 595.37 990.312 622.206C1062.97 650.682 1136.29 678.192 1211.67 703.144C1287.82 728.498 1360.18 745.072 1440 746.345V745.18C1360.42 743.896 1288.27 727.378 1212.22 702.058Z" fill="#404C98"/>
<path d="M1230.03 706.826C1153.84 681.337 1079.33 653.799 1006.49 623.309C940.514 595.687 874.264 574.129 803.389 553.374C674.333 515.586 553.181 494.548 417.646 491.426C410.042 491.245 402.451 491.16 394.882 491.16C255.007 491.16 121.09 520.92 0 573.506V574.836C121.069 522.154 255 492.331 394.882 492.331C402.438 492.331 410.014 492.416 417.604 492.597C552.979 495.719 673.951 516.723 802.903 554.477C873.75 575.226 939.931 596.762 1005.83 624.35C1078.72 654.857 1153.26 682.406 1229.49 707.913C1300.05 731.603 1367.24 748.036 1440 751.589V750.418C1367.48 746.865 1300.49 730.478 1230.03 706.826Z" fill="#404C98"/>
<path d="M1247.86 711.595C1170.81 685.557 1095 658.059 1022.06 625.47C958.639 597.129 895.66 572.064 827.257 551.117C697.479 511.372 574.403 493.943 436.736 492.189C432.333 492.127 427.931 492.105 423.542 492.105C272.778 492.105 129.215 525.123 0 582.716V584.051C129.208 526.357 272.771 493.275 423.542 493.275C427.931 493.275 432.312 493.304 436.715 493.36C574.25 495.12 697.118 512.514 826.75 552.214C895.076 573.139 957.986 598.176 1021.37 626.494C1094.38 659.117 1170.24 686.632 1247.31 712.676C1312.17 734.63 1374.09 750.695 1440 756.165V754.989C1374.33 749.519 1312.6 733.51 1247.86 711.595Z" fill="#404C98"/>
<path d="M1265.69 716.353C1187.78 689.771 1110.58 662.392 1037.62 627.625C976.708 598.6 917.097 569.988 851.132 548.854C720.667 507.067 595.66 493.355 455.826 492.953C454.778 492.947 453.736 492.947 452.688 492.947C290.799 492.947 137.444 529.31 0 591.999V593.339C137.424 530.548 290.792 494.124 452.688 494.124C453.729 494.124 454.778 494.124 455.819 494.124C595.542 494.537 720.34 508.221 850.604 549.951C916.431 571.034 975.979 599.607 1036.9 628.638C1109.95 663.456 1187.22 690.846 1265.13 717.439C1324.19 737.588 1380.74 753.054 1440 760.052V758.864C1380.98 751.877 1324.61 736.463 1265.69 716.353Z" fill="#404C98"/>
<path d="M1148.53 722.903C1116.69 718.095 1085.47 716.047 1054.6 716.047C972.111 716.047 892.111 730.676 809.229 746.492C726.451 762.286 644.639 777.118 562.132 777.118C517.847 777.118 473.368 772.842 428.417 762.167C307.736 733.476 193.694 675.793 99.3403 608.777C58.5139 579.763 25.9444 548.701 0 513.346V514.477C25.8819 549.544 58.3056 580.408 98.8681 609.218C193.285 676.28 307.41 734.007 428.222 762.722C473.236 773.424 517.792 777.701 562.132 777.701C644.743 777.701 726.611 762.857 809.396 747.063C892.271 731.247 972.222 716.63 1054.6 716.635C1085.43 716.635 1116.6 718.677 1148.4 723.48C1247.33 738.403 1342.47 755.617 1440 764.617V764.023C1342.56 755.023 1247.45 737.826 1148.53 722.903Z" fill="#3A6A86"/>
<path d="M1241.3 735.693C1210.22 731.767 1178.99 727.757 1147.4 723.972C1121.75 720.889 1096.51 719.526 1071.5 719.526C983.264 719.526 898.09 736.468 809.361 754.197C724.729 771.275 640.674 786.706 555.826 786.706C511.715 786.706 467.382 782.532 422.646 772.259C301.062 744.201 186.625 687.276 91.7986 620.396C55.1319 594.516 24.9097 566.927 0 536.103V537.156C24.8333 567.731 54.9097 595.138 91.3264 620.831C186.215 687.763 300.729 744.733 422.451 772.819C467.257 783.114 511.653 787.289 555.826 787.289C640.785 787.289 724.896 771.846 809.535 754.762C898.257 737.034 983.375 720.114 1071.5 720.114C1096.47 720.114 1121.68 721.466 1147.29 724.561C1178.89 728.334 1210.12 732.344 1241.19 736.27C1307.55 744.586 1373.17 752.822 1440 757.653V757.065C1373.22 752.239 1307.64 744.009 1241.3 735.693Z" fill="#3A6A86"/>
<path d="M1239.72 733.742C1208.77 730.811 1177.69 727.819 1146.27 725.058C1126.91 723.322 1107.76 722.53 1088.78 722.53C994.597 722.53 904.174 741.944 809.486 761.896C722.826 780.156 636.382 796.25 549.069 796.25C505.264 796.25 461.25 792.199 416.868 782.351C294.382 754.915 179.556 698.76 84.25 632.009C51.4444 609.009 23.6111 584.594 0 557.729V558.725C23.5208 585.374 51.2014 609.619 83.7847 632.456C179.153 699.246 294.056 755.447 416.681 782.911C461.125 792.782 505.215 796.838 549.069 796.838C636.493 796.838 722.986 780.722 809.667 762.461C904.361 742.51 994.722 723.118 1088.78 723.118C1107.74 723.118 1126.85 723.904 1146.18 725.635C1177.6 728.402 1208.68 731.388 1239.64 734.33C1306.41 740.524 1372.54 747.086 1440 750.627V750.039C1372.58 746.498 1306.49 739.941 1239.72 733.742Z" fill="#3A6A86"/>
<path d="M1238.15 731.796C1207.31 729.85 1176.38 727.881 1145.13 726.133C1132.38 725.386 1119.72 725.036 1107.13 725.036C1006.59 725.041 910.674 747.318 809.611 769.606C721.021 789.128 632.257 805.844 542.535 805.838C498.979 805.838 455.194 801.906 411.09 792.442C287.701 765.635 172.486 710.237 76.7014 643.628C47.5 623.286 22.0972 601.785 0 578.45V579.412C22.0069 602.548 47.25 623.886 76.2361 644.07C172.083 710.73 287.382 766.172 410.91 793.008C455.076 802.483 498.924 806.426 542.535 806.426C632.361 806.426 721.194 789.693 809.806 770.166C910.875 747.878 1006.72 725.624 1107.13 725.624C1119.69 725.624 1132.34 725.975 1145.08 726.721C1176.33 728.469 1207.26 730.432 1238.1 732.378C1305.28 736.423 1371.92 741.282 1440 743.528V742.945C1371.95 740.694 1305.33 735.84 1238.15 731.796Z" fill="#3A6A86"/>
<path d="M1236.58 729.844C1205.85 728.945 1175.08 727.949 1143.99 727.208C1138.11 727.055 1132.24 726.976 1126.4 726.976C1019.12 726.976 917.535 752.494 809.743 777.305C719.236 798.128 628.125 815.443 535.993 815.443C492.681 815.443 449.132 811.625 405.319 802.534C281.021 776.354 165.417 721.721 69.1528 655.242C43.3472 637.394 20.4097 618.602 0 598.447V599.369C20.2986 619.344 43.0903 637.977 68.6875 655.689C165.014 722.213 280.708 776.898 405.139 803.1C449.021 812.202 492.632 816.031 535.993 816.031C628.236 816.031 719.41 798.699 809.938 777.871C917.736 753.06 1019.26 727.564 1126.4 727.564C1132.24 727.564 1138.1 727.632 1143.97 727.796C1175.05 728.526 1205.83 729.533 1236.55 730.427C1304.13 732.407 1371.28 735.518 1440 736.429V735.846C1371.3 734.93 1304.17 731.824 1236.58 729.844Z" fill="#3A6A86"/>
<path d="M1413.1 728.707C1358.44 728.707 1304.68 727.87 1250.79 727.87C1245.53 727.87 1240.27 727.875 1235 727.898C1204.4 727.994 1173.76 728.062 1142.87 728.283C1029.83 729.12 923.486 757.777 809.868 785.004C717.472 807.156 624.007 825.167 529.472 825.167C486.382 825.167 443.076 821.434 399.542 812.626C274.278 787.3 158.347 733.204 61.6042 666.855C39.0347 651.35 18.5694 635.103 0 617.85V618.733C18.4514 635.822 38.7639 651.927 61.1458 667.308C157.944 733.702 273.972 787.838 399.368 813.197C442.965 822.011 486.333 825.761 529.472 825.761C624.111 825.761 717.653 807.722 810.076 785.569C923.701 758.326 1029.98 729.703 1142.87 728.871C1173.77 728.645 1204.4 728.583 1235.01 728.475C1240.27 728.464 1245.53 728.452 1250.79 728.452C1304.67 728.452 1358.43 729.295 1413.1 729.295C1422.04 729.295 1431.01 729.261 1440 729.21V728.622C1431.01 728.673 1422.04 728.707 1413.1 728.707Z" fill="#3A6A86"/>
<path d="M1233.43 725.946C1202.94 727.05 1172.47 728.13 1141.73 729.369C1029.48 733.883 923.562 764.413 810 792.708C715.708 816.201 619.882 834.818 522.938 834.818C480.09 834.818 437.021 831.18 393.764 822.724C267.59 798.048 151.271 744.682 54.0625 678.48C34.5694 665.175 16.5972 651.299 0 636.71V637.57C16.4722 652.012 34.2917 665.747 53.5972 678.921C150.882 745.18 267.292 798.586 393.597 823.289C436.91 831.769 480.035 835.406 522.938 835.406C619.993 835.406 715.889 816.767 810.208 793.274C923.785 764.967 1029.66 734.46 1141.76 729.952C1172.49 728.718 1202.97 727.632 1233.46 726.529C1301.85 724.063 1370.01 723.655 1440 721.93V721.347C1370.02 723.067 1301.85 723.474 1233.43 725.946Z" fill="#3A6A86"/>
<path d="M1231.85 723.995C1201.49 726.094 1171.15 728.198 1140.59 730.444C1029.14 738.635 923.646 771.071 810.125 800.413C713.944 825.275 615.757 844.468 516.396 844.468C473.785 844.468 430.965 840.944 387.993 832.821C260.903 808.785 144.194 756.165 46.5139 690.093C29.9931 678.893 14.5139 667.28 0 655.157V655.988C14.3819 667.975 29.7083 679.464 46.0486 690.546C143.812 756.663 260.611 809.328 387.833 833.387C430.861 841.521 473.743 845.057 516.396 845.057C615.868 845.057 714.132 825.846 810.34 800.973C923.882 771.62 1029.33 739.206 1140.65 731.032C1171.22 728.786 1201.55 726.682 1231.91 724.578C1300.72 719.826 1369.38 717.637 1440 714.588V714.005C1369.38 717.048 1300.69 719.243 1231.85 723.995Z" fill="#3A6A86"/>
<path d="M1230.28 722.049C1200.03 725.149 1169.85 728.266 1139.47 731.524C1028.8 743.386 923.729 777.735 810.25 808.118C712.194 834.371 611.625 854.136 509.847 854.136C467.479 854.136 424.91 850.713 382.222 842.907C254.229 819.516 137.125 767.649 38.9653 701.707C25.3056 692.509 12.3333 683.017 0 673.185V674.005C12.2014 683.707 25.0139 693.075 38.5069 702.16C136.743 768.146 253.938 820.065 382.062 843.478C424.806 851.296 467.431 854.719 509.847 854.719C611.743 854.719 712.382 834.937 810.479 808.672C923.979 778.278 1029.01 743.952 1139.55 732.107C1169.94 728.854 1200.13 725.732 1230.37 722.637C1299.57 715.555 1368.74 711.556 1440 707.183V706.594C1368.72 710.967 1299.52 714.967 1230.28 722.049Z" fill="#3A6A86"/>
<path d="M1228.7 720.103C1198.58 724.193 1168.54 728.334 1138.33 732.605C1028.46 748.127 923.819 784.41 810.382 815.822C710.451 843.495 607.486 863.803 503.271 863.803C461.16 863.803 418.847 860.489 376.444 853.005C247.542 830.247 130.056 779.126 31.4236 713.326C20.5347 706.046 10.0764 698.573 0 690.897V691.7C9.93056 699.258 20.2431 706.611 30.9653 713.784C129.674 779.63 247.264 830.796 376.292 853.576C418.75 861.077 461.118 864.392 503.271 864.392C607.604 864.392 710.639 844.055 810.611 816.377C924.083 784.953 1028.69 748.681 1138.45 733.182C1168.67 728.911 1198.7 724.77 1228.82 720.686C1298.42 711.233 1368.1 705.412 1440 699.716V699.122C1368.07 704.824 1298.35 710.65 1228.7 720.103Z" fill="#3A6A86"/>
<path d="M1227.12 718.157C1197.13 723.237 1167.24 728.407 1137.19 733.685C1028.12 752.862 923.91 791.091 810.514 823.521C708.708 852.637 603.333 873.482 496.681 873.482C454.826 873.482 412.778 870.275 370.674 863.096C240.868 840.967 122.986 790.61 23.875 724.945C15.6944 719.515 7.74306 713.971 0 708.309V709.089C7.59722 714.638 15.3958 720.075 23.4167 725.398C122.611 791.119 240.59 841.521 370.528 863.673C412.681 870.857 454.785 874.071 496.681 874.071C603.451 874.071 708.903 853.203 810.75 824.081C924.188 791.634 1028.37 753.416 1137.34 734.256C1167.39 728.979 1197.28 723.808 1227.28 718.734C1297.27 706.883 1367.44 699.212 1440 692.181V691.587C1367.41 698.618 1297.19 706.295 1227.12 718.157Z" fill="#3A6A86"/>
<path d="M1225.56 716.211C1195.68 722.281 1165.94 728.469 1136.06 734.765C1027.77 757.591 924.007 797.788 810.639 831.226C706.965 861.801 599.167 883.167 490.062 883.167C448.472 883.167 406.701 880.067 364.896 873.188C234.194 851.686 115.917 802.093 16.3264 736.564C10.7847 732.91 5.34722 729.199 0 725.437V726.212C5.20139 729.855 10.4861 733.464 15.8681 737.017C115.535 802.602 233.917 852.241 364.75 873.765C406.611 880.649 448.431 883.755 490.062 883.755C599.285 883.755 707.167 862.372 810.882 831.774C924.292 798.32 1028.05 758.139 1136.24 735.331C1166.12 729.035 1195.85 722.847 1225.73 716.782C1296.12 702.482 1366.79 692.939 1440 684.578V683.99C1366.74 692.351 1296.01 701.899 1225.56 716.211Z" fill="#3A6A86"/>
<path d="M1223.99 714.271C1194.23 721.325 1164.63 728.526 1134.92 735.846C1027.44 762.32 924.111 804.492 810.764 838.93C705.229 870.999 594.986 892.868 483.417 892.868C442.111 892.868 400.618 889.87 359.125 883.28C227.514 862.401 108.84 813.576 8.77778 748.178C5.81945 746.238 2.90972 744.263 0 742.295V743.047C2.76389 744.925 5.52083 746.798 8.32639 748.636C108.472 814.086 227.25 862.955 358.979 883.857C400.528 890.453 442.069 893.451 483.417 893.451C595.104 893.451 705.424 871.559 811.021 839.479C924.403 805.023 1027.72 762.857 1135.13 736.406C1164.84 729.097 1194.44 721.885 1224.19 714.831C1294.96 698.041 1366.14 686.615 1440 676.919V676.325C1366.08 686.021 1294.83 697.459 1223.99 714.271Z" fill="#3A6A86"/>
<path d="M1222.41 712.319C1192.77 720.363 1163.33 728.594 1133.79 736.932C1027.08 767.038 924.215 811.201 810.896 846.629C703.493 880.214 590.785 902.57 476.743 902.57C435.715 902.57 394.528 899.679 353.347 893.377C220.84 873.103 101.771 825.054 1.22917 759.797C0.8125 759.525 0.416667 759.248 0 758.977V759.735C0.26389 759.904 0.520834 760.085 0.784722 760.255C101.403 825.569 220.583 873.663 353.208 893.949C394.444 900.262 435.681 903.152 476.743 903.152C590.903 903.152 703.694 880.78 811.16 847.184C924.521 811.732 1027.39 767.569 1134.02 737.486C1163.56 729.154 1193 720.918 1222.63 712.874C1293.79 693.567 1365.48 680.234 1440 669.203V668.609C1365.41 679.64 1293.65 692.984 1222.41 712.319Z" fill="#3A6A86"/>
<path d="M1220.83 710.379C1191.32 719.401 1162.02 728.656 1132.65 738.012C1026.74 771.755 924.319 817.921 811.028 854.334C701.75 889.451 586.562 912.277 470.028 912.277C429.306 912.277 388.424 909.488 347.569 903.469C216.931 884.219 99.6667 838.478 0 775.432V776.173C99.6597 839.128 216.875 884.802 347.438 904.046C388.34 910.076 429.264 912.865 470.028 912.865C586.674 912.859 701.958 890.017 811.285 854.883C924.646 818.447 1027.06 772.282 1132.92 738.561C1162.28 729.199 1191.58 719.95 1221.08 710.922C1292.62 689.053 1364.82 673.79 1440 661.43V660.831C1364.74 673.202 1292.47 688.476 1220.83 710.379Z" fill="#3A6A86"/>
<path d="M1219.26 708.433C1189.86 718.446 1160.72 728.718 1131.53 739.093C1026.38 776.468 924.438 824.647 811.153 862.038C700.014 898.717 582.319 921.995 463.278 921.995C422.868 921.99 382.306 919.308 341.792 913.561C213.556 895.368 98.4861 852.145 0 791.701V792.437C98.4792 852.795 213.5 895.957 341.674 914.143C382.222 919.896 422.833 922.583 463.278 922.583C582.431 922.578 700.222 899.283 811.424 862.582C924.764 825.167 1026.72 776.982 1131.81 739.63C1161.01 729.256 1190.15 718.989 1219.54 708.97C1291.44 684.493 1364.15 667.291 1440 653.596V652.996C1364.06 666.703 1291.26 683.916 1219.26 708.433Z" fill="#3A6A86"/>
<path d="M1217.69 706.487C1188.4 717.478 1159.38 728.73 1130.39 740.179C1025.92 781.004 924.562 831.384 811.285 869.743C698.194 908.04 577.896 931.618 456.236 931.618C416.243 931.618 376.097 929.066 336.021 923.658C210.208 906.298 97.2708 865.653 0 807.807V808.531C97.2569 866.298 210.153 906.886 335.903 924.241C376.028 929.655 416.208 932.206 456.236 932.206C578.007 932.206 698.403 908.6 811.556 870.286C924.903 831.905 1026.28 781.514 1130.7 740.705C1159.69 729.261 1188.72 718.01 1217.99 707.019C1290.26 679.894 1363.47 660.735 1440 645.704V645.105C1363.38 660.146 1290.06 679.323 1217.69 706.487Z" fill="#3A6A86"/>
<path d="M1216.12 704.541C1186.92 716.471 1158.08 728.803 1129.26 741.265C1025.57 785.739 924.681 838.127 811.41 877.448C696.458 917.345 573.597 941.364 449.417 941.364C409.75 941.364 369.965 938.915 330.243 933.75C206.799 917.402 95.9931 879.049 0 823.747V824.466C95.9861 879.693 206.75 917.984 330.132 934.333C369.889 939.503 409.722 941.947 449.417 941.947C573.715 941.947 696.667 917.911 811.694 877.985C925.035 838.636 1025.94 786.243 1129.6 741.78C1158.41 729.318 1187.25 716.992 1216.44 705.067C1289 675.143 1362.76 654.037 1440 637.711V637.1C1362.66 653.443 1288.79 674.571 1216.12 704.541Z" fill="#3A6A86"/>
<path d="M1214.54 702.601C1185.47 715.521 1156.77 728.865 1128.12 742.346C1025.22 790.474 924.819 844.87 811.542 885.152C694.729 926.679 569.292 951.122 442.556 951.117C403.243 951.117 363.812 948.763 324.472 943.848C203.368 928.461 94.6944 892.291 0 839.473V840.186C94.6806 892.925 203.326 929.055 324.361 944.43C363.743 949.352 403.208 951.699 442.556 951.699C569.403 951.699 694.938 927.25 811.826 885.69C925.181 845.379 1025.6 790.972 1128.49 742.855C1157.13 729.375 1185.82 716.03 1214.9 703.116C1287.81 670.487 1362.08 647.384 1440 629.713V629.102C1361.97 646.79 1287.58 669.927 1214.54 702.601Z" fill="#3A6A86"/>
<path d="M1212.97 700.66C1184.01 714.565 1155.47 728.933 1127 743.426C1024.86 795.209 925.035 851.783 811.667 892.851C693.194 936.154 565.236 960.903 436.049 960.903C396.965 960.903 357.771 958.64 318.694 953.939C199.938 939.492 93.3542 905.409 0 855.052V855.754C93.3472 906.037 199.903 940.086 318.59 954.516C357.708 959.223 396.931 961.486 436.049 961.491C565.347 961.486 693.41 936.72 811.965 893.389C925.41 852.286 1025.26 795.695 1127.38 743.924C1155.85 729.437 1184.39 715.068 1213.35 701.158C1286.62 665.809 1361.39 640.675 1440 621.663V621.052C1361.27 640.082 1286.37 665.243 1212.97 700.66Z" fill="#3A6A86"/>
<path d="M1211.4 698.709C1182.56 713.615 1154.16 729.007 1125.87 744.512C1024.51 799.949 925.132 858.469 811.792 900.556C691.368 945.482 560.729 970.661 428.924 970.655C390.271 970.655 351.535 968.494 312.924 964.031C196.5 950.494 91.9792 918.42 0 870.467V871.163C91.9722 919.042 196.465 951.077 312.819 964.614C351.472 969.083 390.243 971.244 428.924 971.249C560.84 971.244 691.576 946.042 812.097 901.088C925.521 858.967 1024.92 800.424 1126.26 744.999C1154.56 729.488 1182.95 714.101 1211.79 699.207C1285.42 661.091 1360.71 633.927 1440 613.568V612.951C1360.58 633.327 1285.15 660.531 1211.4 698.709Z" fill="#3A6A86"/>
<path d="M1209.83 696.769C1078.35 769.51 956.917 853.106 811.931 908.26C689.521 954.822 556.174 980.425 421.729 980.425C383.549 980.425 345.278 978.36 307.146 974.123C193.049 961.452 90.5833 931.301 0 885.712V886.397C90.5764 931.929 193.014 962.04 307.049 974.706C345.215 978.943 383.521 981.007 421.729 981.007C556.285 981.007 689.729 955.387 812.236 908.787C957.333 853.587 1078.8 769.962 1210.24 697.255C1284.21 656.334 1360.02 627.127 1440 605.433V604.811C1359.88 626.533 1283.94 655.774 1209.83 696.769Z" fill="#3A6A86"/>
<path d="M1158.35 599.777C1061.58 640.195 956.562 658.07 850.417 658.076C635.667 658.076 416.354 584.905 251.688 477.233C140.153 404.299 50.6736 310.204 0 201.604V202.43C50.7639 310.781 140.125 404.661 251.458 477.459C416.188 585.171 635.569 658.37 850.417 658.37C956.611 658.37 1061.69 640.477 1158.52 600.042C1267.55 554.505 1358.24 489.152 1440 416.405V415.969C1358.19 488.795 1267.44 554.211 1158.35 599.777Z" fill="#94D3E6"/>
<path d="M1283.96 535.232C1244.29 559.274 1202.3 580.86 1157.31 599.443C1152.56 601.406 1147.78 603.318 1143.01 605.179C1100.24 621.833 1056.08 634.464 1011 643.255C956.056 653.963 899.806 658.975 843.271 658.975C766.583 658.975 689.347 649.76 614.146 633.084C481.965 603.736 356.375 551.761 251.833 486.052C210.174 459.838 171.458 430.734 136.528 399.038C80.0347 347.539 32.4792 289.528 0 225.119V225.883C32.4931 290.065 79.9306 347.889 136.257 399.236C171.208 430.943 209.938 460.059 251.611 486.278C356.194 552.022 481.826 604.008 614.056 633.367C689.285 650.055 766.542 659.27 843.271 659.27C899.84 659.27 956.118 654.252 1011.08 643.538C1056.19 634.747 1100.37 622.104 1143.16 605.445C1147.94 603.584 1152.72 601.666 1157.47 599.709C1202.48 581.115 1244.49 559.517 1284.17 535.47C1340.59 501.291 1391.85 461.671 1440 419.375V418.945C1391.78 461.32 1340.46 501.008 1283.96 535.232Z" fill="#94D3E6"/>
<path d="M1283.25 536.341C1243.35 559.738 1201.24 580.741 1156.25 599.109C1151.51 601.044 1146.74 602.939 1141.97 604.789C1099.26 621.307 1055.31 634.102 1010.42 643.108C953.271 654.591 894.743 659.937 835.917 659.937C761.979 659.937 687.569 651.486 614.868 636.133C482.917 608.2 357.264 558.42 251.979 494.865C210.062 469.517 170.917 441.363 135.604 410.465C80.7222 362.444 33.0625 308.518 0 247.775V248.488C33.0694 309.021 80.6111 362.784 135.34 410.663C170.667 441.578 209.84 469.737 251.757 495.103C357.09 558.674 482.785 608.471 614.778 636.416C687.507 651.774 761.944 660.226 835.917 660.226C894.771 660.226 953.326 654.88 1010.5 643.396C1055.42 634.385 1099.4 621.578 1142.12 605.054C1146.9 603.205 1151.67 601.31 1156.42 599.369C1201.42 580.996 1243.55 559.986 1283.46 536.579C1340.24 503.322 1391.69 464.239 1440 422.361V421.932C1391.62 463.883 1340.12 503.039 1283.25 536.341Z" fill="#94D3E6"/>
<path d="M1282.54 537.444C1242.4 560.207 1200.17 580.617 1155.21 598.77C1150.47 600.687 1145.71 602.56 1140.93 604.398C1098.31 620.786 1054.53 633.746 1009.83 642.961C950.417 655.247 889.542 660.95 828.368 660.95C757.243 660.95 685.708 653.239 615.59 639.176C483.868 612.657 358.153 565.078 252.118 503.678C209.958 479.196 170.424 451.958 134.681 421.898C81.3611 377.033 33.6458 326.874 0 269.627V270.3C33.6528 327.355 81.25 377.367 134.424 422.096C170.181 452.173 209.736 479.422 251.91 503.922C357.986 565.332 483.736 612.934 615.507 639.465C685.646 653.528 757.215 661.244 828.368 661.244C889.569 661.244 950.472 655.536 1009.92 643.249C1054.65 634.023 1098.44 621.058 1141.08 604.664C1145.85 602.826 1150.62 600.953 1155.37 599.036C1200.35 580.871 1242.6 560.456 1282.75 537.687C1339.9 505.347 1391.53 466.802 1440 425.343V424.913C1391.47 466.456 1339.77 505.064 1282.54 537.444Z" fill="#94D3E6"/>
<path d="M1281.83 538.547C1241.46 560.671 1199.12 580.498 1154.16 598.436C1149.42 600.331 1144.66 602.186 1139.89 604.008C1097.33 620.266 1053.76 633.384 1009.26 642.825C947.493 655.955 884.201 662.03 820.611 662.03C752.361 662.03 683.764 655.032 616.312 642.22C484.819 617.12 359.042 571.73 252.264 512.497C209.854 488.874 169.931 462.553 133.764 433.324C81.875 391.39 34.2153 344.693 0 290.75V291.395C34.2153 345.157 81.7778 391.718 133.507 433.534C169.694 462.774 209.632 489.101 252.062 512.735C358.882 571.99 484.694 617.398 616.229 642.503C683.701 655.321 752.333 662.324 820.611 662.324C884.236 662.324 947.549 656.243 1009.35 643.108C1053.88 633.661 1097.47 620.537 1140.04 604.274C1144.82 602.452 1149.58 600.591 1154.32 598.696C1199.29 580.758 1241.65 560.92 1282.03 538.79C1339.56 507.372 1391.38 469.37 1440 428.318V427.894C1391.31 469.019 1339.43 507.089 1281.83 538.547Z" fill="#94D3E6"/>
<path d="M1281.12 539.65C1240.52 561.135 1198.05 580.379 1153.11 598.102C1148.38 599.969 1143.62 601.802 1138.85 603.618C1096.36 619.745 1052.99 633.022 1008.68 642.678C944.493 656.701 878.715 663.178 812.618 663.178C747.333 663.178 681.722 656.865 617.042 645.269C485.771 621.578 359.931 578.382 252.41 521.311C209.743 498.548 169.444 473.148 132.84 444.751C82.2986 405.538 34.7431 362.026 0 311.199V311.81C34.7431 362.473 82.1875 405.86 132.59 444.966C169.208 473.369 209.535 498.78 252.215 521.554C359.778 578.648 485.653 621.861 616.958 645.552C681.674 657.154 747.299 663.472 812.618 663.472C878.743 663.472 944.549 656.995 1008.77 642.961C1053.1 633.299 1096.49 620.011 1139.01 603.878C1143.77 602.073 1148.53 600.235 1153.27 598.362C1198.22 580.634 1240.7 561.389 1281.33 539.899C1339.21 509.397 1391.22 471.932 1440 431.294V430.869C1391.16 471.587 1339.09 509.115 1281.12 539.65Z" fill="#94D3E6"/>
<path d="M1280.42 540.759C1239.58 561.604 1196.99 580.255 1152.07 597.763C1147.33 599.607 1142.57 601.428 1137.81 603.222C1095.39 619.219 1052.22 632.66 1008.1 642.536C941.417 657.504 873.076 664.395 804.389 664.395C742.132 664.395 679.597 658.738 617.757 648.306C486.722 626.041 360.819 585.041 252.549 530.13C209.632 508.221 168.958 483.744 131.917 456.178C82.625 419.499 35.2431 378.951 0 331.077V331.649C35.2361 379.37 82.5208 419.816 131.674 456.393C168.736 483.97 209.431 508.464 252.361 530.373C360.667 585.306 486.604 626.318 617.688 648.595C679.542 659.026 742.104 664.683 804.389 664.683C873.104 664.683 941.479 657.793 1008.19 642.814C1052.33 632.943 1095.53 619.496 1137.97 603.487C1142.73 601.694 1147.48 599.873 1152.22 598.023C1197.16 580.515 1239.76 561.859 1280.61 541.008C1338.86 511.423 1391.06 474.495 1440 434.263V433.845C1391.01 474.144 1338.74 511.14 1280.42 540.759Z" fill="#94D3E6"/>
<path d="M1279.72 541.862C1238.63 562.068 1195.93 580.136 1151.01 597.429C1146.28 599.251 1141.53 601.049 1136.78 602.837C1094.42 618.704 1051.44 632.303 1007.52 642.39C938.257 658.359 867.264 665.679 795.889 665.679C736.757 665.679 677.361 660.655 618.479 651.361C487.674 630.505 361.708 591.693 252.694 538.943C209.528 517.9 168.486 494.333 131 467.61C82.8819 433.302 35.6875 395.514 0 350.441V350.978C35.6875 395.916 82.7708 433.607 130.757 467.831C168.264 494.565 209.326 518.143 252.514 539.192C361.562 591.965 487.556 630.782 618.41 651.65C677.312 660.95 736.729 665.973 795.889 665.973C867.292 665.973 938.319 658.647 1007.62 642.672C1051.56 632.575 1094.56 618.97 1136.92 603.103C1141.68 601.321 1146.44 599.511 1151.17 597.689C1196.1 580.396 1238.81 562.328 1279.91 542.117C1338.52 513.442 1390.9 477.052 1440 437.245V436.82C1390.84 476.707 1338.4 513.159 1279.72 541.862Z" fill="#94D3E6"/>
<path d="M1279.01 542.965C1237.69 562.538 1194.88 580.012 1149.97 597.09C1145.24 598.888 1140.49 600.67 1135.74 602.441C1093.45 618.178 1050.67 631.936 1006.94 642.242C935.007 659.264 861.278 667.042 787.125 667.042C731.194 667.042 675.021 662.618 619.208 654.399C488.618 634.962 362.59 598.351 252.84 547.756C209.417 527.578 168.007 504.923 130.076 479.037C83.0556 446.94 36.1042 411.698 0 369.266V369.787C36.0972 412.1 82.9444 447.252 129.847 479.263C167.792 505.166 209.222 527.827 252.667 548.011C362.451 598.623 488.514 635.245 619.146 654.687C674.979 662.907 731.174 667.33 787.125 667.336C861.312 667.336 935.076 659.552 1007.04 642.525C1050.79 632.213 1093.59 618.45 1135.89 602.707C1140.65 600.936 1145.38 599.154 1150.12 597.355C1195.03 580.278 1237.86 562.792 1279.19 543.225C1338.17 515.467 1390.75 479.614 1440 440.209V439.796C1390.69 479.269 1338.06 515.184 1279.01 542.965Z" fill="#94D3E6"/>
<path d="M1278.31 544.074C1236.74 563.002 1193.81 579.893 1148.92 596.75C1144.19 598.526 1139.45 600.291 1134.7 602.051C1092.48 617.658 1049.9 631.579 1006.36 642.101C931.667 660.225 855.111 668.484 778.069 668.484C725.438 668.484 672.576 664.632 619.931 657.448C489.569 639.425 363.486 605.003 252.986 556.575C209.312 537.257 167.535 515.512 129.16 490.464C83.1667 460.449 36.4861 427.6 0 387.662V388.155C36.4722 427.979 83.0556 460.749 128.931 490.696C167.333 515.756 209.118 537.506 252.812 556.83C363.354 605.275 489.472 639.708 619.868 657.736C672.535 664.921 725.417 668.773 778.069 668.773C855.146 668.773 931.736 660.52 1006.47 642.384C1050.03 631.856 1092.62 617.929 1134.85 602.316C1139.6 600.563 1144.34 598.798 1149.07 597.022C1193.97 580.159 1236.91 563.267 1278.49 544.328C1337.83 517.487 1390.59 482.165 1440 443.179V442.766C1390.53 481.826 1337.72 517.198 1278.31 544.074Z" fill="#94D3E6"/>
<path d="M1277.6 545.177C1235.8 563.465 1192.75 579.774 1147.87 596.416C1143.15 598.17 1138.41 599.918 1133.66 601.655C1091.51 617.143 1049.12 631.217 1005.78 641.96C928.236 661.255 848.757 670.006 768.708 670.006C719.472 670.006 670.014 666.703 620.653 660.491C490.521 643.883 364.257 611.843 253.125 565.389C209.153 547.01 167.069 526.102 128.236 501.891C83.2222 473.827 36.8194 443.229 0 405.668V406.149C36.8056 443.603 83.1181 474.133 128.021 502.123C166.868 526.351 208.972 547.259 252.965 565.649C364.132 612.12 490.424 644.166 620.597 660.78C669.972 666.991 719.451 670.3 768.708 670.3C848.792 670.3 928.299 661.549 1005.89 642.237C1049.26 631.494 1091.65 617.409 1133.81 601.926C1138.56 600.19 1143.29 598.442 1148.02 596.682C1192.9 580.04 1235.97 563.731 1277.78 545.437C1337.48 519.506 1390.43 484.728 1440 446.143V445.741C1390.38 484.383 1337.38 519.223 1277.6 545.177Z" fill="#94D3E6"/>
<path d="M1276.9 546.286C1234.86 563.935 1191.69 579.65 1146.82 596.083C1142.1 597.808 1137.37 599.539 1132.62 601.27C1090.54 616.611 1048.35 630.855 1005.2 641.818C924.701 662.347 842.194 671.624 759.028 671.624C713.271 671.624 667.319 668.818 621.375 663.535C491.472 648.346 365.146 618.506 253.271 574.202C209.049 556.689 166.604 536.686 127.319 513.323C83.2153 487.093 37.125 458.582 0 423.272V423.719C37.1111 458.944 83.1111 487.398 127.104 513.561C166.41 536.941 208.875 556.943 253.111 574.468C365.021 618.784 491.382 648.629 621.326 663.829C667.285 669.112 713.257 671.918 759.028 671.918C842.229 671.918 924.764 662.635 1005.31 642.09C1048.48 631.132 1090.69 616.883 1132.77 601.536C1137.51 599.805 1142.24 598.08 1146.97 596.349C1191.83 579.921 1235.01 564.201 1277.06 546.546C1337.13 521.526 1390.28 487.279 1440 449.113V448.705C1390.22 486.94 1337.02 521.243 1276.9 546.286Z" fill="#94D3E6"/>
<path d="M1276.19 547.389C1233.92 564.399 1190.63 579.531 1145.77 595.743C1141.06 597.452 1136.33 599.16 1131.59 600.874C1089.58 616.091 1047.58 630.499 1004.62 641.671C921.049 663.512 835.431 673.332 748.986 673.332C706.84 673.332 664.493 670.996 622.097 666.584C492.417 652.809 366.035 625.17 253.41 583.015C208.938 566.367 166.146 547.276 126.396 524.756C83.1736 500.267 37.3889 473.742 0 440.565V441.006C37.375 474.093 83.0694 500.561 126.194 524.993C165.958 547.524 208.771 566.633 253.264 583.281C365.917 625.453 492.347 653.092 622.049 666.872C664.465 671.29 706.819 673.626 748.986 673.626C835.465 673.626 921.125 663.801 1004.74 641.948C1047.71 630.77 1089.72 616.362 1131.74 601.146C1136.47 599.426 1141.2 597.723 1145.92 596.009C1190.77 579.802 1234.06 564.665 1276.35 547.655C1336.78 523.54 1390.12 489.836 1440 452.077V451.67C1390.07 489.497 1336.69 523.257 1276.19 547.389Z" fill="#94D3E6"/>
<path d="M1275.49 548.497C1232.97 564.863 1189.57 579.412 1144.72 595.409C1140.01 597.09 1135.28 598.787 1130.55 600.484C1088.6 615.576 1046.81 630.131 1004.05 641.53C917.292 664.745 828.438 675.142 738.569 675.142C700.146 675.142 661.528 673.242 622.819 669.627C493.368 657.267 366.917 631.834 253.556 591.829C208.826 576.052 165.688 557.848 125.472 536.177C83.0694 513.329 37.625 488.659 0 457.513V457.926C37.6111 488.999 82.9722 513.629 125.278 536.426C165.514 558.108 208.674 576.318 253.417 592.1C366.819 632.117 493.299 657.555 622.778 669.921C661.5 673.53 700.132 675.437 738.569 675.437C828.472 675.437 917.361 665.034 1004.16 641.807C1046.94 630.408 1088.75 615.842 1130.7 600.749C1135.43 599.052 1140.15 597.361 1144.87 595.681C1189.71 579.683 1233.11 565.134 1275.64 548.758C1336.44 525.553 1389.97 492.387 1440 455.041V454.639C1389.91 492.048 1336.34 525.276 1275.49 548.497Z" fill="#94D3E6"/>
<path d="M1274.78 549.601C1232.03 565.332 1188.51 579.288 1143.67 595.076C1138.96 596.733 1134.24 598.408 1129.51 600.093C1087.64 615.05 1046.03 629.775 1003.47 641.383C913.403 666.052 821.201 677.055 727.757 677.055C693.174 677.055 658.417 675.55 623.542 672.676C494.319 661.725 367.812 638.498 253.701 600.648C208.722 585.731 165.236 568.426 124.549 547.609C82.9375 526.317 37.8264 503.412 0 474.206V474.608C37.8125 503.752 82.8472 526.611 124.361 547.858C165.062 568.687 208.576 585.997 253.562 600.919C367.715 638.78 494.257 662.019 623.5 672.965C658.396 675.844 693.16 677.349 727.757 677.349C821.236 677.349 913.479 666.34 1003.58 641.66C1046.17 630.046 1087.78 615.322 1129.66 600.359C1134.38 598.674 1139.1 597.005 1143.82 595.342C1188.65 579.559 1232.17 565.604 1274.93 549.866C1336.09 527.573 1389.81 494.939 1440 457.999V457.603C1389.75 494.605 1335.99 527.29 1274.78 549.601Z" fill="#94D3E6"/>
<path d="M1274.08 550.704C1231.09 565.796 1187.45 579.169 1142.62 594.736C1137.92 596.377 1133.19 598.023 1128.48 599.703C1086.67 614.53 1045.26 629.413 1002.89 641.241C909.389 667.449 813.715 679.085 716.5 679.085C685.903 679.085 655.153 677.931 624.264 675.719C495.271 666.188 368.708 645.156 253.847 609.461C208.611 595.41 164.792 579.005 123.632 559.036C82.7708 539.215 38 517.973 0 490.611V490.996C37.9861 518.313 82.6806 539.509 123.444 559.291C164.625 579.265 208.465 595.681 253.715 609.738C368.618 645.438 495.215 666.482 624.229 676.014C655.125 678.225 685.889 679.374 716.5 679.374C813.75 679.374 909.465 667.738 1003.01 641.518C1045.4 629.684 1086.81 614.801 1128.62 599.969C1133.33 598.294 1138.06 596.643 1142.77 595.008C1187.58 579.44 1231.22 566.068 1274.22 550.969C1335.74 529.587 1389.65 497.49 1440 460.958V460.562C1389.6 497.156 1335.65 529.304 1274.08 550.704Z" fill="#94D3E6"/>
<path d="M1273.37 551.807C1230.15 566.266 1186.39 579.05 1141.58 594.403C1136.87 596.015 1132.15 597.65 1127.44 599.307C1085.7 614.009 1044.49 629.051 1002.31 641.1C905.243 668.937 805.965 681.224 704.778 681.224C678.306 681.224 651.715 680.386 624.979 678.769C496.222 670.651 369.597 651.814 253.993 618.28C208.507 605.088 164.34 589.572 122.708 570.469C82.5694 552.044 38.1458 532.375 0 506.767V507.146C38.1319 532.709 82.4792 552.333 122.535 570.723C164.188 589.838 208.375 605.36 253.868 618.557C369.514 652.102 496.167 670.939 624.958 679.057C651.688 680.681 678.299 681.518 704.778 681.518C806 681.518 905.319 669.22 1002.43 641.371C1044.62 629.328 1085.85 614.275 1127.58 599.579C1132.3 597.921 1137.01 596.286 1141.72 594.674C1186.51 579.327 1230.27 566.537 1273.51 552.078C1335.39 531.601 1389.49 500.035 1440 463.917V463.521C1389.44 499.702 1335.31 531.312 1273.37 551.807Z" fill="#94D3E6"/>
<path d="M1272.67 552.915C1229.2 566.735 1185.33 578.926 1140.53 594.063C1135.82 595.658 1131.11 597.276 1126.4 598.917C1084.72 613.489 1043.72 628.689 1001.73 640.953C900.938 670.51 797.931 683.498 692.542 683.503C670.368 683.498 648.09 682.926 625.708 681.812C497.174 675.109 370.493 658.472 254.132 627.093C208.403 614.767 163.896 600.139 121.785 581.895C82.3333 564.8 38.2639 546.631 0 522.697V523.064C38.25 546.959 82.25 565.095 121.618 582.15C163.75 600.41 208.271 615.044 254.021 627.376C370.417 658.755 497.125 675.397 625.688 682.1C648.076 683.221 670.361 683.798 692.542 683.798C797.965 683.798 901.021 670.798 1001.85 641.224C1043.85 628.96 1084.88 613.755 1126.54 599.188C1131.25 597.537 1135.97 595.924 1140.67 594.335C1185.45 579.208 1229.32 567.007 1272.8 553.187C1335.05 533.614 1389.33 502.581 1440 466.869V466.479C1389.28 502.247 1334.96 533.326 1272.67 552.915Z" fill="#94D3E6"/>
<path d="M1271.97 554.019C1228.26 567.193 1184.26 578.807 1139.49 593.729C1134.78 595.296 1130.08 596.892 1125.37 598.526C1083.76 612.968 1042.94 628.332 1001.15 640.811C896.493 672.19 789.59 685.902 679.764 685.907C662.062 685.902 644.285 685.551 626.431 684.855C498.125 679.566 371.382 665.124 254.271 635.912C208.292 624.44 163.458 610.706 120.861 593.322C82.0694 577.494 38.3611 560.739 0 538.406V538.773C38.3472 561.067 81.9861 577.783 120.701 593.588C163.319 610.977 208.174 624.718 254.174 636.19C371.319 665.413 498.083 679.86 626.41 685.149C644.278 685.845 662.056 686.196 679.764 686.202C789.632 686.202 896.569 672.473 1001.28 641.083C1043.08 628.598 1083.91 613.234 1125.51 598.792C1130.21 597.163 1134.92 595.562 1139.62 594.001C1184.38 579.09 1228.38 567.476 1272.09 554.296C1334.7 535.623 1389.17 505.127 1440 469.828V469.438C1389.12 504.793 1334.62 535.34 1271.97 554.019Z" fill="#94D3E6"/>
<path d="M1271.26 555.127C1227.31 567.663 1183.21 578.688 1138.43 593.396C1133.73 594.94 1129.03 596.518 1124.33 598.136C1082.79 612.448 1042.17 627.97 1000.58 640.664C891.875 673.972 780.944 688.453 666.382 688.453C653.354 688.453 640.278 688.266 627.153 687.899C499.069 684.035 372.278 671.782 254.417 644.726C208.188 634.119 163.021 621.261 119.944 604.755C81.7778 590.12 38.4375 574.723 0 553.917V554.267C38.4236 575.045 81.7014 590.415 119.792 605.015C162.889 621.538 208.076 634.396 254.326 645.009C372.222 672.071 499.042 684.329 627.139 688.193C640.271 688.561 653.347 688.742 666.382 688.747C780.979 688.747 891.951 674.26 1000.7 640.936C1042.31 628.242 1082.94 612.708 1124.47 598.408C1129.17 596.79 1133.87 595.206 1138.57 593.662C1183.33 578.965 1227.42 567.94 1271.38 555.399C1334.35 537.631 1389.02 507.672 1440 472.775V472.391C1388.97 507.344 1334.27 537.348 1271.26 555.127Z" fill="#94D3E6"/>
<path d="M1270.56 556.23C1226.37 568.132 1182.15 578.564 1137.39 593.056C1132.69 594.578 1127.99 596.139 1123.29 597.746C1081.82 611.922 1041.4 627.608 999.993 640.523C887.069 675.872 771.958 691.151 652.34 691.151C644.201 691.151 636.056 691.089 627.875 690.948C500.021 688.498 373.181 678.423 254.562 653.545C208.083 643.798 162.576 631.817 119.028 616.181C81.4583 602.696 38.4861 588.582 0 569.241V569.592C38.4722 588.899 81.3958 602.99 118.882 616.447C162.458 632.094 207.979 644.075 254.472 653.822C373.125 678.718 499.993 688.787 627.868 691.242C636.049 691.383 644.194 691.446 652.34 691.446C771.993 691.446 887.16 676.161 1000.12 640.794C1041.55 627.88 1081.97 612.188 1123.42 598.012C1128.12 596.405 1132.82 594.85 1137.52 593.322C1182.26 578.846 1226.48 568.41 1270.67 556.508C1334 539.645 1388.85 510.212 1440 475.728V475.343C1388.81 509.884 1333.92 539.356 1270.56 556.23Z" fill="#94D3E6"/>
<path d="M1269.85 557.339C1225.43 568.591 1181.09 578.445 1136.34 592.723C1131.64 594.216 1126.94 595.755 1122.25 597.35C1080.85 611.401 1040.62 627.246 999.417 640.381C882.09 677.892 762.618 694.014 637.576 694.014C634.583 694.014 631.59 694.014 628.597 693.991C500.965 692.956 374.076 685.07 254.708 662.358C207.979 653.471 162.146 642.367 118.104 627.614C81.125 615.22 38.5139 602.334 0 584.396V584.735C38.5 602.645 81.0556 615.514 117.965 627.88C162.028 642.644 207.882 653.748 254.618 662.647C374.035 685.364 500.951 693.25 628.597 694.28C631.59 694.302 634.583 694.308 637.576 694.314C762.653 694.314 882.174 678.18 999.549 640.647C1040.78 627.518 1081 611.667 1122.39 597.621C1127.08 596.032 1131.77 594.493 1136.47 592.988C1181.19 578.728 1225.53 568.879 1269.96 557.616C1333.65 541.647 1388.7 512.758 1440 478.675V478.296C1388.66 512.43 1333.58 541.364 1269.85 557.339Z" fill="#94D3E6"/>
<path d="M1269.15 558.442C1224.49 569.066 1180.02 578.32 1135.28 592.383C1130.6 593.854 1125.9 595.381 1121.21 596.96C1079.88 610.881 1039.85 626.884 998.84 640.234C879.174 679.306 757.507 696.418 629.319 697.04C625.535 697.046 621.75 697.051 617.965 697.051C494.389 697.051 371.451 690.914 254.854 671.171C207.889 663.065 161.708 652.911 117.181 639.035C80.7639 627.693 38.5278 615.972 0 599.381V599.714C38.5139 616.283 80.7014 627.987 117.049 639.312C161.597 653.194 207.806 663.354 254.771 671.46C371.41 691.208 494.368 697.346 617.965 697.346C621.75 697.346 625.535 697.34 629.319 697.334C757.542 696.712 879.264 679.594 998.972 640.506C1040 627.156 1080.03 611.147 1121.35 597.231C1126.03 595.658 1130.73 594.131 1135.42 592.655C1180.13 578.609 1224.58 569.343 1269.24 558.719C1333.31 543.661 1388.54 515.298 1440 481.628V481.243C1388.5 514.969 1333.23 543.372 1269.15 558.442Z" fill="#94D3E6"/>
<path d="M1268.44 559.545C1223.54 569.53 1178.97 578.201 1134.24 592.049C1129.55 593.498 1124.86 595.008 1120.17 596.569C1078.91 610.361 1039.08 626.528 998.257 640.093C879.056 679.821 758.118 698.053 630.042 700.084C611.479 700.344 592.931 700.491 574.403 700.491C465.944 700.491 358.264 695.524 254.993 679.996C207.785 672.744 161.278 663.456 116.257 650.473C80.3819 640.127 38.5139 629.52 0 614.218V614.541C38.5069 629.826 80.3333 640.415 116.139 650.745C161.174 663.733 207.701 673.027 254.924 680.285C358.229 695.818 465.931 700.779 574.403 700.779C592.938 700.779 611.486 700.638 630.049 700.372C758.153 698.341 879.146 680.104 998.396 640.359C1039.24 626.788 1079.07 610.621 1120.31 596.841C1124.99 595.274 1129.68 593.775 1134.37 592.321C1179.07 578.49 1223.63 569.812 1268.53 559.828C1332.96 545.663 1388.38 517.837 1440 484.57V484.196C1388.35 517.509 1332.89 545.375 1268.44 559.545Z" fill="#94D3E6"/>
<path d="M1267.74 560.648C1222.6 569.993 1177.9 578.083 1133.19 591.71C1128.51 593.141 1123.82 594.623 1119.14 596.179C1077.94 609.84 1038.31 626.166 997.681 639.946C878.938 680.335 758.715 699.687 630.764 703.127C596.924 703.987 563.076 704.501 529.34 704.501C436.486 704.507 344.368 700.564 255.132 688.809C207.674 682.423 160.84 673.988 115.333 661.9C79.9792 652.51 38.4931 642.966 0 628.898V629.226C38.4861 643.272 79.9375 652.798 115.222 662.177C160.75 674.271 207.604 682.711 255.076 689.098C344.333 700.853 436.472 704.796 529.34 704.801C563.09 704.796 596.931 704.275 630.778 703.421C758.771 699.982 879.042 680.624 997.819 640.217C1038.46 626.432 1078.1 610.1 1119.27 596.45C1123.95 594.9 1128.63 593.413 1133.32 591.981C1178.01 578.365 1222.68 570.276 1267.83 560.937C1332.6 547.666 1388.23 520.377 1440 487.517V487.143C1388.19 520.049 1332.55 547.383 1267.74 560.648Z" fill="#94D3E6"/>
<path d="M1267.03 561.757C1221.66 570.463 1176.85 577.964 1132.15 591.371C1127.46 592.779 1122.77 594.244 1118.1 595.783C1076.97 609.314 1037.53 625.804 997.097 639.804C878.826 680.845 759.319 701.322 631.486 706.176C582.535 707.958 533.535 709.163 484.771 709.163C407.292 709.163 330.403 706.131 255.271 697.628C207.569 692.102 160.41 684.522 114.41 673.327C79.5625 664.853 38.4444 656.328 0 643.447V643.77C38.4444 656.639 79.5208 665.141 114.312 673.61C160.326 684.804 207.5 692.396 255.222 697.917C330.375 706.425 407.278 709.451 484.771 709.451C533.542 709.451 582.556 708.252 631.5 706.464C759.368 701.617 878.931 681.133 997.236 640.07C1037.69 626.07 1077.13 609.58 1118.24 596.054C1122.91 594.521 1127.59 593.056 1132.27 591.648C1176.94 578.247 1221.74 570.746 1267.11 562.046C1332.26 549.674 1388.07 522.906 1440 490.458V490.085C1388.03 522.589 1332.19 549.386 1267.03 561.757Z" fill="#94D3E6"/>
<path d="M1266.32 562.866C1220.72 570.927 1175.78 577.839 1131.09 591.037C1126.41 592.423 1121.73 593.871 1117.06 595.393C1076.01 608.794 1036.76 625.442 996.521 639.657C878.715 681.365 759.924 702.957 632.208 709.219C568.778 712.246 505.181 714.486 442.014 714.486C379.201 714.486 316.819 712.274 255.417 706.442C207.458 701.781 159.972 695.043 113.493 684.759C79.1319 677.156 38.3819 669.61 0 657.867V658.183C38.3819 669.91 79.0903 677.445 113.396 685.036C159.896 695.332 207.403 702.075 255.375 706.73C316.792 712.568 379.201 714.78 442.014 714.78C505.201 714.78 568.792 712.54 632.236 709.513C759.979 703.251 878.819 681.648 996.667 639.923C1036.92 625.702 1076.17 609.059 1117.19 595.664C1121.87 594.142 1126.53 592.694 1131.22 591.314C1175.88 578.128 1220.78 571.215 1266.4 563.149C1331.91 551.677 1387.91 525.446 1440 493.4V493.032C1387.88 525.123 1331.85 551.394 1266.32 562.866Z" fill="#94D3E6"/>
<path d="M1265.62 563.969C1219.77 571.396 1174.72 577.721 1130.05 590.697C1125.37 592.061 1120.69 593.492 1116.02 595.008C1075.03 608.273 1035.99 625.085 995.938 639.516C878.604 681.874 760.535 704.592 632.931 712.268C555.917 716.811 478.556 720.476 401.812 720.476C352.729 720.476 303.889 718.983 255.569 715.255C207.347 711.459 159.535 705.559 112.569 696.186C78.6806 689.426 38.3125 682.813 0 672.167V672.473C38.3125 683.107 78.6458 689.715 112.479 696.469C159.472 705.853 207.299 711.748 255.528 715.549C303.875 719.277 352.715 720.771 401.812 720.771C478.569 720.771 555.944 717.105 632.958 712.557C760.59 704.886 878.708 682.163 996.083 639.782C1036.15 625.345 1075.19 608.539 1116.16 595.274C1120.82 593.763 1125.49 592.338 1130.17 590.975C1174.81 578.009 1219.84 571.685 1265.69 564.257C1331.56 553.679 1387.76 527.98 1440 496.341V495.974C1387.72 527.658 1331.51 553.396 1265.62 563.969Z" fill="#94D3E6"/>
<path d="M1264.91 565.078C1218.83 571.86 1173.66 577.596 1129 590.364C1124.32 591.704 1119.65 593.113 1114.99 594.612C1074.06 607.753 1035.22 624.723 995.361 639.369C878.493 682.395 761.139 706.232 633.653 715.312C544.062 721.619 453.84 727.117 364.396 727.117C328 727.117 291.743 726.212 255.708 724.074C207.236 721.138 159.097 716.081 111.646 707.618C78.2222 701.656 38.2222 695.937 0 686.343V686.648C38.2222 696.231 78.1944 701.945 111.569 707.907C159.042 716.369 207.194 721.432 255.681 724.368C291.729 726.501 327.993 727.412 364.396 727.412C453.861 727.412 544.09 721.907 633.688 715.606C761.201 706.521 878.604 682.672 995.514 639.635C1035.38 624.983 1074.22 608.013 1115.12 594.883C1119.78 593.39 1124.44 591.976 1129.12 590.641C1173.74 577.885 1218.89 572.154 1264.98 565.366C1331.21 555.682 1387.59 530.514 1440 499.277V498.915C1387.56 530.192 1331.16 555.393 1264.91 565.078Z" fill="#94D3E6"/>
<path d="M1264.21 566.181C1217.89 572.324 1172.6 577.477 1127.95 590.03C1123.28 591.348 1118.61 592.734 1113.94 594.216C1073.09 607.232 1034.44 624.361 994.785 639.227C878.375 682.909 761.736 707.867 634.375 718.355C533.215 726.625 431.069 734.375 329.729 734.375C305.049 734.375 280.41 733.917 255.854 732.887C207.132 730.811 158.66 726.597 110.729 719.045C77.7431 713.858 38.1181 708.993 0 700.412V700.711C38.1181 709.287 77.7222 714.146 110.653 719.334C158.611 726.886 207.097 731.106 255.833 733.182C280.403 734.205 305.042 734.664 329.729 734.664C431.09 734.664 533.25 726.919 634.417 718.649C761.812 708.156 878.493 683.187 994.931 639.493C1034.6 624.621 1073.26 607.498 1114.08 594.493C1118.74 593.011 1123.4 591.614 1128.07 590.301C1172.68 577.766 1217.94 572.618 1264.26 566.469C1330.86 557.684 1387.44 533.043 1440 502.213V501.857C1387.4 532.726 1330.81 557.396 1264.21 566.181Z" fill="#94D3E6"/>
<path d="M1263.51 567.289C1216.94 572.793 1171.55 577.359 1126.9 589.69C1122.23 590.986 1117.57 592.36 1112.91 593.831C1072.12 606.712 1033.67 623.999 994.201 639.086C878.257 683.418 762.347 709.502 635.104 721.398C523.34 731.824 410.139 742.204 297.667 742.204C283.764 742.204 269.868 742.046 255.993 741.706C207.014 740.496 158.229 737.04 109.799 730.478C77.2569 725.986 38 721.925 0 714.316V714.627C38.0069 722.224 77.2361 726.275 109.736 730.766C158.188 737.334 206.993 740.784 255.979 742.001C269.868 742.34 283.757 742.493 297.667 742.493C410.167 742.493 523.375 732.112 635.139 721.693C762.424 709.791 878.375 683.701 994.361 639.346C1033.84 624.259 1072.28 606.972 1113.04 594.103C1117.69 592.632 1122.35 591.257 1127.02 589.973C1171.61 577.647 1216.99 573.088 1263.56 567.578C1330.51 559.681 1387.28 535.572 1440 505.149V504.793C1387.24 535.255 1330.47 559.392 1263.51 567.289Z" fill="#94D3E6"/>
<path d="M1262.8 568.398C1211.1 573.766 1160.97 578.06 1111.88 593.435C1071.16 606.186 1032.9 623.643 993.625 638.939C878.146 683.939 762.944 711.137 635.819 724.453C514.361 737.164 390.924 750.565 267.965 750.559C214.778 750.565 161.688 748.059 108.875 741.904C76.75 738.165 37.8681 734.907 0 728.232V728.532C37.875 735.195 76.7361 738.448 108.826 742.199C161.66 748.348 214.771 750.854 267.965 750.854C390.958 750.854 514.41 737.452 635.868 724.742C763.035 711.425 878.264 684.21 993.778 639.199C1033.06 623.897 1071.32 606.452 1112 593.707C1161.04 578.349 1211.14 574.061 1262.85 568.687C1330.16 561.678 1387.12 538.1 1440 508.085V507.729C1387.09 537.789 1330.12 561.395 1262.8 568.398Z" fill="#94D3E6"/>
</g>
</svg>
